<svg width="29" height="29" viewBox="0 0 29 29" fill="none" xmlns="http://www.w3.org/2000/svg">
<path fill-rule="evenodd" clip-rule="evenodd" d="M14.5 29C22.5081 29 29 22.5081 29 14.5C29 6.49187 22.5081 0 14.5 0C6.49187 0 0 6.49187 0 14.5C0 22.5081 6.49187 29 14.5 29ZM10.3035 11.7689C9.89884 11.3642 9.89884 10.7081 10.3035 10.3035C10.7081 9.89884 11.3642 9.89884 11.7689 10.3035L14.8462 13.3809L17.6305 10.5966C18.0352 10.1919 18.6912 10.1919 19.0959 10.5966C19.5006 11.0012 19.5006 11.6573 19.0959 12.062L16.3116 14.8462L19.0958 17.6304C19.5005 18.0351 19.5005 18.6912 19.0958 19.0958C18.6912 19.5005 18.0351 19.5005 17.6304 19.0958L14.8462 16.3116L11.769 19.3889C11.3643 19.7936 10.7082 19.7936 10.3036 19.3889C9.89891 18.9843 9.89891 18.3282 10.3036 17.9235L13.3809 14.8462L10.3035 11.7689Z" fill="#434576" fill-opacity="0.3"/>
</svg>
