<svg width="67" height="64" viewBox="0 0 67 64" fill="none" xmlns="http://www.w3.org/2000/svg">
<g clip-path="url(#clip0_1342_1177)">
<path d="M5.74067e-06 44.6436C0.353139 43.9205 0.605378 43.1469 1.16418 42.5248C1.52249 42.1251 2.23135 41.9388 2.28568 41.4589C2.33483 41.023 1.87693 40.5444 1.69325 40.0645C1.4404 39.3776 1.31459 38.6504 1.32199 37.9185C1.31423 36.1765 1.31423 34.4342 1.32199 32.6913C1.33234 30.1935 3.00359 28.5339 5.50139 28.5301C6.8997 28.5301 8.29671 28.5301 9.69502 28.5301C12.0143 28.5417 13.6817 30.1922 13.7049 32.5051C13.7192 34.3328 13.6972 36.1619 13.7127 37.9896C13.7296 39.0472 13.4682 40.0906 12.9547 41.0152C12.8512 41.2028 12.6882 41.3761 12.9819 41.5481C13.9261 42.1018 14.4475 43.0473 15.0865 43.8765C16.2817 45.4287 17.451 46.9926 18.6139 48.5655C18.7112 48.7174 18.8482 48.8398 19.0101 48.9194C19.172 48.999 19.3526 49.0327 19.5323 49.017C20.3912 48.9872 21.254 48.9665 22.1116 49.017C22.739 49.0571 22.8748 48.81 22.8463 48.2409C22.805 47.404 22.8929 46.5593 22.8243 45.7262C22.6691 43.848 23.6005 42.5765 25.0311 41.5624C25.55 41.1776 26.1149 40.8591 26.7127 40.6142C27.0813 40.4719 27.137 40.2947 26.9947 39.9364C26.7839 39.3709 26.6842 38.7701 26.701 38.1669C26.701 36.2266 26.6829 34.2953 26.701 32.3602C26.7034 31.3475 27.1057 30.3766 27.8204 29.6591C28.5351 28.9415 29.5042 28.5352 30.5169 28.5288C32.9682 28.5016 35.4194 28.5171 37.8707 28.5288C38.6778 28.5288 39.0711 28.9168 39.0737 29.7123C39.084 32.5077 39.0905 35.303 39.0646 38.0996C39.0601 38.6581 38.9698 39.2126 38.7968 39.7437C38.6339 40.2326 38.8098 40.3646 39.2082 40.5405C40.4565 41.0915 41.6142 41.7836 42.4627 42.8947C42.9809 43.5355 43.2594 44.3369 43.2505 45.161C43.2324 46.2566 43.2621 47.36 43.2388 48.4504C43.2298 48.8695 43.3682 49.0222 43.7886 49.0118C44.7135 48.9872 45.6383 48.9834 46.5619 49.0118C46.9771 49.0247 47.2332 48.8747 47.4674 48.55C48.9058 46.6201 50.3649 44.7056 51.8123 42.7822C52.15 42.332 52.5057 41.8974 52.9985 41.618C53.3064 41.4421 53.2805 41.2804 53.1279 41.0036C52.6141 40.1034 52.3523 39.0815 52.3699 38.0453C52.3828 36.1955 52.3621 34.3458 52.3699 32.496C52.3867 30.1909 54.0605 28.5404 56.3798 28.5301C57.8208 28.5223 59.2613 28.5223 60.7015 28.5301C62.9005 28.5404 64.6248 30.0422 64.7114 32.2477C64.7981 34.4531 64.8524 36.6741 64.6532 38.8848C64.5697 39.6566 64.3166 40.4005 63.912 41.0631C63.7193 41.3955 63.6895 41.5805 64.0621 41.8392C65.4035 42.7446 66.0541 44.0524 66.0593 45.6719C66.0662 47.7364 66.0662 49.8009 66.0593 51.8653C66.0593 52.635 65.7165 53.0489 65.1008 53.0541C64.4851 53.0593 64.1267 52.644 64.1255 51.8899C64.1203 49.8254 64.1203 47.761 64.1255 45.6965C64.1373 45.3296 64.0719 44.9642 63.9335 44.6242C63.7951 44.2841 63.5869 43.977 63.3222 43.7226C62.6327 43.0512 62.3378 43.0279 61.4802 43.4742C59.4584 44.5297 57.4405 44.4974 55.4472 43.3901C54.5417 42.8882 54.1032 42.9671 53.4629 43.8118C52.5402 45.0277 51.6222 46.2467 50.709 47.4686C50.0105 48.3961 49.2964 49.3119 48.616 50.2523C48.4641 50.4856 48.2531 50.6745 48.0046 50.7999C47.7561 50.9253 47.4788 50.9827 47.2009 50.9663C45.1791 50.9392 43.1586 50.9521 41.1368 50.9573C39.939 50.9573 39.1965 51.6429 39.1965 52.7152C39.1965 53.7875 39.9403 54.4744 41.1368 54.477C43.6528 54.4834 46.1687 54.4576 48.6846 54.4912C49.0597 54.5119 49.4338 54.435 49.7704 54.2682C50.107 54.1014 50.3947 53.8502 50.6055 53.5392C51.8757 51.8317 53.1628 50.1385 54.4421 48.4375C54.4938 48.3689 54.5391 48.2952 54.5921 48.2279C55.0164 47.7105 55.6102 47.5812 56.0564 47.933C56.4807 48.2642 56.5402 48.8475 56.1534 49.3714C55.2713 50.564 54.3852 51.7528 53.4694 52.9196C53.0985 53.3631 52.9038 53.9276 52.9222 54.5054C52.9558 56.8066 52.9481 59.1078 52.9222 61.409C52.9222 61.8992 53.036 62.079 53.569 62.0752C56.9011 62.051 60.2341 62.051 63.5679 62.0752C64.0194 62.0752 64.1526 61.9458 64.1449 61.4983C64.119 59.9072 64.1319 58.3162 64.1358 56.7238C64.1358 55.9775 64.5109 55.5234 65.1021 55.5221C65.6932 55.5208 66.0683 55.9762 66.0696 56.7225C66.0748 58.6999 66.0748 60.6782 66.0696 62.6573C66.0696 63.6921 65.7618 63.9973 64.7231 63.9973H21.3691C14.7023 63.9973 8.03627 64.0004 1.37114 64.0064C0.780001 64.0064 0.327269 63.8551 5.74067e-06 63.3596V56.1327C0.342791 55.7265 0.699802 55.3566 1.30647 55.5985C1.91313 55.8404 1.94289 56.3332 1.93901 56.8739C1.92995 58.4003 1.95453 59.9279 1.92478 61.4543C1.91572 61.9277 2.03344 62.0752 2.52757 62.0713C5.8597 62.0497 9.19227 62.0497 12.5253 62.0713C13.0763 62.0713 13.1513 61.8721 13.1474 61.4012C13.128 59.0587 13.1229 56.7135 13.1474 54.3709C13.1636 53.8799 12.9993 53.3999 12.6857 53.0218C11.7466 51.8201 10.8307 50.599 9.92268 49.3727C9.51005 48.8152 9.58506 48.2538 10.0714 47.9032C10.519 47.5799 11.0532 47.6989 11.4775 48.2202C11.5448 48.303 11.6069 48.3961 11.6664 48.4789C12.9599 50.1928 14.2689 51.899 15.5469 53.6232C15.734 53.8987 15.9883 54.1219 16.2857 54.2715C16.5832 54.4212 16.914 54.4923 17.2466 54.4783C19.8053 54.4615 22.3638 54.4783 24.9224 54.4705C26.1241 54.4705 26.8627 53.7888 26.8627 52.7152C26.8627 51.6416 26.1241 50.9534 24.9289 50.9508C22.9071 50.9443 20.8866 50.9314 18.8661 50.9586C18.588 50.976 18.3102 50.92 18.0605 50.7963C17.8108 50.6726 17.5979 50.4854 17.4433 50.2536C16.217 48.5953 14.9675 46.9538 13.7244 45.3071C13.2846 44.7238 12.8706 44.1171 12.383 43.5764C12.0324 43.1883 11.5991 42.7628 10.9989 43.1418C8.74686 44.5647 6.4793 44.6048 4.19493 43.2427C4.08173 43.1637 3.94779 43.1197 3.80979 43.1162C3.67179 43.1128 3.53582 43.15 3.41881 43.2233C2.47195 43.7407 1.93384 44.5168 1.92737 45.606C1.9153 47.7127 1.9153 49.8198 1.92737 51.9274C1.92737 52.4086 1.77085 52.7902 1.33235 52.9752C1.13461 53.0682 0.910346 53.0884 0.699194 53.032C0.488042 52.9757 0.303605 52.8465 0.178513 52.6673C0.120635 52.6085 0.0559314 52.5568 -0.0142212 52.5134L5.74067e-06 44.6436ZM33.1015 56.4147C27.3181 56.4147 21.536 56.4212 15.7526 56.403C15.2261 56.403 15.0489 56.5324 15.0632 57.077C15.1007 58.5594 15.0903 60.0443 15.0632 61.5267C15.0567 61.9588 15.2029 62.0674 15.6155 62.0674C27.2254 62.0588 38.8339 62.0588 50.4412 62.0674C50.9211 62.0674 51.0039 61.8863 50.9987 61.4646C50.978 60.0249 50.9612 58.5826 51.0052 57.1442C51.0233 56.544 50.8409 56.3966 50.2523 56.3979C44.5375 56.4199 38.8189 56.4121 33.1015 56.4121V56.4147ZM33.0096 54.4744C34.3419 54.4744 35.673 54.4627 37.0053 54.4809C37.4412 54.4809 37.6236 54.4472 37.4425 53.922C36.5254 51.2535 38.7141 48.9419 40.8212 49.0196C41.2403 49.0351 41.3179 48.8449 41.3102 48.4776C41.2908 47.5553 41.2416 46.6252 41.3192 45.7081C41.4098 44.6578 40.9558 43.9321 40.1783 43.3384C39.5244 42.8493 38.809 42.4483 38.0505 42.1458C37.7374 42.0164 37.5499 42.0772 37.3222 42.31C34.8128 44.8699 30.8869 44.8337 28.4991 42.3941C28.2934 42.1846 28.0968 42.1005 27.8161 42.2272C26.8705 42.6528 25.965 43.1327 25.2665 43.9308C24.9476 44.2564 24.7664 44.6923 24.7607 45.148C24.7685 46.2644 24.7776 47.382 24.7607 48.4996C24.753 48.8876 24.8837 49.0015 25.2704 49.0247C27.8445 49.18 29.4097 51.4708 28.6232 53.9402C28.4732 54.4084 28.5844 54.486 29.0204 54.4809C30.3449 54.4589 31.6772 54.4744 33.0096 54.4744ZM32.9087 35.0908C31.6617 35.0908 30.4148 35.1051 29.1691 35.0831C28.7616 35.0753 28.5986 35.1814 28.6142 35.6186C28.6478 36.4982 28.6142 37.3804 28.6349 38.2613C28.6944 40.4072 30.5157 42.1936 32.7289 42.2971C34.8361 42.3967 36.8048 40.6892 37.0583 38.5769C37.176 37.5899 37.0881 36.6017 37.1398 35.6173C37.1631 35.1775 36.9924 35.074 36.5823 35.0831C35.3586 35.1064 34.1324 35.0908 32.9087 35.0908ZM7.57104 30.4665C6.82079 30.4665 6.06925 30.4522 5.319 30.4665C4.15482 30.4923 3.29721 31.284 3.26617 32.4352C3.22478 33.9784 3.25582 35.5255 3.25453 37.0699C3.25453 37.2691 3.25453 37.4671 3.51324 37.5214C5.01114 37.8435 6.60348 37.7115 7.33044 35.8398C7.57628 35.1975 7.71227 34.5184 7.73273 33.8309C7.74955 33.3821 7.90995 33.0212 8.32 32.8388C8.699 32.6693 9.0573 32.7612 9.3975 33.0251C9.66999 33.2327 9.96882 33.4032 10.2862 33.5321C11.5797 34.0573 11.7892 33.906 11.7647 32.5296C11.7414 31.2892 10.9446 30.4898 9.69502 30.4717C8.98617 30.4574 8.2786 30.4665 7.57104 30.4665ZM58.571 30.4665C57.8182 30.4665 57.0654 30.4484 56.3125 30.4665C55.4433 30.4923 54.7926 30.8882 54.4434 31.7057C54.1976 32.2826 54.3218 32.8957 54.314 33.4933C54.314 33.8167 54.5818 33.7753 54.7913 33.752C55.5001 33.6772 56.1745 33.4087 56.7407 32.9759C57.4534 32.4585 58.2256 32.8285 58.3265 33.7042C58.3679 34.0677 58.4029 34.4311 58.4559 34.7907C58.8039 37.0091 60.1375 37.9469 62.3365 37.555C62.7245 37.4839 62.8241 37.3222 62.8216 36.9626C62.8073 35.5009 62.8293 34.0379 62.8112 32.5749C62.7944 31.2814 61.942 30.4678 60.6342 30.4548C59.9461 30.4613 59.2579 30.4665 58.5697 30.4665H58.571ZM3.65034 39.5328C3.63822 39.5911 3.6343 39.6507 3.63871 39.71C3.67238 39.8122 3.7157 39.911 3.76806 40.005C4.65801 41.5274 5.98905 42.3786 7.74696 42.2699C9.57213 42.1574 10.8773 41.1808 11.5318 39.4242C11.9509 38.2988 11.7065 37.1243 11.7608 35.9717C11.7724 35.7337 11.6004 35.7221 11.4167 35.6949C10.905 35.6411 10.3979 35.5504 9.89939 35.4233C9.54626 35.3185 9.46865 35.4129 9.38198 35.7337C9.15949 36.5926 8.81023 37.3972 8.21004 38.0737C6.98894 39.4539 5.41861 39.7333 3.64906 39.5328H3.65034ZM62.5228 39.5044L62.1269 39.5548C59.5826 39.8691 57.5996 38.6105 56.8092 36.1735C56.7477 36.0129 56.7006 35.8471 56.6683 35.6781C56.6307 35.3974 56.5208 35.3069 56.2388 35.4194C55.7519 35.5918 55.2405 35.6848 54.7241 35.6949C54.3697 35.7117 54.292 35.8592 54.3011 36.1709C54.3166 36.7944 54.3011 37.4192 54.3076 38.0427C54.3477 40.7733 56.7381 42.7343 59.4067 42.182C60.8645 41.8806 61.8747 40.9867 62.5215 39.5044H62.5228ZM32.8492 33.1544C34.1168 33.1544 35.3845 33.1441 36.6509 33.1544C37.0066 33.1544 37.158 33.0613 37.1398 32.6849C37.1101 32.1485 37.1101 31.6108 37.1398 31.0744C37.1709 30.5932 37.0027 30.4432 36.5189 30.4497C34.5787 30.4742 32.6513 30.4497 30.7175 30.4626C29.4084 30.4626 28.6168 31.3189 28.6116 32.6241C28.6116 33.069 28.7707 33.1622 29.1717 33.1557C30.398 33.1415 31.6229 33.1544 32.8479 33.1544H32.8492Z" fill="#6C8BE5"/>
<path d="M48.9536 27.4123C48.9536 26.838 48.9433 26.2636 48.9536 25.6893C48.973 24.7489 49.233 24.4721 50.1527 24.3751C51.5976 24.2225 52.6467 23.1048 52.6531 21.6587C52.6661 18.5395 52.6661 15.4208 52.6531 12.3026C52.6441 10.8163 51.5265 9.65729 50.0505 9.65082C44.7173 9.63013 39.3841 9.65082 34.0509 9.63012C33.602 9.63012 33.5205 9.80605 33.5244 10.2019C33.5386 12.287 33.536 14.3735 33.5244 16.46C33.5141 19.99 31.099 22.4736 27.5819 22.5913C27.4228 22.5913 27.2068 22.5008 27.1137 22.6896C27.0206 22.8785 27.1835 23.0609 27.2922 23.207C27.5501 23.5805 27.8972 23.8837 28.302 24.0891C28.7068 24.2944 29.1565 24.3954 29.6102 24.3828C31.3953 24.3828 33.1803 24.3828 34.9654 24.3828C35.7558 24.3828 36.1412 24.7011 36.1464 25.3375C36.1516 25.9739 35.748 26.3154 34.9822 26.3167C33.1713 26.3167 31.3694 26.3283 29.5636 26.3167C27.4785 26.3024 25.7878 25.0982 25.119 23.1178C24.9742 22.6896 24.7776 22.5745 24.3429 22.5758C20.2364 22.593 16.129 22.593 12.0208 22.5758C11.8519 22.5682 11.6835 22.5975 11.5271 22.6616C11.3708 22.7257 11.2302 22.8231 11.1153 22.947C9.86575 24.2212 8.59162 25.472 7.33948 26.7435C6.96306 27.1238 6.55432 27.3903 6.02397 27.1691C5.49362 26.9479 5.40565 26.4615 5.4147 25.9325C5.43023 24.9429 5.41471 23.9534 5.42506 22.9574C5.42506 22.6211 5.32934 22.4969 4.98267 22.4063C2.28695 21.6936 0.532928 19.4222 0.52258 16.6398C0.509645 13.0903 0.509645 9.5413 0.52258 5.99271C0.535515 2.57391 3.10964 0.00108373 6.53491 -0.00150333C13.52 -0.00926451 20.5089 -0.00926451 27.5018 -0.00150333C30.9115 -0.00150333 33.4921 2.58555 33.5257 5.99401C33.5425 7.64067 33.5425 7.64069 35.2228 7.64069H49.5448C51.6985 7.64069 53.3167 8.51381 54.2351 10.524C54.4852 11.0942 54.6075 11.7123 54.5934 12.3349C54.5934 15.4394 54.6012 18.5296 54.5934 21.6263C54.5831 23.6779 53.4435 25.3116 51.5097 26.0243C51.0789 26.1822 50.9082 26.3658 50.9289 26.8354C50.9703 27.7408 50.9366 28.6463 50.9418 29.5518C50.9418 30.108 50.9198 30.6578 50.3028 30.9022C49.7207 31.1325 49.3326 30.7871 48.9536 30.4042C47.7287 29.165 46.4843 27.9465 45.2671 26.6996C45.1461 26.5671 44.997 26.4635 44.8306 26.3963C44.6643 26.3292 44.485 26.3002 44.306 26.3115C42.8223 26.3335 41.3386 26.3231 39.855 26.3193C39.0659 26.3193 38.5976 25.9312 38.6196 25.3219C38.6403 24.7308 39.0853 24.3854 39.8472 24.3841C41.5676 24.3841 43.288 24.3958 45.0084 24.3751C45.2326 24.3662 45.4561 24.4068 45.6628 24.494C45.8696 24.5812 46.0547 24.7128 46.2049 24.8796C47.0547 25.7566 47.924 26.6142 48.7919 27.4796L48.9536 27.4123ZM7.36018 23.7736L7.51412 23.8305C8.35879 22.9755 9.22028 22.1347 10.0443 21.2577C10.228 21.0505 10.4558 20.8871 10.711 20.7797C10.9662 20.6722 11.2423 20.6234 11.5189 20.6368C16.8094 20.6549 22.0995 20.6579 27.3892 20.6458C29.8922 20.6458 31.5789 18.9927 31.5906 16.5065C31.6061 13.0218 31.6061 9.53743 31.5906 6.05352C31.5776 3.64755 29.8689 1.94656 27.472 1.94397C20.5033 1.93362 13.5359 1.93362 6.56983 1.94397C4.1768 1.94397 2.46934 3.66954 2.46417 6.06127C2.45555 9.56674 2.45555 13.0722 2.46417 16.5777C2.46417 18.8362 4.02934 20.4906 6.27749 20.6484C7.02516 20.7002 7.34983 21.0365 7.36018 21.7997C7.36665 22.4555 7.36018 23.1139 7.36018 23.7736Z" fill="#6C8BE5"/>
<path d="M17.0267 5.26465C19.9268 5.26465 22.8265 5.26465 25.7257 5.26465C26.0996 5.26465 26.454 5.27889 26.7192 5.60227C26.8182 5.7163 26.8884 5.85248 26.9237 5.99932C26.9591 6.14616 26.9586 6.29934 26.9223 6.44596C26.8861 6.59257 26.8151 6.72833 26.7153 6.84174C26.6156 6.95515 26.49 7.04289 26.3492 7.09758C26.1266 7.17853 25.8898 7.21331 25.6533 7.19978H8.38596C8.32128 7.19978 8.2566 7.19978 8.19193 7.19978C7.51153 7.16873 7.08725 6.77292 7.10277 6.18566C7.1157 5.63849 7.53869 5.27242 8.19968 5.27112C10.7134 5.26595 13.2263 5.26595 15.7384 5.27112L17.0267 5.26465Z" fill="#6C8BE5"/>
<path d="M17.0332 12.2601C14.1085 12.2601 11.1839 12.2601 8.25918 12.2601C7.66674 12.2601 7.25023 12.0454 7.11829 11.4465C7.00446 10.9291 7.39252 10.4272 7.95132 10.3379C8.16614 10.3156 8.38235 10.3095 8.59809 10.3198H25.4347C25.5641 10.3198 25.6934 10.3198 25.8228 10.3198C26.5238 10.3509 26.9481 10.7208 26.9533 11.3029C26.9533 11.8617 26.5057 12.2511 25.8085 12.2524C22.8825 12.261 19.9574 12.2636 17.0332 12.2601Z" fill="#6C8BE5"/>
<path d="M12.5149 17.3849H8.32387C7.89959 17.3849 7.50508 17.3073 7.25413 16.9167C7.17167 16.7958 7.11864 16.6573 7.09929 16.5122C7.07995 16.3672 7.09482 16.2196 7.14272 16.0813C7.19061 15.943 7.27019 15.8179 7.37512 15.7158C7.48004 15.6138 7.60739 15.5378 7.74696 15.4938C8.0167 15.4214 8.29571 15.3896 8.57482 15.3994C11.2395 15.3916 13.9046 15.3916 16.5701 15.3994C16.6995 15.3954 16.8291 15.398 16.9582 15.4071C17.605 15.4718 18.0124 15.8793 17.993 16.4213C17.9736 16.9632 17.539 17.372 16.9013 17.3798C15.4383 17.3953 13.9766 17.3849 12.5149 17.3849Z" fill="#6C8BE5"/>
</g>
<defs>
<clipPath id="clip0_1342_1177">
<rect width="66.0696" height="64" fill="white"/>
</clipPath>
</defs>
</svg>
