<?xml version="1.0" encoding="utf-8"?>
<!-- Generator: Adobe Illustrator 23.1.0, SVG Export Plug-In . SVG Version: 6.00 Build 0)  -->
<svg version="1.1" id="Layer_1" xmlns="http://www.w3.org/2000/svg" xmlns:xlink="http://www.w3.org/1999/xlink" x="0px" y="0px"
	 viewBox="0 0 194.5 172.3" enable-background="new 0 0 194.5 172.3" xml:space="preserve">
<path fill="#2D2D2D" d="M2.8,101.1c5.4,4.6,11.7,8.5,18.9,11.6c7.3,3,14.6,4.5,22,4.5c2.7,0,5.4-0.3,8.4-0.9
	c2.9-0.7,5.5-1.8,7.8-3.1c2.4-1.5,4.4-3.3,5.8-5.4c1.6-2.3,2.4-5,2.4-8.2c0-4.5-1.6-8-4.9-10.5C60,86.5,55.9,84.4,51,83
	c-5-1.5-10.4-2.9-16.3-4.4c-5.8-1.6-11.1-3.6-16-6S9.7,66.7,6.5,62.1c-3.1-4.7-4.7-10.8-4.7-18.2c0-6.1,1.2-11.4,3.6-16.2
	c2.4-4.7,5.7-8.7,9.8-11.8c4.1-3.3,8.8-5.7,14.2-7.3C34.7,7,40.3,6.1,46.1,6.1c7.3,0,14.1,1,20.5,2.9c6.5,1.8,12.8,4.5,18.7,8v24.3
	c-5.4-4.4-11.5-7.9-18.2-10.7c-6.7-2.8-13.6-4.2-20.7-4.2c-2.4,0-5,0.3-7.6,0.9c-2.7,0.6-5.1,1.6-7.4,2.9c-2.2,1.3-4,3-5.4,5.1
	c-1.5,1.9-2.2,4.2-2.2,6.9c0,4.2,1.6,7.7,4.7,10.4c3.3,2.7,7.4,4.8,12.4,6.4c5.1,1.5,10.5,3,16.2,4.5c5.8,1.6,11.2,3.6,16.2,6.2
	s9,6.2,12.2,10.9c3.3,4.6,4.9,10.5,4.9,17.8c0,6.4-1.3,12.1-4,17.1c-2.5,4.8-6,9-10.4,12.4c-4.2,3.3-9.1,5.8-14.7,7.4
	c-5.6,1.7-11.3,2.5-17.1,2.5c-7.3,0-14.5-0.9-21.6-2.7c-7.1-1.9-13.7-4.8-19.6-8.5V101.1z"/>
<path fill="#7695EE" d="M131.6,39.9v111.4c0,5.3,1.5,8.9,4.5,10.7c3,1.8,7.2,2.7,12.5,2.7v3.8c-2.8-0.1-6.7-0.3-11.6-0.5
	c-5-0.1-10.3-0.2-16-0.2c-4,0-7.9,0.1-11.8,0.2c-3.9,0.2-6.8,0.4-8.9,0.5v-3.8c4.2,0,7.2-0.8,8.9-2.5c1.8-1.6,2.7-4.6,2.7-9.1V61.7
	c0-5.4-0.9-9.4-2.7-12c-1.8-2.7-5.3-4-10.4-4v-3.8c3.9,0.4,7.6,0.5,11.3,0.5c4,0,7.8-0.2,11.4-0.5C125.2,41.4,128.5,40.8,131.6,39.9
	z M160.5,39.4c9.4,0,17.3,3.8,23.6,11.4c6.4,7.6,9.6,18.9,9.6,33.8c0,9.7-1.5,18.6-4.5,26.9c-3,8.1-7.6,14.6-13.8,19.4
	c-6.1,4.8-13.9,7.3-23.4,7.3c-5.3,0-10.1-1.2-14.2-3.5c-4-2.3-6.8-5.2-8.5-8.7l1.8-2.5c1.6,3,3.8,5.5,6.5,7.4
	c2.9,1.9,6.5,2.9,10.7,2.9c6.3,0,11.2-2,14.7-6c3.6-4.1,6.2-9.6,7.6-16.5c1.5-7,2.2-15,2.2-23.8c0-9.9-0.7-17.9-2.2-24
	c-1.5-6.2-3.6-10.7-6.5-13.4c-2.9-2.9-6.4-4.4-10.5-4.4c-5.4,0-10.4,2.2-14.9,6.5c-4.4,4.4-7,10.9-8,19.6l-1.8-3.8
	c1.6-9.1,5.2-16.1,10.9-21.1C145.6,41.9,152.5,39.4,160.5,39.4z"/>
</svg>
