<svg width="80" height="80" viewBox="0 0 80 80" fill="none" xmlns="http://www.w3.org/2000/svg">
<rect width="80" height="80" fill="url(#paint0_linear_194_133)"/>
<path d="M33.1914 55H27.8594V40.2959C27.8594 39.5986 27.6816 39.0723 27.3262 38.7168C26.9707 38.3477 26.4375 38.1631 25.7266 38.1631H16.1084V32.8311H25.7266C26.2324 32.8311 26.7656 32.8926 27.3262 33.0156C27.8867 33.125 28.4404 33.3027 28.9873 33.5488C29.5479 33.7949 30.0811 34.1162 30.5869 34.5127C31.0928 34.8955 31.5371 35.3672 31.9199 35.9277C32.3027 36.4746 32.6104 37.1104 32.8428 37.835C33.0752 38.5596 33.1914 39.3799 33.1914 40.2959V55ZM13.9551 55H8.62305V23.459H13.9551V55ZM43.7119 59.8398H38.3594V20.7725H43.7119V59.8398ZM71.9102 47.6582C71.9102 48.3965 71.7803 49.1963 71.5205 50.0576C71.2607 50.9053 70.8369 51.6982 70.249 52.4365C69.6748 53.1611 68.916 53.7695 67.9727 54.2617C67.043 54.7539 65.9082 55 64.5684 55H54.9502C54.2119 55 53.4121 54.8701 52.5508 54.6104C51.7031 54.3506 50.9102 53.9336 50.1719 53.3594C49.4473 52.7715 48.8389 52.0127 48.3467 51.083C47.8545 50.1396 47.6084 48.998 47.6084 47.6582C47.6084 46.9199 47.7383 46.1201 47.998 45.2588C48.2578 44.3975 48.6748 43.6045 49.249 42.8799C49.8369 42.1416 50.5957 41.5264 51.5254 41.0342C52.4688 40.542 53.6104 40.2959 54.9502 40.2959H64.5684V45.3818H54.9502C54.2256 45.3818 53.665 45.6074 53.2686 46.0586C52.8721 46.4961 52.6738 47.043 52.6738 47.6992C52.6738 48.3965 52.8994 48.9434 53.3506 49.3398C53.8154 49.7227 54.3623 49.9141 54.9912 49.9141H64.5684C65.293 49.9141 65.8535 49.6953 66.25 49.2578C66.6465 48.8203 66.8447 48.2734 66.8447 47.6172V40.1729C66.8447 39.4756 66.626 38.9219 66.1885 38.5117C65.7646 38.1016 65.2246 37.8965 64.5684 37.8965H52.8584V32.8311H64.5684C65.3066 32.8311 66.0996 32.9609 66.9473 33.2207C67.8086 33.4805 68.6016 33.9043 69.3262 34.4922C70.0645 35.0664 70.6797 35.8252 71.1719 36.7686C71.6641 37.6982 71.9102 38.833 71.9102 40.1729V47.6582Z" fill="#353535"/>
<defs>
<linearGradient id="paint0_linear_194_133" x1="-4.11412e-07" y1="45" x2="80.0012" y2="45.1111" gradientUnits="userSpaceOnUse">
<stop stop-color="#FF006E"/>
<stop offset="0.53125" stop-color="#FB5607"/>
<stop offset="1" stop-color="#FFBE0B"/>
</linearGradient>
</defs>
</svg>
