<svg width="64" height="45" viewBox="0 0 64 45" fill="none" xmlns="http://www.w3.org/2000/svg">
<path d="M1.25417 38.4767C0.542352 37.6055 0.105419 36.5379 0 35.4122C0.00432128 34.5448 0.208047 33.6903 0.595042 32.9165C0.982037 32.1426 1.54167 31.4706 2.22963 30.9536C3.4392 29.9603 5.07798 29.3452 6.57183 29.791C8.06568 30.2369 9.14705 31.7212 10.3176 32.8669C11.4634 34.0252 12.9084 34.8331 14.487 35.1977C15.2759 35.3711 16.0917 35.3774 16.8831 35.2162C17.6745 35.0549 18.4243 34.7297 19.0856 34.2609C19.6072 33.8584 20.0247 33.334 20.3023 32.7324C20.58 32.1309 20.7095 31.4702 20.6798 30.8069C20.5516 29.1138 19.1135 28.3124 17.6921 27.8101C13.2719 26.2355 8.27192 25.7388 4.68779 22.6799C-0.12263 18.5826 -0.680036 10.9974 2.89852 5.91802C5.57407 2.07464 10.4012 0.240426 14.8828 0.0203199C18.9609 -0.171289 22.9887 0.996422 26.3486 3.34448C27.4021 4.08945 28.4445 5.0376 28.673 6.33566C28.9015 7.63372 28.2717 8.86406 27.5582 9.94201C26.4434 11.6351 24.7712 13.2831 22.7868 13.0517C21.0031 12.8485 19.7601 11.2062 18.1659 10.3709C17.3437 9.94728 16.4306 9.73685 15.5083 9.75852C14.5861 9.78019 13.6835 10.0333 12.8817 10.4951C11.5829 11.2909 10.5573 12.9388 11.1481 14.3836C11.611 15.2294 12.3589 15.8784 13.2551 16.2122C15.7913 17.3917 18.5951 17.8207 21.3041 18.5149C24.0131 19.209 26.75 20.2531 28.6507 22.3413C30.6629 24.5988 31.4043 27.748 31.3486 30.8069C31.3589 33.6149 30.5503 36.3635 29.0242 38.7081C27.3564 41.0017 25.0565 42.7452 22.4133 43.7198C19.2521 44.9134 15.8398 45.2595 12.5075 44.7245C9.17528 44.1896 6.03612 42.7917 3.39461 40.6665C2.60266 40.0197 1.88471 39.2853 1.25417 38.4767Z" fill="#2D2D2D"/>
<path d="M54.9339 23.8799C56.9161 23.7873 58.9025 23.8255 60.8795 23.9942C61.5131 24.0156 62.1313 24.1915 62.6781 24.5062C63.4942 25.0507 63.7884 26.0909 63.9161 27.0548C64.0561 28.1953 64.0206 29.35 63.8106 30.4802C63.7397 31.2291 63.3851 31.9247 62.8169 32.4298C62.285 32.7396 61.6756 32.898 61.0571 32.8872C59.0252 33.0333 56.9864 33.0678 54.9505 32.9907C55.045 35.0459 55.0061 37.1049 54.834 39.1553C54.8129 39.7787 54.6335 40.387 54.3121 40.9252C54.0073 41.2803 53.6321 41.571 53.2094 41.7797C52.7867 41.9885 52.3252 42.1109 51.8528 42.1396C50.6613 42.315 49.4478 42.2855 48.2666 42.0524C47.587 41.9732 46.9529 41.6765 46.4624 41.2083C46.0317 40.637 45.7948 39.9474 45.7851 39.237C45.614 37.1666 45.5732 35.0878 45.663 33.0124C43.5812 33.0669 42.1989 33.0451 40.1115 32.9417C39.4794 32.9792 38.8478 32.8612 38.274 32.5986C37.9187 32.3409 37.6207 32.0148 37.3983 31.6403C37.1758 31.2657 37.0337 30.8506 36.9805 30.4203C36.6872 28.9887 36.752 27.5088 37.1692 26.1072C37.5745 24.7349 38.4017 24.2121 39.8562 24.0923C41.7716 23.9181 43.697 23.8744 45.6185 23.9616C45.5297 22.0043 45.5687 20.0434 45.7351 18.091C45.7534 17.4846 45.9231 16.8919 46.2292 16.3647C46.751 15.6078 47.7281 15.3028 48.6496 15.1667C49.869 14.9877 51.1108 15.019 52.3191 15.2592C53.0274 15.3533 53.6847 15.6728 54.19 16.1687C54.6021 16.7803 54.8168 17.4995 54.8062 18.2326C54.9523 20.126 54.9875 22.0261 54.9117 23.9235L54.9339 23.8799Z" fill="#7391E9"/>
</svg>
