<svg width="16" height="16" viewBox="0 0 16 16" fill="none" xmlns="http://www.w3.org/2000/svg">
<path d="M12.328 0H3.19678C1.43125 0 0 1.47506 0 3.29464V12.7054C0 14.5249 1.43125 16 3.19678 16H12.328C14.0935 16 15.5247 14.5249 15.5247 12.7054V3.29464C15.5247 1.47506 14.0935 0 12.328 0Z" fill="#232323"/>
<path d="M8.52269 8.94828V13.8324H6.34421V8.94828H4.53613V6.97098H6.34421V6.24803C6.34421 3.57368 7.42654 2.16748 9.72095 2.16748C10.4237 2.16748 10.5999 2.28308 10.9862 2.37841V4.33716C10.5534 4.25779 10.4325 4.21768 9.98463 4.21768C9.45142 4.21768 9.16932 4.37124 8.91067 4.6775C8.65201 4.98375 8.52269 5.51561 8.52269 6.27348V6.9727H10.9883L10.3262 8.94828H8.52269Z" fill="white"/>
</svg>
