<svg width="67" height="64" viewBox="0 0 67 64" fill="none" xmlns="http://www.w3.org/2000/svg">
<g clip-path="url(#clip0_1342_1188)">
<path d="M-1.47335e-05 48.8176C0.340127 48.3284 0.796691 48.1583 1.39456 48.1662C4.04767 48.1913 6.70079 48.1662 9.35389 48.186C9.82748 48.186 9.94128 48.1122 9.79344 47.6125C9.33949 46.087 9.65346 44.6934 10.7432 43.5397C11.833 42.3861 12.9607 41.2469 14.125 40.1618C15.3744 38.9989 16.8658 38.7484 18.4278 39.3865C20.0199 40.0365 20.869 41.3062 20.992 43.0321C21.0181 43.4092 21.0823 43.5503 21.4983 43.5674C22.519 43.5995 23.4902 44.0185 24.2177 44.7408C24.9453 45.4631 25.3757 46.4354 25.423 47.4635C25.4466 47.9276 25.5826 48.0252 26.0208 48.0436C28.0813 48.1267 29.7781 49.8552 29.8697 51.9569C29.888 52.3761 29.9887 52.5001 30.4165 52.5185C31.4713 52.5623 32.4678 53.0181 33.1949 53.7893C33.9221 54.5606 34.3229 55.5868 34.3125 56.6506C34.3125 57.1081 34.4276 57.4417 34.7691 57.7344C35.1458 58.0627 35.4703 58.453 35.8392 58.7892C36.8112 59.6857 38.0632 59.6712 38.9306 58.7668C39.7979 57.8623 39.76 56.5966 38.8338 55.6539C37.2429 54.0335 35.6377 52.4275 34.0377 50.8164C33.7355 50.5118 33.4857 50.1967 33.6204 49.7194C33.8153 49.0233 34.5113 48.7385 35.1079 49.1366C35.3013 49.2782 35.4805 49.4385 35.6429 49.6152C37.43 51.411 39.2149 53.2081 40.9976 55.0065C42.0075 56.0204 43.3341 56.081 44.2355 55.1673C44.9864 54.4079 45.0518 52.8917 44.0497 51.9278C42.1619 50.1123 40.3474 48.219 38.5002 46.3613C38.283 46.1424 38.0632 45.9235 38.0096 45.6044C37.9753 45.4193 37.9966 45.2281 38.0707 45.0553C38.1448 44.8824 38.2683 44.7358 38.4256 44.6341C38.5728 44.5175 38.7531 44.4514 38.9402 44.4455C39.1274 44.4396 39.3114 44.4941 39.4656 44.6011C39.6971 44.7641 39.9111 44.9511 40.1041 45.1588C42.6133 47.6824 45.1198 50.209 47.6238 52.7387C48.2779 53.3979 49.0263 53.6063 49.8884 53.3452C50.7505 53.0842 51.2202 52.4592 51.3575 51.5877C51.4805 50.8137 51.1796 50.1822 50.6393 49.6403C48.6333 47.6283 46.6335 45.6141 44.6397 43.5977C44.3519 43.309 44.1099 43.0044 44.1687 42.5693C44.276 41.7783 45.1813 41.4302 45.8093 41.976C46.3182 42.419 46.7734 42.924 47.2483 43.4039C48.5723 44.7373 49.8953 46.0699 51.2175 47.4015C52.1948 48.3798 53.5462 48.4378 54.4096 47.5505C55.2979 46.6394 55.2364 45.3381 54.2526 44.3348C53.6718 43.7428 53.0752 43.164 52.5035 42.5654C51.9986 42.038 51.9711 41.4948 52.3989 41.0584C52.8267 40.6219 53.3931 40.6628 53.9007 41.1612C54.5719 41.8204 55.2404 42.4797 55.8801 43.1653C56.5872 43.8964 56.9882 44.8736 57 45.8945C57 46.3547 57.174 46.4364 57.5743 46.4338C60.2065 46.4206 62.8373 46.4259 65.4695 46.4338C66.3656 46.4338 66.817 46.7594 66.8183 47.3949C66.8183 48.0542 66.346 48.4075 65.4302 48.4075C62.5809 48.4075 59.7316 48.4075 56.8822 48.4075C56.4897 48.4075 56.1915 48.484 55.9233 48.811C55.3546 49.4887 54.5672 49.9429 53.6993 50.0939C53.3068 50.1703 53.2205 50.2758 53.2819 50.6832C53.5266 52.3234 52.9536 53.6788 51.644 54.6479C50.3018 55.642 48.8169 55.7171 47.3347 54.9735C46.8637 54.7362 46.6923 54.7098 46.4699 55.2623C45.7569 57.0488 44.0889 57.973 42.0442 57.7555C41.6595 57.7133 41.5052 57.7463 41.39 58.1682C40.5083 61.5316 36.8008 62.5376 34.3439 60.0984C34.2624 60.0255 34.1859 59.9471 34.1149 59.8637C33.7225 59.3363 33.3718 59.1465 32.8577 59.811C32.4875 60.2922 31.8647 60.2223 31.4775 59.811C31.0903 59.3996 31.1099 58.9105 31.4893 58.4477C31.5312 58.3963 31.5809 58.3541 31.6201 58.3053C32.5712 57.2663 32.5934 55.9505 31.6737 55.0843C30.754 54.218 29.4969 54.2932 28.5248 55.261C27.5528 56.2287 26.5808 57.207 25.6192 58.1906C24.7192 59.1135 24.6394 60.3911 25.4125 61.2666C26.2066 62.1671 27.4168 62.2502 28.462 61.4762C29.0364 61.0504 29.6067 61.0609 29.9665 61.5026C30.3263 61.9443 30.2583 62.5323 29.7049 62.9951C28.4385 64.0578 26.9955 64.278 25.4884 63.6781C23.9421 63.0623 23.0682 61.8586 22.9557 60.1683C22.9243 59.6884 22.8379 59.4959 22.3015 59.4787C21.314 59.4397 20.3767 59.0293 19.6744 58.3284C18.9722 57.6275 18.5559 56.687 18.5076 55.6921C18.488 55.2069 18.3886 55.0197 17.8535 55.0025C15.8689 54.9379 14.2559 53.3584 14.0675 51.3411C14.0204 50.8401 13.9367 50.6186 13.3126 50.5052C9.38791 49.788 5.42392 50.3391 1.48482 50.1796C0.893493 50.1545 0.375461 50.0912 -0.0209351 49.6152L-1.47335e-05 48.8176ZM11.5844 46.2808C11.5844 47.3053 12.0018 47.9592 12.7828 48.3522C13.5991 48.7622 14.4403 48.6752 15.0957 48.066C16.2732 46.9664 17.4192 45.8246 18.4972 44.6288C19.32 43.7217 19.1958 42.4164 18.3323 41.6161C17.4689 40.8158 16.1934 40.858 15.3299 41.7084C14.2742 42.75 13.2367 43.8113 12.1901 44.8648C11.7807 45.2893 11.5609 45.7956 11.5844 46.2808ZM16.0325 50.728C16.0168 51.7828 16.4511 52.4552 17.2609 52.8376C18.106 53.2424 18.9498 53.1145 19.6236 52.475C20.7473 51.4097 21.8476 50.3127 22.8942 49.1788C23.0939 48.9743 23.2505 48.7313 23.3546 48.4643C23.4588 48.1972 23.5083 47.9117 23.5002 47.6249C23.4922 47.3381 23.4267 47.0559 23.3077 46.7953C23.1887 46.5346 23.0187 46.3009 22.8078 46.1081C21.9627 45.292 20.6532 45.317 19.7583 46.2044C18.7183 47.2314 17.6965 48.277 16.6682 49.3146C16.2444 49.7418 16.005 50.2389 16.0259 50.728H16.0325ZM22.8104 57.534C23.1048 57.5577 23.6111 57.4021 23.997 57.0237C25.1522 55.8965 26.31 54.7705 27.3984 53.5838C28.1899 52.7242 28.0839 51.4031 27.2676 50.6146C26.4513 49.8262 25.1849 49.7629 24.3646 50.5382C23.2068 51.6286 22.0883 52.7651 20.9998 53.9267C20.3771 54.5859 20.2855 55.4257 20.6544 56.2524C21.0103 57.0514 21.6553 57.4944 22.8039 57.534H22.8104Z" fill="#6C8BE5"/>
<path d="M26.0562 39.6477C26.4273 39.6522 26.7953 39.5791 27.1369 39.433C27.4785 39.2868 27.7863 39.0708 28.0408 38.7986C29.2549 37.568 30.4706 36.3436 31.6882 35.1253C32.3423 34.4661 32.7348 34.4661 33.4203 35.0739C34.4773 36.0073 35.6914 36.5163 37.1095 36.4741C38.2163 36.4411 39.3335 36.5769 40.4285 36.3752C41.4627 36.1819 42.4117 35.6696 43.1444 34.9091C44.2381 33.8095 45.3283 32.7107 46.415 31.6129C46.6675 31.3571 46.9383 31.1316 47.3046 31.1105C47.4803 31.0999 47.6552 31.1405 47.8086 31.2275C47.962 31.3145 48.0872 31.4442 48.1694 31.601C48.2778 31.7688 48.3292 31.9676 48.3158 32.1673C48.3023 32.3671 48.2247 32.5571 48.0948 32.7085C47.8028 33.0626 47.4835 33.3928 47.1398 33.6961C46.8585 33.9466 46.8781 34.1048 47.1398 34.3645C48.3525 35.5604 49.5469 36.7747 50.7427 37.9877C51.1142 38.3648 51.266 38.7986 50.9664 39.2917C50.7218 39.7004 50.3437 39.8191 49.8975 39.7334C49.6071 39.6754 49.4069 39.4697 49.2068 39.2613C48.0843 38.1288 46.9449 37.012 45.8485 35.8557C45.4966 35.4852 45.2939 35.5169 44.9773 35.8755C43.291 37.7926 41.1389 38.5705 38.631 38.5125C37.0441 38.4742 35.4494 38.552 33.9724 37.8044C33.8952 37.7649 33.814 37.7346 33.7342 37.7003C33.3418 37.5302 32.9846 37.0305 32.6105 37.1386C32.2363 37.2467 31.925 37.7135 31.6018 38.0352C30.8902 38.7432 30.1955 39.4697 29.4759 40.1711C28.0578 41.5502 26.3898 42.0446 24.5046 41.388C22.6195 40.7314 21.5663 39.3233 21.3335 37.3469C21.1699 35.9744 21.62 34.7482 22.5331 33.7185C22.9805 33.2122 23.4685 32.7389 23.9552 32.2682C24.4418 31.7975 25.0018 31.7896 25.406 32.193C25.8102 32.5965 25.7985 33.1779 25.3589 33.6605C24.9194 34.143 24.4562 34.5504 24.031 35.0185C23.2291 35.9006 23.08 36.9382 23.5261 38.0114C23.9905 39.0992 24.8775 39.6279 26.0562 39.6477Z" fill="#6C8BE5"/>
<path d="M59.0958 29.3676C56.9633 29.3676 54.8322 29.3518 52.7011 29.3795C52.4429 29.3922 52.1852 29.346 51.9471 29.2444C51.7091 29.1429 51.4968 28.9885 51.3262 28.7928C50.4261 27.8408 49.4868 26.9271 48.5658 25.9963C48.1754 25.5819 47.7043 25.2532 47.182 25.0309C46.6598 24.8086 46.0976 24.6973 45.5307 24.7042C42.356 24.7095 39.1805 24.7095 36.004 24.7042C35.4372 24.6967 34.8749 24.8075 34.3525 25.0296C33.8302 25.2518 33.3591 25.5804 32.9689 25.995C31.5883 27.3952 30.2042 28.7901 28.8166 30.1798C28.6829 30.3242 28.5419 30.4615 28.394 30.5912C27.8995 30.9946 27.3867 30.9867 26.9929 30.578C26.6214 30.1917 26.6174 29.6063 27.0426 29.1606C27.8276 28.3379 28.6361 27.5428 29.4354 26.7359C30.1732 25.9923 30.9045 25.2408 31.6594 24.5064C32.2376 23.9231 32.9251 23.4614 33.682 23.1484C34.4389 22.8353 35.25 22.6771 36.0682 22.683C39.2001 22.6636 42.332 22.6636 45.4639 22.683C47.2418 22.6948 48.7633 23.3646 50.0205 24.6356C50.774 25.3964 51.5446 26.14 52.2759 26.9205C52.4166 27.0825 52.5918 27.2102 52.7885 27.294C52.9852 27.3778 53.1982 27.4156 53.4115 27.4044C57.3702 27.3846 61.3289 27.3939 65.2877 27.3939C65.4617 27.3939 65.637 27.3846 65.811 27.3939C66.4415 27.4413 66.8576 27.8764 66.8275 28.4486C66.8 28.9826 66.3827 29.3584 65.7586 29.361C63.9533 29.3716 62.1479 29.361 60.3425 29.361L59.0958 29.3676Z" fill="#6C8BE5"/>
<path d="M40.0596 11.0055C40.0596 11.517 39.8345 11.9284 39.5245 12.3107C39.0431 12.9027 38.5682 13.4974 38.0737 14.0828C37.9609 14.2004 37.8849 14.3488 37.8551 14.5096C37.8253 14.6704 37.8431 14.8365 37.9062 14.9872C38.143 15.6676 38.3654 16.3545 38.5682 17.0454C38.7435 17.6426 38.7369 18.2188 38.2202 18.6724C37.7034 19.1259 37.1867 19.1417 36.5901 18.8609C35.7058 18.4456 34.8005 18.0698 33.9148 17.6611C33.7611 17.5835 33.5911 17.5443 33.4191 17.5468C33.2472 17.5493 33.0785 17.5935 32.9271 17.6756C32.0636 18.0856 31.1792 18.4522 30.3106 18.8622C29.6944 19.1523 29.1266 19.1259 28.623 18.6552C28.1193 18.1845 28.0892 17.6334 28.3103 17.0256C28.3455 16.8768 28.3933 16.7312 28.4529 16.5905C29.3359 15.0703 28.9343 13.8362 27.6993 12.7089C27.159 12.2145 26.6946 11.608 26.8608 10.7536C27.0217 9.92825 27.5921 9.38901 28.4215 9.3455C28.789 9.30792 29.1594 9.30792 29.5269 9.3455C30.2857 9.46152 30.7357 9.14773 31.0563 8.47135C31.314 7.96704 31.6078 7.48232 31.9354 7.02103C32.7387 5.81331 34.1437 5.81199 34.9326 7.02103C35.3395 7.64071 35.7345 8.27094 36.0995 8.917C36.1695 9.06386 36.2837 9.18472 36.4258 9.26237C36.5679 9.34002 36.7307 9.37049 36.891 9.34944C37.4143 9.32571 37.9376 9.32967 38.4544 9.34944C38.8808 9.36782 39.2842 9.54934 39.5824 9.85702C39.8807 10.1647 40.0513 10.5754 40.0596 11.0055ZM30.6795 16.4666C31.1348 16.3835 31.5364 16.1594 31.9393 15.951C32.9388 15.4342 33.9148 15.3999 34.926 15.9405C35.329 16.1554 35.745 16.3967 36.2984 16.4679C36.241 16.1951 36.1632 15.9271 36.0655 15.6662C35.5226 14.5179 35.8039 13.5725 36.6621 12.6931C37.0428 12.2975 37.43 11.8849 37.693 11.3047C37.4751 11.2923 37.2567 11.2923 37.0388 11.3047C35.7515 11.4696 34.8698 10.9448 34.3151 9.76608C34.0901 9.29012 33.7604 8.86293 33.449 8.36587C32.8852 9.2176 32.4286 10.014 31.8661 10.7273C31.195 11.5803 30.1444 11.1953 29.141 11.3667C29.6761 12.0259 30.1405 12.6232 30.6206 13.2007C31.0798 13.7518 31.1753 14.3583 30.9987 15.0466C30.881 15.508 30.6337 15.9378 30.6429 16.4336L30.5971 16.5154L30.6795 16.4666Z" fill="#6C8BE5"/>
<path d="M6.9925 27.878C8.88291 27.878 10.7733 27.8701 12.6637 27.878C12.8467 27.8873 13.0296 27.858 13.2007 27.7922C13.3719 27.7264 13.5276 27.6254 13.658 27.4957C14.0675 27.1001 14.5201 26.7587 14.9335 26.371C16.3726 25.0183 18.0602 24.4118 20.0356 24.4685C22.2296 24.5331 24.4248 24.4803 26.62 24.4856C27.3919 24.4856 27.8144 24.8495 27.8131 25.4771C27.8118 26.1047 27.4324 26.4528 26.692 26.4554C24.3882 26.4554 22.0843 26.4765 19.7818 26.4554C18.4527 26.4409 17.3171 26.8509 16.3477 27.7739C15.8898 28.2076 15.3469 28.5571 14.9218 29.0198C14.2676 29.7279 13.4918 29.8755 12.5669 29.8663C8.85152 29.8294 5.13482 29.8478 1.41812 29.8531C0.830717 29.8531 0.312647 29.7437 0.134727 29.095C-0.0523515 28.412 0.404224 27.8833 1.18132 27.8794C3.12405 27.8714 5.05762 27.8794 6.9925 27.878Z" fill="#6C8BE5"/>
<path d="M24.7153 3.68495C24.8346 3.67085 24.9557 3.68275 25.0701 3.71983C25.1845 3.7569 25.2897 3.81829 25.3786 3.89986C25.7491 4.23573 26.1011 4.59181 26.433 4.9665C26.6023 5.15588 26.6914 5.40445 26.6814 5.65915C26.6714 5.91385 26.563 6.15454 26.3793 6.32981C26.1962 6.50549 25.9526 6.6027 25.6998 6.60098C25.447 6.59925 25.2048 6.49873 25.024 6.32057C24.6512 5.98697 24.3015 5.62794 23.9774 5.24602C23.8497 5.10808 23.7705 4.93156 23.7523 4.74375C23.7341 4.55594 23.7778 4.36731 23.8767 4.20706C24.0599 3.88667 24.3215 3.67176 24.7153 3.68495Z" fill="#6C8BE5"/>
<path d="M32.4836 1.60854C32.4836 1.38968 32.4731 1.17081 32.4836 0.949305C32.5123 0.387635 32.8015 0.0553769 33.364 0.00659336C33.9265 -0.0421902 34.2994 0.25974 34.3949 0.797677C34.5057 1.37806 34.5026 1.97471 34.3857 2.55389C34.2719 3.08128 33.8925 3.37134 33.3313 3.30674C32.808 3.24609 32.5189 2.92701 32.4862 2.39567C32.4705 2.1267 32.4836 1.86433 32.4836 1.60854Z" fill="#6C8BE5"/>
<path d="M43.0908 4.74009C43.091 4.84993 43.0686 4.95863 43.0252 5.05936C42.9817 5.1601 42.9181 5.25069 42.8383 5.32549C42.5021 5.66565 42.1842 6.02033 41.8231 6.33808C41.4097 6.70989 40.9531 6.71121 40.5358 6.33808C40.1185 5.96495 40.0596 5.48107 40.3945 5.05125C40.7514 4.61297 41.1496 4.2107 41.5837 3.85012C41.8885 3.58643 42.2706 3.61544 42.6212 3.80266C42.9718 3.98988 43.0973 4.29577 43.0908 4.74009Z" fill="#6C8BE5"/>
<path d="M30.6795 16.4662L30.6036 16.5163L30.6494 16.4346L30.6795 16.4662Z" fill="#FCFDFE"/>
</g>
<defs>
<clipPath id="clip0_1342_1188">
<rect width="66.8235" height="64" fill="white"/>
</clipPath>
</defs>
</svg>
