<svg width="16" height="16" viewBox="0 0 16 16" fill="none" xmlns="http://www.w3.org/2000/svg">
<path d="M13.4201 0H2.57989C1.15505 0 0 1.15505 0 2.57989V13.4201C0 14.8449 1.15505 16 2.57989 16H13.4201C14.8449 16 16 14.8449 16 13.4201V2.57989C16 1.15505 14.8449 0 13.4201 0Z" fill="#232323"/>
<path d="M8.00004 9L7.78651 9.27732C7.91237 9.37423 8.08772 9.37423 8.21358 9.27732L8.00004 9ZM3.24106 5.77732L7.78651 9.27732L8.21358 8.72268L3.66812 5.22268L3.24106 5.77732ZM8.21358 9.27732L12.759 5.77732L12.332 5.22268L7.78651 8.72268L8.21358 9.27732Z" fill="white"/>
<rect x="3.35" y="4.35" width="9.3" height="7.3" rx="0.65" stroke="white" stroke-width="0.7"/>
</svg>
