<svg width="48" height="64" viewBox="0 0 48 64" fill="none" xmlns="http://www.w3.org/2000/svg">
<g clip-path="url(#clip0_998_1239)">
<path d="M42.3487 30.0014C40.1191 26.831 37.2808 24.1482 34.0035 22.1135C33.4872 21.8098 33.4422 21.372 33.7797 20.9165C35.7385 18.0557 34.6035 14.2105 31.4046 12.9287C31.1546 12.8212 30.9046 12.6832 30.8134 12.4112C30.7221 12.1392 30.8521 11.8633 30.9821 11.6356C32.4622 9.06576 33.9235 6.47064 35.3635 3.91727C35.9885 2.83038 35.586 1.79537 34.386 1.46007C32.6434 0.967866 30.4021 0.447826 28.2683 0.255501C27.695 0.234276 27.1258 0.149414 26.5708 0.00244141H21.4206C21.2844 0.0979567 21.1196 0.142674 20.9544 0.128971C18.5128 0.326414 16.0959 0.763736 13.7379 1.43476C12.3804 1.81435 11.9954 2.79748 12.7041 4.03241C14.1442 6.563 15.5605 9.0936 17.023 11.6419C17.398 12.2277 17.2393 12.6959 16.603 12.9338C13.7617 14.0447 12.4104 17.461 13.7954 20.2092C13.8667 20.3379 13.9505 20.4592 14.0454 20.5711C14.2854 20.8786 14.5867 21.2607 14.3992 21.696C14.2354 22.0756 13.8342 22.2805 13.4792 22.4627C5.07645 27.4784 -0.923711 39.6505 0.116316 49.454C0.850086 60.0231 10.2416 63.266 18.7956 63.8C19.3071 63.8011 19.8163 63.8691 20.3106 64.0024H27.5683C28.0983 63.8392 28.6296 63.8215 29.1433 63.8025C32.1884 63.5874 35.581 63.1193 39.1848 61.6199C52.0364 56.4853 48.7863 39.028 42.3487 30.0014ZM16.468 4.54233C16.4182 4.44264 16.3961 4.33109 16.4042 4.21968L16.3792 3.88817C21.5344 2.72283 26.6608 2.7494 31.8872 3.94005C30.5034 6.39472 29.0708 8.92025 27.697 11.3559C27.6198 11.5284 27.4864 11.6689 27.3192 11.7539C27.152 11.8389 26.9611 11.8632 26.7783 11.8228C24.8752 11.5706 22.9475 11.5753 21.0456 11.8368C20.8983 11.8411 20.7528 11.8022 20.6269 11.7248C20.5009 11.6473 20.3997 11.5346 20.3356 11.4002C19.0497 9.11258 17.7605 6.82661 16.468 4.54233ZM17.7793 15.7073C19.4461 15.1249 21.1858 14.7842 22.9469 14.6951C25.3659 14.5593 27.7886 14.8855 30.0884 15.6567C32.8384 16.5525 31.9159 20.6432 29.0746 19.9448C25.805 18.9907 22.3376 18.9767 19.0606 19.9043C16.2067 20.7584 15.1392 16.6892 17.7793 15.7073ZM44.7625 50.2499C43.4237 59.9927 32.0984 60.9682 24.5757 60.9834C15.8117 60.9834 4.10892 60.185 3.14765 49.5047C2.53388 42.271 4.86019 35.8863 9.41656 30.1089C11.8816 26.9862 14.7917 24.7441 18.0743 23.4471C33.0722 17.3332 46.9213 35.966 44.7625 50.2474V50.2499Z" fill="#9ECAEA"/>
<path d="M24.0344 40.0973C22.0944 40.1112 20.9868 37.7135 22.3594 36.285C23.5132 35.0057 25.1607 35.5599 26.2945 36.6392C27.8445 37.9805 29.7708 35.8535 28.3095 34.4073C27.683 33.7698 26.932 33.2716 26.1045 32.9446C25.6782 32.7788 25.4795 32.4865 25.4982 32.0234C25.517 31.3554 25.517 30.7645 25.4982 30.2141C25.3857 28.2402 22.6331 28.2174 22.5069 30.2052C22.4931 30.5848 22.5069 30.972 22.4981 31.3528C22.6406 32.1943 22.3619 32.7447 21.5256 33.1736C19.4068 34.2643 18.348 36.6241 18.8918 39.0458C19.4043 41.3234 21.4919 43.0416 23.8557 43.1302C24.9657 43.172 25.7632 43.7034 26.1057 44.6283C26.8032 46.6591 24.7307 48.4242 22.7969 47.3715C22.2044 47.0741 21.7644 46.6224 21.3394 46.1846C21.0193 45.805 20.5618 45.552 20.1256 45.5684C18.8755 45.5862 18.153 47.1172 19.0268 48.099C19.5451 48.695 20.1275 49.2306 20.7631 49.6958C21.3181 50.0754 22.1794 50.0565 22.4481 50.8878C22.6581 51.5546 22.5006 52.2695 22.5094 52.9426C22.5756 55.0278 25.4582 55.0329 25.5095 52.9173C25.5182 52.4112 25.5382 51.8785 25.5095 51.3698C25.4707 50.8068 25.6857 50.4588 26.2282 50.2095C31.2434 47.7739 29.6358 40.2238 24.0344 40.0973Z" fill="#9ECAEA"/>
</g>
<defs>
<clipPath id="clip0_998_1239">
<rect width="48" height="64" fill="white"/>
</clipPath>
</defs>
</svg>
