<svg width="64" height="64" viewBox="0 0 64 64" fill="none" xmlns="http://www.w3.org/2000/svg">
<g clip-path="url(#clip0_998_1242)">
<path d="M63.5884 4.18696C62.6868 0.167938 58.313 -0.181819 54.9038 0.0568225C50.4593 0.36996 45.939 0.993709 41.6801 2.32959C33.4173 4.91803 26.0662 10.0545 20.5938 16.7428C20.4514 16.9315 20.2692 17.0867 20.0602 17.1973C19.8512 17.3079 19.6204 17.3713 19.3842 17.3829C16.1329 17.6165 12.8816 17.8817 10.4118 18.0862C8.98502 18.2036 7.88651 18.8223 7.13776 19.9246C4.86499 23.2833 2.63641 26.7 0.431825 30.0511C0.269101 30.3317 0.126075 30.6232 0.00378418 30.9236V32.1774C0.0903396 32.2882 0.149208 32.4181 0.175503 32.5562C0.592178 33.738 1.43816 34.4274 2.65914 34.6219C4.79176 34.9653 7.3158 35.3656 9.8714 35.7368C10.1618 35.7785 10.4888 35.8467 10.6858 36.1156C10.8828 36.3846 10.8512 36.7166 10.8121 36.949C10.6025 38.2419 10.9573 39.4351 11.8677 40.497C13.4838 42.2407 15.2276 43.8683 16.8905 45.5678C18.8817 47.5578 20.9411 49.6159 22.9613 51.6462C24.2479 52.9392 25.647 53.4379 27.2354 53.1614C27.8768 53.0351 28.195 53.4404 28.2379 53.9922C28.5953 56.342 28.9753 58.664 29.3162 61.0302C29.5334 62.5454 30.2695 63.4545 31.6332 63.8901C31.698 63.9111 31.758 63.9446 31.81 63.9886H32.9691C34.2658 63.4747 35.4312 62.6616 36.5588 61.8737C38.1788 60.7373 39.9351 59.683 41.5589 58.5668C43.713 57.087 45.7256 56.294 45.9453 53.3899C46.165 50.4858 46.4125 47.6373 46.6171 44.7281C46.6575 44.1473 46.8784 43.7256 47.3582 43.3165C54.9544 36.8328 60.4519 28.5233 62.6174 18.7062C63.5012 14.6796 63.8422 10.5848 63.827 6.46857C63.8298 5.70166 63.7498 4.93669 63.5884 4.18696ZM11.9333 32.1155C11.8411 32.4817 11.6088 32.983 10.9383 32.8605C8.34486 32.4426 5.64532 32.0335 2.99628 31.6218C5.10995 28.421 7.2956 25.1154 9.39034 21.9461C9.73504 21.4183 10.1568 21.1406 10.6782 21.0989C12.7528 20.9297 14.9372 20.7555 17.0193 20.5938L17.095 20.9082C17.1289 21.0584 17.1251 21.2145 17.0839 21.3628C17.0427 21.5111 16.9654 21.6469 16.8589 21.758C14.7363 24.9607 13.078 28.4478 11.9333 32.1155ZM26.7063 50.2081C26.1861 50.2939 25.7151 50.1146 25.2947 49.703C21.6229 46.0337 17.9528 42.3636 14.2844 38.6927C13.8879 38.2962 13.7149 37.8518 13.7793 37.4073C14.1097 35.2804 14.6676 33.1952 15.4435 31.1875L32.8112 48.5565C30.837 49.3082 28.7927 49.8614 26.7089 50.2081H26.7063ZM43.295 48.4164C43.1814 49.9997 43.0593 51.5818 42.9289 53.1627C42.9143 53.4518 42.8299 53.7332 42.6828 53.9826C42.5357 54.2319 42.3302 54.4419 42.0842 54.5945C39.1077 56.5583 36.1337 58.5247 33.1623 60.4936C32.94 60.6199 32.5878 60.7663 32.358 60.885C31.9981 58.558 31.6206 56.1918 31.2796 53.9026C31.0713 52.5061 31.19 52.3167 32.5524 51.8634C35.8078 50.7667 38.9174 49.2776 41.8127 47.429C42.0753 47.2635 42.3493 47.0956 42.6246 46.9315C42.7239 46.8757 42.8399 46.8574 42.9516 46.8797C43.0943 46.8923 43.2837 46.9012 43.4074 46.9075L43.295 48.4164ZM60.3863 13.7654C58.8345 28.2506 49.6323 40.0361 36.7255 46.8633C36.2116 47.1297 35.8126 47.0805 35.3782 46.6423C29.3516 40.5968 23.2757 34.5209 17.3223 28.5776C17.1215 28.3819 16.7491 28.0157 17.0774 27.397C24.205 14.0129 36.0512 4.75262 51.6109 3.47229C53.0945 3.3334 54.5579 3.2627 56.0301 3.15411V3.26648C56.9405 3.26648 57.8471 3.23997 58.7676 3.27658C60.1388 3.32961 60.6502 3.83468 60.7209 5.20592C60.8628 8.06295 60.7508 10.9269 60.3863 13.7642V13.7654Z" fill="#9ECAEA"/>
<path d="M14.7743 50.0363C14.6857 49.8064 14.5396 49.6031 14.3499 49.4459C14.1602 49.2887 13.9333 49.1829 13.6909 49.1386C13.1202 49.0313 12.6328 49.2156 12.1114 49.7396C8.84109 53.0225 5.32839 56.5352 1.05557 60.7966C0.633849 61.2184 0.261369 61.6072 0 62.0782V62.8106C0.0904173 63.0906 0.246286 63.345 0.454675 63.5527C0.663063 63.7604 0.917966 63.9155 1.19825 64.005H1.92177C2.40031 63.7373 2.79173 63.3636 3.24755 62.9065C6.85537 59.292 10.4653 55.68 14.0773 52.0705C14.2624 51.8989 14.4338 51.7132 14.5899 51.5149C14.7437 51.3044 14.8412 51.0581 14.8735 50.7995C14.9057 50.5408 14.8716 50.2782 14.7743 50.0363Z" fill="#9ECAEA"/>
<path d="M1.27275 52.6235C2.22858 52.8192 2.9243 51.8785 3.57583 51.2472C4.1718 50.6475 4.77282 50.0502 5.37258 49.453C6.46856 48.3595 7.60242 47.2307 8.70598 46.1082C9.58983 45.2471 9.31204 43.8051 8.09106 43.4983C7.52286 43.3493 7.02412 43.5147 6.52285 44.0185C4.52407 46.0261 2.84349 47.7105 1.1326 49.4063C0.699512 49.8368 0.248746 50.28 -0.00378418 50.8381V51.3924C0.035225 51.4452 0.0686431 51.5019 0.0959547 51.5616C0.363637 52.1525 0.78032 52.5301 1.27275 52.6235Z" fill="#9ECAEA"/>
<path d="M18.0281 55.169C15.5887 57.568 13.5975 59.5555 11.7603 61.4419C11.0267 62.1603 11.3184 63.3763 12.2263 63.8119C12.3788 63.8467 12.5233 63.9106 12.6518 64H13.023C13.3058 63.8586 13.6758 63.779 13.8841 63.5707C14.5752 62.8771 15.2676 62.1847 15.9612 61.4936C17.34 60.1199 18.7643 58.6994 20.1481 57.2877C21.4499 55.866 19.4448 53.8836 18.0281 55.169Z" fill="#9ECAEA"/>
<path d="M43.8494 11.071C35.8328 11.0495 31.7532 20.9323 37.4263 26.5713C40.79 30.0726 46.905 30.0739 50.275 26.5612C55.9784 20.9146 51.871 11.0495 43.8494 11.071ZM48.078 24.474C45.8128 26.7708 41.7357 26.7468 39.5248 24.3844C38.9706 23.8179 38.5335 23.1478 38.2386 22.4122C37.9437 21.6766 37.7968 20.8901 37.8064 20.0977C37.8404 14.7188 44.4403 12.0773 48.174 15.9309C50.5213 18.2226 50.4417 22.2581 48.078 24.474Z" fill="#9ECAEA"/>
</g>
<defs>
<clipPath id="clip0_998_1242">
<rect width="63.8258" height="64" fill="white"/>
</clipPath>
</defs>
</svg>
