<svg width="127" height="35" viewBox="0 0 127 35" fill="none" xmlns="http://www.w3.org/2000/svg">
<path d="M0.96 21.35C2.01 22.2367 3.22333 22.9833 4.6 23.59C6 24.1733 7.41167 24.465 8.835 24.465C9.34833 24.465 9.885 24.4067 10.445 24.29C11.005 24.15 11.5067 23.9517 11.95 23.695C12.4167 23.415 12.79 23.065 13.07 22.645C13.3733 22.2017 13.525 21.6767 13.525 21.07C13.525 20.2067 13.21 19.53 12.58 19.04C11.9733 18.5267 11.1917 18.13 10.235 17.85C9.27833 17.57 8.22833 17.29 7.085 17.01C5.965 16.7067 4.93833 16.3217 4.005 15.855C3.07167 15.3883 2.29 14.7117 1.66 13.825C1.05333 12.915 0.75 11.7483 0.75 10.325C0.75 9.15833 0.983333 8.12 1.45 7.21C1.91667 6.3 2.54667 5.54167 3.34 4.935C4.13333 4.305 5.04333 3.83833 6.07 3.535C7.09667 3.20833 8.17 3.045 9.29 3.045C10.69 3.045 12.0083 3.23166 13.245 3.605C14.505 3.955 15.7067 4.46833 16.85 5.145V9.835C15.8 8.995 14.6333 8.30667 13.35 7.77C12.0667 7.23333 10.7367 6.965 9.36 6.965C8.89333 6.965 8.40333 7.02333 7.89 7.14C7.37667 7.25667 6.89833 7.44333 6.455 7.7C6.035 7.95667 5.685 8.28333 5.405 8.68C5.125 9.05333 4.985 9.49667 4.985 10.01C4.985 10.8267 5.28833 11.4917 5.895 12.005C6.525 12.5183 7.31833 12.9267 8.275 13.23C9.255 13.51 10.2933 13.8017 11.39 14.105C12.51 14.4083 13.5483 14.805 14.505 15.295C15.4617 15.785 16.2433 16.485 16.85 17.395C17.48 18.2817 17.795 19.425 17.795 20.825C17.795 22.0617 17.5383 23.1583 17.025 24.115C16.535 25.0483 15.87 25.8417 15.03 26.495C14.2133 27.125 13.2683 27.6033 12.195 27.93C11.1217 28.2567 10.025 28.42 8.905 28.42C7.505 28.42 6.11667 28.245 4.74 27.895C3.36333 27.5217 2.10333 26.9733 0.96 26.25V21.35ZM36.7628 26.6C35.8761 27.16 34.8728 27.6033 33.7528 27.93C32.6328 28.2567 31.4311 28.42 30.1478 28.42C28.7245 28.42 27.4411 28.1983 26.2978 27.755C25.1778 27.2883 24.2095 26.6583 23.3928 25.865C22.5995 25.0483 21.9811 24.0917 21.5378 22.995C21.1178 21.8983 20.9078 20.6967 20.9078 19.39C20.9078 18.1067 21.1178 16.9167 21.5378 15.82C21.9578 14.7233 22.5528 13.7783 23.3228 12.985C24.0928 12.1917 25.0028 11.5733 26.0528 11.13C27.1028 10.6633 28.2578 10.43 29.5178 10.43C30.7778 10.43 31.9095 10.6517 32.9128 11.095C33.9161 11.5383 34.7795 12.1567 35.5028 12.95C36.2261 13.7433 36.7745 14.6883 37.1478 15.785C37.5445 16.8583 37.7428 18.025 37.7428 19.285C37.7428 19.565 37.7311 19.81 37.7078 20.02C37.7078 20.2067 37.6845 20.4283 37.6378 20.685H24.9328C25.0961 21.875 25.6445 22.89 26.5778 23.73C27.5345 24.5467 28.8178 24.955 30.4278 24.955C32.5978 24.955 34.7095 24.185 36.7628 22.645V26.6ZM33.7878 17.675C33.6711 16.5083 33.2161 15.5633 32.4228 14.84C31.6528 14.0933 30.6611 13.72 29.4478 13.72C28.8411 13.72 28.2695 13.8367 27.7328 14.07C27.2195 14.28 26.7645 14.5717 26.3678 14.945C25.9711 15.3183 25.6445 15.7383 25.3878 16.205C25.1545 16.6717 25.0028 17.1617 24.9328 17.675H33.7878ZM45.5019 3.5V28H41.4419V3.5H45.5019ZM55.3987 10.85H60.0187V14.28H55.3987V28H51.3387V14.28H48.7837V10.85H51.3387V9.835C51.3387 8.69167 51.4903 7.68833 51.7937 6.825C52.1203 5.96167 52.5753 5.23833 53.1587 4.655C53.742 4.07167 54.4303 3.62833 55.2237 3.325C56.017 3.02166 56.9037 2.87 57.8837 2.87C58.467 2.87 58.9687 2.91666 59.3887 3.01C59.832 3.10333 60.2053 3.22 60.5087 3.36V6.93C60.252 6.79 59.9487 6.67333 59.5987 6.58C59.272 6.48666 58.8987 6.44 58.4787 6.44C57.592 6.44 56.857 6.69666 56.2737 7.21C55.6903 7.72333 55.3987 8.58667 55.3987 9.8V10.85Z" fill="#6A8AE8"/>
<path d="M67.7635 9.555V31.01C67.7635 32.0367 68.0552 32.725 68.6385 33.075C69.2218 33.425 70.0268 33.6 71.0535 33.6V34.335C70.5168 34.3117 69.7702 34.2767 68.8135 34.23C67.8568 34.2067 66.8302 34.195 65.7335 34.195C64.9635 34.195 64.2052 34.2067 63.4585 34.23C62.7118 34.2767 62.1402 34.3117 61.7435 34.335V33.6C62.5602 33.6 63.1318 33.4367 63.4585 33.11C63.8085 32.8067 63.9835 32.2233 63.9835 31.36V13.755C63.9835 12.705 63.8085 11.935 63.4585 11.445C63.1085 10.9317 62.4435 10.675 61.4635 10.675V9.94C62.2102 10.01 62.9335 10.045 63.6335 10.045C64.4035 10.045 65.1385 10.01 65.8385 9.94C66.5385 9.84667 67.1802 9.71833 67.7635 9.555ZM73.3285 9.45C75.1485 9.45 76.6652 10.185 77.8785 11.655C79.1152 13.125 79.7335 15.295 79.7335 18.165C79.7335 20.0317 79.4419 21.7583 78.8585 23.345C78.2752 24.9083 77.3885 26.1567 76.1985 27.09C75.0318 28.0233 73.5268 28.49 71.6835 28.49C70.6568 28.49 69.7468 28.2683 68.9535 27.825C68.1835 27.3817 67.6352 26.8217 67.3085 26.145L67.6585 25.655C67.9618 26.2383 68.3818 26.7167 68.9185 27.09C69.4785 27.4633 70.1668 27.65 70.9835 27.65C72.1968 27.65 73.1418 27.265 73.8185 26.495C74.5185 25.7017 75.0085 24.64 75.2885 23.31C75.5685 21.9567 75.7085 20.4283 75.7085 18.725C75.7085 16.8117 75.5685 15.2717 75.2885 14.105C75.0085 12.915 74.5885 12.0517 74.0285 11.515C73.4685 10.955 72.7918 10.675 71.9985 10.675C70.9485 10.675 69.9918 11.095 69.1285 11.935C68.2885 12.775 67.7752 14.035 67.5885 15.715L67.2385 14.98C67.5418 13.23 68.2418 11.8767 69.3385 10.92C70.4585 9.94 71.7885 9.45 73.3285 9.45ZM88.3055 0.559999V24.745C88.3055 25.725 88.4922 26.39 88.8655 26.74C89.2622 27.09 89.9155 27.265 90.8255 27.265V28C90.4288 27.9767 89.8105 27.9533 88.9705 27.93C88.1305 27.8833 87.2905 27.86 86.4505 27.86C85.6105 27.86 84.7588 27.8833 83.8955 27.93C83.0555 27.9533 82.4255 27.9767 82.0055 28V27.265C82.9155 27.265 83.5572 27.09 83.9305 26.74C84.3272 26.39 84.5255 25.725 84.5255 24.745V4.76C84.5255 3.71 84.3505 2.94 84.0005 2.45C83.6505 1.93667 82.9855 1.68 82.0055 1.68V0.944998C82.7522 1.015 83.4755 1.05 84.1755 1.05C84.9455 1.05 85.6805 1.015 86.3805 0.944998C87.0805 0.851666 87.7222 0.723333 88.3055 0.559999ZM108.919 9.555V24.22C108.919 25.27 109.094 26.0517 109.444 26.565C109.817 27.055 110.482 27.3 111.439 27.3V28.035C110.715 27.965 109.992 27.93 109.269 27.93C108.499 27.93 107.764 27.965 107.064 28.035C106.364 28.105 105.722 28.2333 105.139 28.42V24.605C104.555 26.005 103.739 27.0083 102.689 27.615C101.662 28.1983 100.577 28.49 99.4336 28.49C98.5703 28.49 97.8353 28.3617 97.2286 28.105C96.6219 27.8717 96.1203 27.5567 95.7236 27.16C95.3036 26.6933 95.0119 26.0983 94.8486 25.375C94.6853 24.6283 94.6036 23.695 94.6036 22.575V13.755C94.6036 12.705 94.4286 11.935 94.0786 11.445C93.7286 10.9317 93.0636 10.675 92.0836 10.675V9.94C92.8303 10.01 93.5536 10.045 94.2536 10.045C95.0236 10.045 95.7586 10.01 96.4586 9.94C97.1586 9.84667 97.8003 9.71833 98.3836 9.555V23.555C98.3836 24.2317 98.4303 24.85 98.5236 25.41C98.6169 25.97 98.8386 26.4133 99.1886 26.74C99.5386 27.0667 100.099 27.23 100.869 27.23C102.082 27.23 103.097 26.6933 103.914 25.62C104.73 24.5467 105.139 23.2283 105.139 21.665V13.755C105.139 12.705 104.964 11.935 104.614 11.445C104.264 10.9317 103.599 10.675 102.619 10.675V9.94C103.365 10.01 104.089 10.045 104.789 10.045C105.559 10.045 106.294 10.01 106.994 9.94C107.694 9.84667 108.335 9.71833 108.919 9.555ZM119.624 9.45C120.557 9.45 121.362 9.60167 122.039 9.905C122.739 10.185 123.241 10.4417 123.544 10.675C124.314 11.2817 124.792 10.885 124.979 9.485H125.749C125.702 10.1383 125.667 10.9317 125.644 11.865C125.621 12.775 125.609 13.9883 125.609 15.505H124.839C124.699 14.6417 124.454 13.8017 124.104 12.985C123.777 12.1683 123.287 11.4917 122.634 10.955C122.004 10.4183 121.176 10.15 120.149 10.15C119.379 10.15 118.737 10.3717 118.224 10.815C117.711 11.235 117.454 11.865 117.454 12.705C117.454 13.405 117.664 14.0117 118.084 14.525C118.504 15.0383 119.041 15.5167 119.694 15.96C120.371 16.4033 121.094 16.8817 121.864 17.395C123.147 18.2583 124.232 19.1333 125.119 20.02C126.006 20.9067 126.449 22.0617 126.449 23.485C126.449 24.5583 126.157 25.4683 125.574 26.215C125.014 26.9617 124.267 27.5333 123.334 27.93C122.401 28.3033 121.374 28.49 120.254 28.49C119.694 28.49 119.169 28.4317 118.679 28.315C118.189 28.2217 117.734 28.0933 117.314 27.93C117.057 27.79 116.801 27.65 116.544 27.51C116.311 27.3467 116.077 27.195 115.844 27.055C115.611 26.8917 115.401 26.915 115.214 27.125C115.027 27.335 114.887 27.7083 114.794 28.245H114.024C114.071 27.4983 114.106 26.5883 114.129 25.515C114.152 24.4417 114.164 23.0183 114.164 21.245H114.934C115.097 22.5283 115.342 23.66 115.669 24.64C115.996 25.62 116.474 26.39 117.104 26.95C117.757 27.4867 118.644 27.755 119.764 27.755C120.417 27.755 121.059 27.5333 121.689 27.09C122.319 26.6233 122.634 25.83 122.634 24.71C122.634 23.6833 122.272 22.8433 121.549 22.19C120.849 21.5133 119.939 20.8017 118.819 20.055C118.026 19.495 117.267 18.9467 116.544 18.41C115.844 17.85 115.272 17.2317 114.829 16.555C114.386 15.855 114.164 15.0267 114.164 14.07C114.164 13.02 114.409 12.1567 114.899 11.48C115.412 10.8033 116.089 10.3017 116.929 9.975C117.769 9.625 118.667 9.45 119.624 9.45Z" fill="white"/>
</svg>
