<svg width="88" height="30" viewBox="0 0 88 30" fill="none" xmlns="http://www.w3.org/2000/svg">
<path d="M82.3337 16.5172C83.5726 16.4594 84.8141 16.4832 86.0497 16.5887C86.4457 16.602 86.8321 16.712 87.1739 16.9087C87.6839 17.249 87.8678 17.8991 87.9476 18.5015C88.0351 19.2144 88.0129 19.9361 87.8817 20.6424C87.8374 21.1105 87.6158 21.5453 87.2606 21.8609C86.9282 22.0545 86.5473 22.1535 86.1607 22.1468C84.8908 22.2381 83.6166 22.2597 82.3441 22.2115C82.4032 23.496 82.3788 24.7829 82.2713 26.0644C82.2581 26.454 82.146 26.8342 81.9451 27.1705C81.7546 27.3925 81.5201 27.5742 81.2559 27.7046C80.9917 27.8351 80.7033 27.9116 80.4081 27.9295C79.6634 28.0392 78.9049 28.0208 78.1667 27.8751C77.7419 27.8255 77.3456 27.6401 77.039 27.3475C76.7699 26.9904 76.6218 26.5595 76.6157 26.1154C76.5088 24.8214 76.4833 23.5222 76.5394 22.2251C75.2383 22.2591 74.3743 22.2455 73.0697 22.1808C72.6747 22.2043 72.2799 22.1306 71.9213 21.9664C71.6992 21.8054 71.513 21.6016 71.374 21.3675C71.235 21.1334 71.1461 20.8739 71.1129 20.605C70.9295 19.7103 70.97 18.7853 71.2308 17.9093C71.4841 17.0516 72.0011 16.7249 72.9101 16.65C74.1073 16.5411 75.3107 16.5138 76.5116 16.5683C76.4561 15.345 76.4805 14.1195 76.5845 12.8992C76.5959 12.5202 76.702 12.1497 76.8933 11.8203C77.2194 11.3472 77.8301 11.1566 78.4061 11.0715C79.1682 10.9596 79.9443 10.9792 80.6995 11.1293C81.1422 11.1881 81.553 11.3878 81.8688 11.6977C82.1264 12.08 82.2606 12.5295 82.2539 12.9877C82.3452 14.1711 82.3673 15.3586 82.3198 16.5445L82.3337 16.5172Z" fill="#7391E9"/>
<g clip-path="url(#clip0_1309_616)">
<path d="M0.783853 25.6402C0.33897 25.0957 0.0658869 24.4284 0 23.7249C0.0027008 23.1827 0.130029 22.6487 0.371901 22.165C0.613773 21.6813 0.963545 21.2613 1.39352 20.9383C2.1495 20.3174 3.17374 19.933 4.10739 20.2116C5.04105 20.4903 5.7169 21.418 6.4485 22.134C7.1646 22.858 8.06777 23.3629 9.05438 23.5908C9.54743 23.6992 10.0573 23.7031 10.5519 23.6023C11.0465 23.5016 11.5152 23.2983 11.9285 23.0053C12.2545 22.7537 12.5154 22.426 12.689 22.05C12.8625 21.674 12.9434 21.2611 12.9249 20.8465C12.8447 19.7883 11.9459 19.2875 11.0576 18.9735C8.29491 17.9894 5.16995 17.679 2.92987 15.7672C-0.0766435 13.2063 -0.425023 8.46559 1.81157 5.29099C3.48379 2.88887 6.50076 1.74249 9.30173 1.60492C11.8506 1.48517 14.3679 2.21499 16.4679 3.68252C17.1263 4.14813 17.7778 4.74073 17.9206 5.55201C18.0635 6.3633 17.6698 7.13226 17.2239 7.80598C16.5271 8.86418 15.482 9.89416 14.2417 9.74954C13.1269 9.62256 12.35 8.5961 11.3537 8.07406C10.8398 7.80927 10.2691 7.67776 9.6927 7.6913C9.11629 7.70485 8.55221 7.86303 8.05105 8.15166C7.23932 8.64901 6.5983 9.679 6.96759 10.582C7.2569 11.1106 7.72429 11.5162 8.28446 11.7249C9.86959 12.4621 11.6219 12.7301 13.3151 13.164C15.0082 13.5979 16.7187 14.2504 17.9067 15.5555C19.1643 16.9665 19.6277 18.9347 19.5928 20.8465C19.5993 22.6015 19.0939 24.3194 18.1401 25.7848C17.0977 27.2183 15.6603 28.308 14.0083 28.9171C12.0326 29.6631 9.89989 29.8794 7.81722 29.5451C5.73455 29.2107 3.77258 28.337 2.12163 27.0088C1.62666 26.6046 1.17795 26.1455 0.783853 25.6402Z" fill="#2D2D2D"/>
<path d="M39.0219 20.8501C39.5308 20.5319 39.9554 20.0929 40.259 19.571C40.5625 19.0492 40.7358 18.4603 40.7638 17.8554C40.787 17.6493 40.7963 17.4419 40.7917 17.2346C40.7678 16.0628 40.4861 14.9111 39.9673 13.8634C39.4484 12.8158 38.7053 11.8984 37.7921 11.1781C36.7846 10.4102 35.6372 9.85129 34.4159 9.5335C33.1945 9.2157 31.9231 9.14528 30.6747 9.32627C29.6391 9.46417 28.6273 9.74669 27.6682 10.1658C25.5222 11.0864 23.7072 12.5256 22.662 14.642C21.6049 16.7275 21.2152 19.0945 21.5472 21.4145C21.7824 22.978 22.378 24.4634 23.2859 25.7504C24.1938 27.0373 25.3884 28.0896 26.7729 28.8219C28.7482 29.8272 31.0545 30.067 33.2771 29.9788C34.9103 29.9636 36.5247 29.6245 38.029 28.9806C38.7258 28.6525 39.4435 28.1728 39.7117 27.4321C40.0218 26.5608 39.649 25.619 39.2379 24.7972C38.9418 24.2187 38.583 23.6085 37.9872 23.358C37.2661 23.0547 36.4544 23.358 35.7158 23.6261C33.9077 24.254 31.8836 24.5044 30.1104 23.7566C29.2568 23.4003 28.142 22.3774 28.142 21.4286L35.7332 21.4638C36.8724 21.4674 38.0674 21.4568 39.0219 20.8501ZM32.9148 18.6067H28.1455C28.1509 18.1364 28.2556 17.6727 28.4527 17.2468C28.6498 16.8209 28.9347 16.4427 29.2882 16.1376C29.9918 15.5419 30.883 15.2215 31.8 15.2346C32.4724 15.191 33.1394 15.38 33.6917 15.7707C33.9395 15.9617 34.1461 16.202 34.2989 16.4768C34.4517 16.7515 34.5473 17.055 34.5801 17.3686C34.5801 18.1975 33.8764 18.6067 32.9148 18.6067Z" fill="#2D2D2D"/>
<path d="M43.199 3.73192C43.199 3.30159 43.199 2.43034 43.2548 2.00353C43.3094 1.65903 43.4151 1.32486 43.5683 1.01234C43.9167 0.335095 44.8643 0 46.4389 0C47.9439 0 48.8776 0.352732 49.2504 1.01234C49.4283 1.32333 49.5466 1.66564 49.5987 2.02116C49.6371 2.32099 49.6545 3.19577 49.6545 3.78483V21.1111C49.6545 22.0071 49.6545 22.3986 49.8008 22.6349C49.9216 22.8007 50.079 22.9355 50.2605 23.0286C50.442 23.1218 50.6425 23.1705 50.8459 23.1711C51.4486 23.1711 51.9817 23.1711 52.4938 23.545C53.0059 23.9189 53.2323 24.7549 53.2323 26.2046C53.2323 27.7778 52.9885 28.7372 52.4938 29.0864C51.8493 29.5379 50.3234 29.612 47.9056 29.3122C46.007 29.0617 44.589 28.3845 44.0247 27.3616C43.3279 26.1376 43.1711 24.2328 43.1711 21.5591L43.199 3.73192Z" fill="#2D2D2D"/>
<path d="M65.7671 9.72839C66.9098 9.69664 68.3625 9.88712 68.7631 11.1675C69.0244 12.1325 69.0767 13.1432 68.9164 14.1305C68.8189 14.7866 68.5889 15.5414 67.9862 15.8942C67.2819 16.2303 66.5063 16.3842 65.7287 16.3421L63.1786 16.194V26.2575C63.2241 26.9807 63.1049 27.7048 62.8302 28.3739C62.1335 29.7848 60.1164 29.7213 58.8274 29.4815C57.7613 29.2804 56.8695 28.6455 56.7371 27.4956C56.6942 27.0596 56.6756 26.6215 56.6813 26.1834V16.2257H55.347C54.6503 16.1728 54.0023 15.9894 53.6644 15.3227C53.3584 14.6071 53.2178 13.8301 53.2533 13.0511C53.2533 11.0053 53.9802 9.98118 55.4341 9.97883H56.657V8.00352C56.663 6.06422 57.3893 4.19816 58.6915 2.77601C60.0502 1.21692 62.0104 0.437387 64.5721 0.437387C64.9991 0.429737 65.426 0.448584 65.8507 0.493822C67.5508 0.716045 67.8295 2.25749 67.8295 3.73192C67.8295 4.93121 67.6204 5.79306 67.2024 6.31745C66.9888 6.53431 66.7345 6.70564 66.4545 6.82136C66.1745 6.93707 65.8744 6.99481 65.572 6.99118H64.5268C63.6141 6.99118 63.1577 7.30511 63.1577 7.92592V9.98588C63.1577 9.78482 65.464 9.75661 65.6974 9.74955L65.7671 9.72839Z" fill="#2D2D2D"/>
</g>
<defs>
<clipPath id="clip0_1309_616">
<rect width="69" height="30" fill="white"/>
</clipPath>
</defs>
</svg>
