<svg width="629" height="426" viewBox="0 0 629 426" fill="none" xmlns="http://www.w3.org/2000/svg">
<mask id="mask0_998_2101" style="mask-type:alpha" maskUnits="userSpaceOnUse" x="0" y="0" width="629" height="426">
<rect y="0.114258" width="629" height="425.885" fill="#EFF1FB"/>
</mask>
<g mask="url(#mask0_998_2101)">
<rect opacity="0.3" x="-11.2319" y="197.439" width="583.135" height="0.936012" fill="black" fill-opacity="0.2"/>
<rect opacity="0.3" x="-11.2319" y="241.432" width="583.135" height="0.936012" fill="black" fill-opacity="0.2"/>
<rect opacity="0.3" x="-11.2319" y="65.4614" width="583.135" height="0.936012" fill="black" fill-opacity="0.2"/>
<rect opacity="0.3" x="-11.2319" y="329.417" width="583.135" height="0.936012" fill="black" fill-opacity="0.2"/>
<rect opacity="0.3" x="-11.2319" y="285.424" width="583.135" height="0.936012" fill="black" fill-opacity="0.2"/>
<rect opacity="0.3" x="-11.2319" y="153.447" width="583.135" height="0.936012" fill="black" fill-opacity="0.2"/>
<rect opacity="0.3" x="-11.2319" y="109.454" width="583.135" height="0.936012" fill="black" fill-opacity="0.2"/>
<g filter="url(#filter0_d_998_2101)">
<path d="M612.351 19.7825C590.786 104.639 560.412 126.453 525.15 112.609C506.383 105.241 486.726 83.5424 469.829 83.5424C381.909 83.5424 316.045 217.626 269.642 217.626C223.239 217.626 226.983 174.494 199.787 174.494C172.591 174.494 173.238 258.755 129.638 254.067C86.0373 249.38 82.3692 227.391 53.5168 225.127C32.5761 226.221 4.68026 227.859 -41.1843 279.51" stroke="url(#paint0_linear_998_2101)" stroke-width="3" stroke-linecap="round" stroke-linejoin="round"/>
</g>
<path d="M464.757 35.9788V38.166C465.982 38.3522 467.146 38.8253 468.247 39.5854V42.4938C467.75 42.075 467.208 41.7027 466.618 41.377C466.029 41.0512 465.408 40.8186 464.757 40.6789V44.9602C465.269 45.0998 465.773 45.2705 466.269 45.4721C466.781 45.6583 467.231 45.9142 467.619 46.24C468.022 46.5502 468.348 46.9535 468.596 47.4499C468.844 47.9307 468.968 48.528 468.968 49.2415C468.968 49.893 468.852 50.4824 468.619 51.0099C468.402 51.5217 468.1 51.9716 467.712 52.3594C467.324 52.7472 466.874 53.0729 466.362 53.3366C465.866 53.5848 465.331 53.7632 464.757 53.8718V56.2684H462.825V54.0114C462.034 53.9649 461.259 53.8175 460.499 53.5693C459.739 53.3211 459.041 52.9799 458.405 52.5455V49.5207C458.994 50.0326 459.669 50.4747 460.429 50.847C461.204 51.2038 462.003 51.4209 462.825 51.4985V46.9845C462.283 46.8449 461.747 46.682 461.22 46.4959C460.693 46.3098 460.219 46.0616 459.801 45.7513C459.382 45.4411 459.041 45.0378 458.777 44.5414C458.513 44.045 458.381 43.4168 458.381 42.6567C458.381 41.9897 458.498 41.3925 458.73 40.8651C458.963 40.3377 459.281 39.8801 459.684 39.4923C460.103 39.1045 460.576 38.802 461.104 38.5848C461.647 38.3522 462.221 38.197 462.825 38.1195V35.9788H464.757ZM461.034 42.4473C461.034 42.9592 461.197 43.3625 461.522 43.6572C461.864 43.9364 462.298 44.1769 462.825 44.3785V40.6789C462.36 40.7875 461.941 40.9892 461.569 41.2839C461.212 41.5631 461.034 41.9509 461.034 42.4473ZM466.292 49.4044C466.292 48.9235 466.145 48.5435 465.85 48.2643C465.571 47.9695 465.207 47.7368 464.757 47.5662V51.2891C465.176 51.1495 465.532 50.9245 465.827 50.6143C466.137 50.3041 466.292 49.9008 466.292 49.4044ZM473.481 54.0347V41.0745L470.596 42.2146V39.4923L474.017 38.0497H476.227V54.0347H473.481ZM479.074 54.0347V52.1034L484.659 46.3563C485.015 45.9995 485.31 45.6738 485.543 45.379C485.791 45.0688 485.985 44.7818 486.125 44.5181C486.264 44.2389 486.365 43.9675 486.427 43.7038C486.489 43.4401 486.52 43.1686 486.52 42.8894C486.52 42.1448 486.241 41.5399 485.682 41.0745C485.124 40.5936 484.41 40.3532 483.542 40.3532C482.797 40.3532 482.076 40.5704 481.378 41.0047C480.68 41.4235 480.005 42.0052 479.354 42.7498V39.6784C479.943 39.089 480.618 38.6236 481.378 38.2824C482.138 37.9411 482.914 37.7705 483.705 37.7705C484.496 37.7705 485.225 37.8868 485.892 38.1195C486.574 38.3522 487.164 38.6857 487.66 39.12C488.157 39.5543 488.544 40.074 488.824 40.6789C489.118 41.2684 489.266 41.9277 489.266 42.6567C489.266 43.1686 489.211 43.6495 489.103 44.0993C489.01 44.5336 488.855 44.9602 488.637 45.379C488.42 45.7979 488.141 46.2244 487.8 46.6588C487.474 47.0776 487.079 47.5197 486.613 47.985L483.053 51.545H489.498V54.0347H479.074ZM502.351 42.6334L497.395 47.5895L502.723 54.0347H499.419L495.347 48.9856L494.765 49.5207V54.0347H492.09V37.7472H494.765V46.938L499.047 42.6334H502.351Z" fill="#80A0FF"/>
<circle cx="480.144" cy="85.8823" r="11.7483" fill="#6A8AE8" stroke="#A2BAFE" stroke-width="7.4457"/>
<path d="M625.321 45.5632L614.059 17.1832C613.83 16.6057 613.11 16.4106 612.621 16.7933L587.815 36.1867" stroke="#B3C7FF" stroke-width="3" stroke-linecap="round"/>
<path opacity="0.1" d="M-3.70217 411.722C-4.37837 412.366 -5.1009 412.786 -5.86974 412.984C-6.64777 413.172 -7.431 413.19 -8.21943 413.039C-8.99819 412.878 -9.76377 412.566 -10.5162 412.104C-11.2686 411.642 -11.9618 411.078 -12.5959 410.411C-13.2393 409.735 -13.7729 409.01 -14.1968 408.235C-14.6208 407.461 -14.8937 406.681 -15.0156 405.895C-15.1278 405.1 -15.066 404.323 -14.8302 403.565C-14.6036 402.798 -14.1522 402.092 -13.476 401.449C-12.7998 400.806 -12.0726 400.39 -11.2946 400.202C-10.5258 400.004 -9.75196 399.986 -8.97319 400.146C-8.18477 400.298 -7.41436 400.605 -6.66196 401.067C-5.90957 401.529 -5.21171 402.098 -4.5684 402.774C-3.93427 403.441 -3.40523 404.161 -2.98128 404.936C-2.55733 405.71 -2.28924 406.495 -2.17703 407.29C-2.05515 408.076 -2.10752 408.853 -2.33414 409.62C-2.56995 410.378 -3.02596 411.079 -3.70217 411.722ZM-4.84635 410.52C-4.373 410.069 -4.06837 409.577 -3.93245 409.043C-3.79606 408.49 -3.79139 407.924 -3.91844 407.346C-4.04548 406.767 -4.27644 406.196 -4.61131 405.631C-4.95537 405.056 -5.37094 404.513 -5.85802 404.001C-6.33591 403.499 -6.85315 403.062 -7.40973 402.689C-7.9755 402.307 -8.5395 402.043 -9.10172 401.897C-9.67313 401.742 -10.2384 401.718 -10.7975 401.827C-11.347 401.926 -11.8584 402.201 -12.3318 402.652C-12.8051 403.102 -13.11 403.604 -13.2464 404.157C-13.3731 404.7 -13.373 405.262 -13.2459 405.84C-13.1281 406.409 -12.8925 406.985 -12.5392 407.569C-12.1952 408.144 -11.7842 408.682 -11.3063 409.184C-10.8192 409.696 -10.2974 410.139 -9.74083 410.511C-9.19344 410.873 -8.63404 411.133 -8.06262 411.288C-7.49121 411.444 -6.93077 411.472 -6.38129 411.373C-5.83134 411.254 -5.31969 410.97 -4.84635 410.52ZM2.95114 405.089L-5.15463 396.569L-6.24836 399.017L-7.48904 397.713L-6.28754 394.914L-5.24425 393.921L4.22627 403.876L2.95114 405.089ZM4.82018 383.987L18.6431 390.16L17.281 391.456L13.2944 389.645L8.99081 393.739L10.601 397.811L9.26794 399.08L3.80587 384.952L4.82018 383.987ZM8.33788 392.125L11.7141 388.913L6.00721 386.309L8.33788 392.125ZM22.842 391.908L13.275 381.851L14.5067 380.68L15.5682 381.795C15.4517 381.17 15.5054 380.53 15.7292 379.875C15.953 379.221 16.3257 378.645 16.8474 378.149C17.3497 377.671 17.9053 377.327 18.5141 377.116C19.1234 376.886 19.7437 376.783 20.375 376.808C21.0062 376.833 21.6248 376.99 22.2306 377.279C22.8369 377.549 23.3882 377.944 23.8844 378.466C24.3807 378.988 24.7485 379.558 24.9877 380.177C25.2365 380.787 25.3624 381.412 25.3653 382.054C25.359 382.685 25.2303 383.305 24.9794 383.911C24.729 384.499 24.3526 385.032 23.8503 385.51C23.3287 386.006 22.7446 386.36 22.098 386.57C21.4611 386.771 20.8285 386.802 20.2 386.664L24.0737 390.736L22.842 391.908ZM22.6238 379.665C22.2838 379.308 21.9039 379.034 21.4842 378.845C21.0742 378.646 20.6524 378.541 20.2189 378.53C19.7858 378.501 19.3598 378.565 18.9409 378.725C18.5224 378.865 18.1393 379.101 17.7915 379.432C17.4437 379.763 17.1845 380.138 17.0137 380.558C16.8433 380.959 16.7574 381.382 16.7557 381.825C16.7546 382.249 16.8383 382.676 17.0068 383.104C17.1849 383.524 17.444 383.912 17.7841 384.27C18.1241 384.627 18.4991 384.905 18.9092 385.104C19.3288 385.294 19.7552 385.403 20.1883 385.433C20.6218 385.444 21.0479 385.379 21.4663 385.238C21.8853 385.079 22.2686 384.834 22.6164 384.503C22.9641 384.172 23.2232 383.806 23.3935 383.405C23.5643 382.985 23.6503 382.563 23.6514 382.138C23.6531 381.695 23.5648 381.264 23.3866 380.844C23.2181 380.416 22.9638 380.023 22.6238 379.665ZM27.1289 370.88C27.1095 370.898 27.076 370.921 27.0281 370.948C26.9992 370.976 26.9605 371.012 26.9122 371.058C26.8547 371.095 26.8018 371.136 26.7535 371.182C26.0966 371.807 25.805 372.535 25.8786 373.367C25.9618 374.189 26.3664 374.982 27.0925 375.745L30.2769 379.093L29.0452 380.264L22.3455 373.222L23.5627 372.064L24.7482 373.31C24.6325 373.034 24.569 372.745 24.5577 372.443C24.5468 372.122 24.5828 371.811 24.6658 371.512C24.7487 371.212 24.8691 370.922 25.0269 370.643C25.1848 370.364 25.3796 370.115 25.6115 369.894C25.6598 369.848 25.703 369.816 25.7412 369.798C25.7798 369.762 25.8136 369.729 25.8426 369.702C25.8904 369.675 25.924 369.652 25.9433 369.634L27.1289 370.88ZM27.0455 364.776C27.2661 365.007 27.3724 365.284 27.3644 365.604C27.3564 365.924 27.2365 366.195 27.0046 366.416C26.7728 366.636 26.4966 366.742 26.1762 366.734C25.8557 366.726 25.5852 366.607 25.3646 366.375C25.1441 366.143 25.0378 365.867 25.0458 365.546C25.0538 365.226 25.1737 364.955 25.4055 364.735C25.6374 364.514 25.9135 364.408 26.234 364.416C26.5544 364.424 26.8249 364.544 27.0455 364.776ZM28.8132 367.069L35.5129 374.111L34.2668 375.297L27.5671 368.254L28.8132 367.069ZM29.4291 360.576L39.0789 370.719L37.8327 371.904L28.183 361.761L29.4291 360.576Z" fill="#122E81"/>
<path opacity="0.1" d="M161.972 411.722C161.296 412.366 160.573 412.786 159.804 412.984C159.026 413.172 158.243 413.19 157.455 413.039C156.676 412.878 155.91 412.566 155.158 412.104C154.406 411.642 153.712 411.078 153.078 410.411C152.435 409.735 151.901 409.01 151.477 408.235C151.053 407.461 150.78 406.681 150.658 405.895C150.546 405.1 150.608 404.323 150.844 403.565C151.07 402.798 151.522 402.092 152.198 401.449C152.874 400.806 153.601 400.39 154.379 400.202C155.148 400.004 155.922 399.986 156.701 400.146C157.489 400.298 158.26 400.605 159.012 401.067C159.765 401.529 160.462 402.098 161.106 402.774C161.74 403.441 162.269 404.161 162.693 404.936C163.117 405.71 163.385 406.495 163.497 407.29C163.619 408.076 163.567 408.853 163.34 409.62C163.104 410.378 162.648 411.079 161.972 411.722ZM160.828 410.52C161.301 410.069 161.606 409.577 161.742 409.043C161.878 408.49 161.883 407.924 161.756 407.346C161.629 406.767 161.398 406.196 161.063 405.631C160.719 405.056 160.303 404.513 159.816 404.001C159.338 403.499 158.821 403.062 158.264 402.689C157.699 402.307 157.135 402.043 156.572 401.897C156.001 401.742 155.436 401.718 154.877 401.827C154.327 401.926 153.816 402.201 153.342 402.652C152.869 403.102 152.564 403.604 152.428 404.157C152.301 404.7 152.301 405.262 152.428 405.84C152.546 406.409 152.782 406.985 153.135 407.569C153.479 408.144 153.89 408.682 154.368 409.184C154.855 409.696 155.377 410.139 155.933 410.511C156.481 410.873 157.04 411.133 157.611 411.288C158.183 411.444 158.743 411.472 159.293 411.373C159.843 411.254 160.354 410.97 160.828 410.52ZM163.879 403.31L162.507 391.973L163.956 390.594L170.118 397.071L171.509 395.748L172.584 396.878L171.193 398.202L173.413 400.535L172.152 401.734L169.933 399.401L164.803 404.281L163.879 403.31ZM168.857 398.271L164.253 393.431L165.235 401.717L168.857 398.271ZM174.485 380.191L188.308 386.364L186.946 387.66L182.959 385.849L178.655 389.943L180.266 394.015L178.932 395.283L173.47 381.156L174.485 380.191ZM178.002 388.328L181.379 385.116L175.672 382.512L178.002 388.328ZM192.507 388.111L182.94 378.055L184.171 376.883L185.233 377.999C185.116 377.374 185.17 376.734 185.394 376.079C185.618 375.424 185.99 374.849 186.512 374.353C187.014 373.875 187.57 373.53 188.179 373.319C188.788 373.089 189.408 372.987 190.04 373.012C190.671 373.037 191.289 373.194 191.895 373.483C192.501 373.752 193.053 374.148 193.549 374.67C194.045 375.191 194.413 375.762 194.652 376.381C194.901 376.99 195.027 377.616 195.03 378.257C195.023 378.889 194.895 379.508 194.644 380.115C194.394 380.703 194.017 381.236 193.515 381.714C192.993 382.21 192.409 382.563 191.763 382.774C191.126 382.975 190.493 383.006 189.865 382.868L193.738 386.939L192.507 388.111ZM192.288 375.869C191.948 375.512 191.568 375.238 191.149 375.048C190.739 374.85 190.317 374.745 189.883 374.734C189.45 374.704 189.024 374.769 188.605 374.928C188.187 375.069 187.804 375.304 187.456 375.635C187.108 375.966 186.849 376.342 186.678 376.762C186.508 377.163 186.422 377.585 186.42 378.029C186.419 378.453 186.503 378.879 186.671 379.308C186.849 379.727 187.109 380.116 187.449 380.473C187.789 380.831 188.164 381.109 188.574 381.308C188.993 381.497 189.42 381.607 189.853 381.637C190.286 381.647 190.712 381.583 191.131 381.442C191.55 381.283 191.933 381.038 192.281 380.707C192.629 380.376 192.888 380.01 193.058 379.609C193.229 379.189 193.315 378.766 193.316 378.342C193.318 377.899 193.229 377.467 193.051 377.048C192.883 376.619 192.628 376.226 192.288 375.869ZM196.793 367.083C196.774 367.102 196.74 367.125 196.693 367.152C196.664 367.179 196.625 367.216 196.577 367.262C196.519 367.298 196.466 367.339 196.418 367.385C195.761 368.01 195.47 368.739 195.543 369.57C195.626 370.393 196.031 371.186 196.757 371.949L199.941 375.296L198.71 376.468L192.01 369.426L193.227 368.268L194.413 369.514C194.297 369.237 194.234 368.948 194.222 368.646C194.211 368.325 194.247 368.015 194.33 367.715C194.413 367.415 194.534 367.126 194.691 366.847C194.849 366.568 195.044 366.318 195.276 366.098C195.324 366.052 195.368 366.02 195.406 366.002C195.444 365.965 195.478 365.933 195.507 365.905C195.555 365.878 195.589 365.856 195.608 365.837L196.793 367.083ZM196.71 360.979C196.931 361.211 197.037 361.487 197.029 361.808C197.021 362.128 196.901 362.399 196.669 362.619C196.437 362.84 196.161 362.946 195.841 362.938C195.52 362.93 195.25 362.81 195.029 362.578C194.809 362.346 194.702 362.07 194.71 361.75C194.718 361.429 194.838 361.159 195.07 360.938C195.302 360.718 195.578 360.611 195.899 360.619C196.219 360.627 196.489 360.747 196.71 360.979ZM198.478 363.273L205.177 370.315L203.931 371.5L197.232 364.458L198.478 363.273ZM199.094 356.779L208.743 366.922L207.497 368.108L197.847 357.965L199.094 356.779Z" fill="#122E81"/>
<path opacity="0.1" d="M327.646 411.722C326.97 412.366 326.247 412.786 325.478 412.984C324.7 413.172 323.917 413.19 323.129 413.039C322.35 412.878 321.584 412.566 320.832 412.104C320.08 411.642 319.386 411.078 318.752 410.411C318.109 409.735 317.575 409.01 317.151 408.235C316.727 407.461 316.454 406.681 316.333 405.895C316.22 405.1 316.282 404.323 316.518 403.565C316.745 402.798 317.196 402.092 317.872 401.449C318.548 400.806 319.276 400.39 320.054 400.202C320.822 400.004 321.596 399.986 322.375 400.146C323.163 400.298 323.934 400.605 324.686 401.067C325.439 401.529 326.136 402.098 326.78 402.774C327.414 403.441 327.943 404.161 328.367 404.936C328.791 405.71 329.059 406.495 329.171 407.29C329.293 408.076 329.241 408.853 329.014 409.62C328.778 410.378 328.322 411.079 327.646 411.722ZM326.502 410.52C326.975 410.069 327.28 409.577 327.416 409.043C327.552 408.49 327.557 407.924 327.43 407.346C327.303 406.767 327.072 406.196 326.737 405.631C326.393 405.056 325.977 404.513 325.49 404.001C325.012 403.499 324.495 403.062 323.938 402.689C323.373 402.307 322.809 402.043 322.246 401.897C321.675 401.742 321.11 401.718 320.551 401.827C320.001 401.926 319.49 402.201 319.016 402.652C318.543 403.102 318.238 403.604 318.102 404.157C317.975 404.7 317.975 405.262 318.102 405.84C318.22 406.409 318.456 406.985 318.809 407.569C319.153 408.144 319.564 408.682 320.042 409.184C320.529 409.696 321.051 410.139 321.607 410.511C322.155 410.873 322.714 411.133 323.286 411.288C323.857 411.444 324.417 411.472 324.967 411.373C325.517 411.254 326.028 410.97 326.502 410.52ZM334.536 404.864L333.131 406.201L328.876 393.575L323.92 398.29L322.79 397.101L329.238 390.967L330.162 391.938L334.536 404.864ZM338.404 381.86L352.227 388.033L350.865 389.329L346.878 387.518L342.575 391.612L344.185 395.684L342.852 396.952L337.39 382.825L338.404 381.86ZM341.922 389.997L345.298 386.786L339.591 384.182L341.922 389.997ZM356.426 389.78L346.859 379.724L348.091 378.553L349.152 379.668C349.036 379.043 349.089 378.403 349.313 377.748C349.537 377.094 349.91 376.518 350.431 376.022C350.934 375.544 351.489 375.2 352.098 374.988C352.707 374.758 353.328 374.656 353.959 374.681C354.59 374.706 355.209 374.863 355.815 375.152C356.421 375.422 356.972 375.817 357.468 376.339C357.965 376.861 358.332 377.431 358.572 378.05C358.82 378.66 358.946 379.285 358.949 379.927C358.943 380.558 358.814 381.178 358.563 381.784C358.313 382.372 357.937 382.905 357.434 383.383C356.913 383.879 356.329 384.233 355.682 384.443C355.045 384.644 354.412 384.675 353.784 384.537L357.658 388.609L356.426 389.78ZM356.208 377.538C355.868 377.181 355.488 376.907 355.068 376.718C354.658 376.519 354.236 376.414 353.803 376.403C353.37 376.374 352.944 376.438 352.525 376.598C352.106 376.738 351.723 376.974 351.375 377.305C351.028 377.636 350.768 378.011 350.598 378.431C350.427 378.832 350.341 379.255 350.34 379.698C350.339 380.122 350.422 380.549 350.591 380.977C350.769 381.397 351.028 381.785 351.368 382.143C351.708 382.5 352.083 382.778 352.493 382.977C352.913 383.167 353.339 383.276 353.772 383.306C354.206 383.317 354.632 383.252 355.05 383.111C355.469 382.952 355.853 382.707 356.2 382.376C356.548 382.045 356.807 381.679 356.977 381.278C357.148 380.858 357.234 380.436 357.235 380.011C357.237 379.568 357.149 379.137 356.971 378.717C356.802 378.289 356.548 377.896 356.208 377.538ZM360.713 368.753C360.693 368.771 360.66 368.794 360.612 368.821C360.583 368.849 360.544 368.885 360.496 368.931C360.439 368.968 360.386 369.009 360.337 369.055C359.681 369.68 359.389 370.408 359.462 371.24C359.546 372.062 359.95 372.855 360.676 373.618L363.861 376.965L362.629 378.137L355.929 371.095L357.147 369.937L358.332 371.183C358.216 370.907 358.153 370.618 358.142 370.316C358.131 369.995 358.167 369.684 358.25 369.385C358.333 369.085 358.453 368.795 358.611 368.516C358.769 368.237 358.964 367.988 359.195 367.767C359.244 367.721 359.287 367.689 359.325 367.671C359.364 367.635 359.398 367.602 359.427 367.575C359.474 367.548 359.508 367.525 359.527 367.507L360.713 368.753ZM360.629 362.649C360.85 362.88 360.956 363.157 360.948 363.477C360.94 363.797 360.82 364.068 360.589 364.289C360.357 364.509 360.081 364.615 359.76 364.607C359.44 364.599 359.169 364.479 358.949 364.248C358.728 364.016 358.622 363.74 358.63 363.419C358.638 363.099 358.758 362.828 358.989 362.608C359.221 362.387 359.497 362.281 359.818 362.289C360.138 362.297 360.409 362.417 360.629 362.649ZM362.397 364.942L369.097 371.984L367.851 373.17L361.151 366.127L362.397 364.942ZM363.013 358.449L372.663 368.592L371.417 369.777L361.767 359.634L363.013 358.449Z" fill="#122E81"/>
<path opacity="0.1" d="M545.915 413.92L537.81 405.4L536.716 407.848L535.475 406.544L536.677 403.745L537.72 402.752L547.191 412.707L545.915 413.92ZM550.854 409.222L542.748 400.702L541.654 403.15L540.414 401.846L541.615 399.047L542.659 398.054L552.129 408.009L550.854 409.222ZM552.723 388.12L566.546 394.293L565.184 395.589L561.197 393.778L556.894 397.872L558.504 401.944L557.171 403.212L551.709 389.085L552.723 388.12ZM556.241 396.257L559.617 393.045L553.91 390.442L556.241 396.257ZM570.745 396.04L561.178 385.984L562.41 384.812L563.471 385.928C563.355 385.303 563.408 384.663 563.632 384.008C563.856 383.354 564.229 382.778 564.75 382.282C565.253 381.804 565.808 381.46 566.417 381.248C567.026 381.018 567.647 380.916 568.278 380.941C568.909 380.966 569.528 381.123 570.133 381.412C570.74 381.682 571.291 382.077 571.787 382.599C572.284 383.121 572.651 383.691 572.891 384.31C573.139 384.92 573.265 385.545 573.268 386.187C573.262 386.818 573.133 387.438 572.882 388.044C572.632 388.632 572.255 389.165 571.753 389.643C571.232 390.139 570.647 390.493 570.001 390.703C569.364 390.904 568.731 390.935 568.103 390.797L571.977 394.869L570.745 396.04ZM570.527 383.798C570.187 383.441 569.807 383.167 569.387 382.978C568.977 382.779 568.555 382.674 568.122 382.663C567.689 382.633 567.263 382.698 566.844 382.858C566.425 382.998 566.042 383.234 565.694 383.565C565.347 383.895 565.087 384.271 564.917 384.691C564.746 385.092 564.66 385.515 564.659 385.958C564.657 386.382 564.741 386.809 564.91 387.237C565.088 387.657 565.347 388.045 565.687 388.403C566.027 388.76 566.402 389.038 566.812 389.237C567.232 389.427 567.658 389.536 568.091 389.566C568.525 389.577 568.951 389.512 569.369 389.371C569.788 389.212 570.171 388.967 570.519 388.636C570.867 388.305 571.126 387.939 571.296 387.538C571.467 387.118 571.553 386.696 571.554 386.271C571.556 385.828 571.468 385.397 571.289 384.977C571.121 384.549 570.867 384.156 570.527 383.798ZM575.032 375.013C575.012 375.031 574.979 375.054 574.931 375.081C574.902 375.108 574.863 375.145 574.815 375.191C574.758 375.227 574.705 375.269 574.656 375.315C573.999 375.939 573.708 376.668 573.781 377.5C573.865 378.322 574.269 379.115 574.995 379.878L578.18 383.225L576.948 384.397L570.248 377.355L571.466 376.197L572.651 377.443C572.535 377.167 572.472 376.878 572.461 376.575C572.45 376.255 572.486 375.944 572.569 375.644C572.652 375.345 572.772 375.055 572.93 374.776C573.088 374.497 573.282 374.248 573.514 374.027C573.563 373.981 573.606 373.949 573.644 373.931C573.683 373.894 573.716 373.862 573.745 373.835C573.793 373.808 573.827 373.785 573.846 373.767L575.032 375.013ZM574.948 368.908C575.169 369.14 575.275 369.416 575.267 369.737C575.259 370.057 575.139 370.328 574.907 370.548C574.676 370.769 574.399 370.875 574.079 370.867C573.759 370.859 573.488 370.739 573.268 370.508C573.047 370.276 572.941 370 572.949 369.679C572.957 369.359 573.077 369.088 573.308 368.868C573.54 368.647 573.816 368.541 574.137 368.549C574.457 368.557 574.728 368.677 574.948 368.908ZM576.716 371.202L583.416 378.244L582.17 379.43L575.47 372.387L576.716 371.202ZM577.332 364.708L586.982 374.852L585.736 376.037L576.086 365.894L577.332 364.708Z" fill="#122E81"/>
<path opacity="0.1" d="M51.5227 411.722C50.8465 412.366 50.124 412.786 49.3551 412.984C48.5771 413.172 47.7939 413.19 47.0054 413.039C46.2267 412.878 45.4611 412.566 44.7087 412.104C43.9563 411.642 43.263 411.078 42.6289 410.411C41.9856 409.735 41.452 409.01 41.028 408.235C40.6041 407.461 40.3311 406.681 40.2093 405.895C40.097 405.1 40.1588 404.323 40.3947 403.565C40.6213 402.798 41.0727 402.092 41.7489 401.449C42.4251 400.806 43.1522 400.39 43.9302 400.202C44.6991 400.004 45.4729 399.986 46.2517 400.146C47.0401 400.298 47.8105 400.605 48.5629 401.067C49.3153 401.529 50.0131 402.098 50.6565 402.774C51.2906 403.441 51.8196 404.161 52.2436 404.936C52.6675 405.71 52.9356 406.495 53.0478 407.29C53.1697 408.076 53.1173 408.853 52.8907 409.62C52.6549 410.378 52.1989 411.079 51.5227 411.722ZM50.3785 410.52C50.8518 410.069 51.1565 409.577 51.2924 409.043C51.4288 408.49 51.4335 407.924 51.3064 407.346C51.1794 406.767 50.9484 406.196 50.6135 405.631C50.2695 405.056 49.8539 404.513 49.3668 404.001C48.8889 403.499 48.3717 403.062 47.8151 402.689C47.2494 402.307 46.6854 402.043 46.1231 401.897C45.5517 401.742 44.9864 401.718 44.4273 401.827C43.8778 401.926 43.3664 402.201 42.8931 402.652C42.4197 403.102 42.1149 403.604 41.9785 404.157C41.8517 404.7 41.8519 405.262 41.9789 405.84C42.0968 406.409 42.3324 406.985 42.6856 407.569C43.0297 408.144 43.4406 408.682 43.9185 409.184C44.4056 409.696 44.9274 410.139 45.484 410.511C46.0314 410.873 46.5908 411.133 47.1622 411.288C47.7336 411.444 48.2941 411.472 48.8436 411.373C49.3935 411.254 49.9052 410.97 50.3785 410.52ZM55.6667 405.792L55.6403 398.337C55.6415 397.912 55.6226 397.534 55.5837 397.203C55.5356 396.863 55.4723 396.564 55.3938 396.307C55.3062 396.041 55.1941 395.807 55.0577 395.606C54.9217 395.386 54.7618 395.179 54.578 394.986C54.3299 394.725 54.0516 394.539 53.7431 394.427C53.4255 394.306 53.0968 394.251 52.757 394.261C52.4172 394.272 52.0804 394.353 51.7465 394.505C51.4035 394.647 51.087 394.856 50.7972 395.132C50.3335 395.573 50.0125 396.154 49.8342 396.876C49.6564 397.579 49.5989 398.37 49.6619 399.248L48.2145 397.727C48.1854 397 48.3019 396.3 48.5639 395.628C48.8263 394.937 49.1942 394.366 49.6675 393.915C50.1409 393.465 50.6493 393.119 51.1929 392.878C51.7365 392.637 52.2821 392.505 52.8297 392.481C53.3773 392.456 53.9078 392.55 54.4213 392.761C54.9255 392.962 55.3844 393.28 55.798 393.715C56.0829 394.014 56.3204 394.322 56.5106 394.638C56.7008 394.954 56.8571 395.302 56.9797 395.682C57.0931 396.053 57.1772 396.46 57.2321 396.905C57.2779 397.34 57.2988 397.826 57.2948 398.364L57.2899 403.668L61.608 399.56L62.7384 400.749L56.5076 406.676L55.6667 405.792ZM62.6204 381.537L76.4433 387.71L75.0813 389.006L71.0946 387.195L66.7911 391.289L68.4013 395.361L67.0682 396.629L61.6061 382.502L62.6204 381.537ZM66.1381 389.674L69.5143 386.462L63.8075 383.859L66.1381 389.674ZM80.6423 389.457L71.0753 379.401L72.307 378.229L73.3684 379.345C73.252 378.72 73.3057 378.08 73.5295 377.425C73.7533 376.771 74.126 376.195 74.6476 375.699C75.1499 375.221 75.7055 374.877 76.3144 374.665C76.9237 374.435 77.544 374.333 78.1752 374.358C78.8065 374.383 79.425 374.54 80.0308 374.829C80.6371 375.099 81.1884 375.494 81.6847 376.016C82.181 376.538 82.5487 377.108 82.7879 377.727C83.0368 378.337 83.1627 378.962 83.1655 379.604C83.1592 380.235 83.0306 380.855 82.7797 381.461C82.5293 382.049 82.1529 382.582 81.6506 383.06C81.1289 383.556 80.5448 383.91 79.8983 384.12C79.2614 384.321 78.6287 384.352 78.0003 384.214L81.874 388.286L80.6423 389.457ZM80.424 377.215C80.084 376.858 79.7042 376.584 79.2845 376.395C78.8745 376.196 78.4527 376.091 78.0191 376.08C77.5861 376.05 77.16 376.115 76.7411 376.275C76.3226 376.415 75.9395 376.651 75.5918 376.982C75.244 377.312 74.9847 377.688 74.8139 378.108C74.6436 378.509 74.5576 378.932 74.556 379.375C74.5548 379.799 74.6385 380.226 74.807 380.654C74.9852 381.074 75.2443 381.462 75.5843 381.819C75.9244 382.177 76.2994 382.455 76.7094 382.654C77.1291 382.844 77.5555 382.953 77.9885 382.983C78.4221 382.994 78.8481 382.929 79.2666 382.788C79.6855 382.629 80.0689 382.384 80.4166 382.053C80.7644 381.722 81.0234 381.356 81.1938 380.955C81.3646 380.535 81.4505 380.113 81.4517 379.688C81.4533 379.245 81.365 378.814 81.1869 378.394C81.0184 377.966 80.7641 377.573 80.424 377.215ZM84.9291 368.43C84.9098 368.448 84.8762 368.471 84.8284 368.498C84.7994 368.525 84.7608 368.562 84.7125 368.608C84.655 368.644 84.6021 368.686 84.5538 368.732C83.8969 369.356 83.6052 370.085 83.6788 370.917C83.7621 371.739 84.1667 372.532 84.8927 373.295L88.0771 376.642L86.8455 377.814L80.1458 370.772L81.363 369.614L82.5485 370.86C82.4328 370.584 82.3693 370.294 82.3579 369.992C82.3471 369.671 82.3831 369.361 82.466 369.061C82.5489 368.762 82.6693 368.472 82.8272 368.193C82.985 367.914 83.1799 367.665 83.4117 367.444C83.46 367.398 83.5033 367.366 83.5414 367.348C83.5801 367.311 83.6139 367.279 83.6429 367.252C83.6907 367.225 83.7243 367.202 83.7436 367.184L84.9291 368.43ZM84.8458 362.325C85.0663 362.557 85.1726 362.833 85.1646 363.154C85.1566 363.474 85.0367 363.745 84.8049 363.965C84.573 364.186 84.2969 364.292 83.9764 364.284C83.656 364.276 83.3855 364.156 83.1649 363.925C82.9443 363.693 82.838 363.417 82.846 363.096C82.854 362.776 82.9739 362.505 83.2058 362.285C83.4376 362.064 83.7138 361.958 84.0342 361.966C84.3547 361.974 84.6252 362.094 84.8458 362.325ZM86.6135 364.619L93.3132 371.661L92.067 372.847L85.3673 365.804L86.6135 364.619ZM87.2294 358.125L96.8791 368.269L95.6329 369.454L85.9832 359.311L87.2294 358.125Z" fill="#122E81"/>
<path opacity="0.1" d="M217.197 411.722C216.521 412.366 215.798 412.786 215.029 412.984C214.251 413.172 213.468 413.19 212.679 413.039C211.901 412.878 211.135 412.566 210.383 412.104C209.63 411.642 208.937 411.078 208.303 410.411C207.66 409.735 207.126 409.01 206.702 408.235C206.278 407.461 206.005 406.681 205.883 405.895C205.771 405.1 205.833 404.323 206.069 403.565C206.295 402.798 206.747 402.092 207.423 401.449C208.099 400.806 208.826 400.39 209.604 400.202C210.373 400.004 211.147 399.986 211.926 400.146C212.714 400.298 213.485 400.605 214.237 401.067C214.989 401.529 215.687 402.098 216.331 402.774C216.965 403.441 217.494 404.161 217.918 404.936C218.342 405.71 218.61 406.495 218.722 407.29C218.844 408.076 218.791 408.853 218.565 409.62C218.329 410.378 217.873 411.079 217.197 411.722ZM216.053 410.52C216.526 410.069 216.831 409.577 216.966 409.043C217.103 408.49 217.108 407.924 216.98 407.346C216.853 406.767 216.622 406.196 216.288 405.631C215.944 405.056 215.528 404.513 215.041 404.001C214.563 403.499 214.046 403.062 213.489 402.689C212.923 402.307 212.359 402.043 211.797 401.897C211.226 401.742 210.661 401.718 210.101 401.827C209.552 401.926 209.04 402.201 208.567 402.652C208.094 403.102 207.789 403.604 207.653 404.157C207.526 404.7 207.526 405.262 207.653 405.84C207.771 406.409 208.006 406.985 208.36 407.569C208.704 408.144 209.115 408.682 209.593 409.184C210.08 409.696 210.602 410.139 211.158 410.511C211.705 410.873 212.265 411.133 212.836 411.288C213.408 411.444 213.968 411.472 214.518 411.373C215.068 411.254 215.579 410.97 216.053 410.52ZM224.027 402.933C224.336 402.639 224.585 402.31 224.773 401.947C224.971 401.575 225.094 401.201 225.141 400.825C225.188 400.43 225.155 400.047 225.042 399.676C224.929 399.287 224.716 398.928 224.404 398.599C224.101 398.281 223.767 398.055 223.402 397.924C223.038 397.792 222.666 397.75 222.288 397.797C221.91 397.825 221.53 397.938 221.148 398.136C220.766 398.315 220.406 398.566 220.068 398.887C219.624 399.31 219.269 399.74 219.003 400.177C218.738 400.613 218.528 401.061 218.375 401.519L213.636 395.841L218.737 390.989L219.854 392.163L215.854 395.967L218.202 398.813C218.263 398.644 218.396 398.436 218.6 398.186C218.805 397.918 219.018 397.678 219.24 397.466C219.714 397.016 220.236 396.666 220.809 396.416C221.371 396.157 221.941 396.02 222.516 396.006C223.083 395.982 223.642 396.076 224.193 396.288C224.735 396.49 225.226 396.823 225.667 397.287C226.173 397.818 226.527 398.384 226.729 398.983C226.94 399.573 227.02 400.169 226.967 400.771C226.905 401.364 226.725 401.949 226.428 402.526C226.122 403.094 225.717 403.616 225.215 404.094C224.761 404.526 224.266 404.886 223.731 405.175C223.186 405.454 222.582 405.66 221.919 405.795L220.568 404.375C222.005 404.241 223.158 403.76 224.027 402.933ZM228.464 381.376L242.287 387.549L240.925 388.845L236.939 387.033L232.635 391.128L234.245 395.2L232.912 396.468L227.45 382.341L228.464 381.376ZM231.982 389.513L235.358 386.301L229.651 383.697L231.982 389.513ZM246.486 389.296L236.919 379.24L238.151 378.068L239.212 379.184C239.096 378.558 239.15 377.918 239.373 377.264C239.597 376.609 239.97 376.034 240.491 375.537C240.994 375.06 241.549 374.715 242.158 374.504C242.768 374.274 243.388 374.171 244.019 374.197C244.65 374.222 245.269 374.379 245.875 374.667C246.481 374.937 247.032 375.333 247.529 375.854C248.025 376.376 248.393 376.946 248.632 377.565C248.881 378.175 249.007 378.801 249.009 379.442C249.003 380.074 248.874 380.693 248.624 381.3C248.373 381.888 247.997 382.421 247.494 382.898C246.973 383.395 246.389 383.748 245.742 383.958C245.105 384.159 244.473 384.191 243.844 384.052L247.718 388.124L246.486 389.296ZM246.268 377.054C245.928 376.696 245.548 376.423 245.128 376.233C244.718 376.034 244.297 375.929 243.863 375.919C243.43 375.889 243.004 375.954 242.585 376.113C242.167 376.254 241.783 376.489 241.436 376.82C241.088 377.151 240.829 377.526 240.658 377.946C240.487 378.348 240.401 378.77 240.4 379.213C240.399 379.638 240.482 380.064 240.651 380.493C240.829 380.912 241.088 381.301 241.428 381.658C241.768 382.015 242.143 382.293 242.553 382.492C242.973 382.682 243.399 382.792 243.832 382.821C244.266 382.832 244.692 382.767 245.11 382.627C245.529 382.468 245.913 382.222 246.261 381.892C246.608 381.561 246.867 381.195 247.038 380.793C247.208 380.373 247.294 379.951 247.296 379.527C247.297 379.083 247.209 378.652 247.031 378.233C246.862 377.804 246.608 377.411 246.268 377.054ZM250.773 368.268C250.754 368.286 250.72 368.309 250.672 368.336C250.643 368.364 250.605 368.401 250.556 368.447C250.499 368.483 250.446 368.524 250.398 368.57C249.741 369.195 249.449 369.923 249.523 370.755C249.606 371.578 250.011 372.37 250.737 373.134L253.921 376.481L252.689 377.653L245.99 370.61L247.207 369.452L248.392 370.699C248.277 370.422 248.213 370.133 248.202 369.831C248.191 369.51 248.227 369.2 248.31 368.9C248.393 368.6 248.513 368.311 248.671 368.032C248.829 367.753 249.024 367.503 249.256 367.282C249.304 367.237 249.347 367.205 249.385 367.187C249.424 367.15 249.458 367.118 249.487 367.09C249.535 367.063 249.568 367.04 249.587 367.022L250.773 368.268ZM250.69 362.164C250.91 362.396 251.016 362.672 251.009 362.992C251.001 363.313 250.881 363.583 250.649 363.804C250.417 364.024 250.141 364.131 249.82 364.123C249.5 364.115 249.229 363.995 249.009 363.763C248.788 363.531 248.682 363.255 248.69 362.935C248.698 362.614 248.818 362.344 249.05 362.123C249.282 361.902 249.558 361.796 249.878 361.804C250.199 361.812 250.469 361.932 250.69 362.164ZM252.457 364.457L259.157 371.499L257.911 372.685L251.211 365.643L252.457 364.457ZM253.073 357.964L262.723 368.107L261.477 369.293L251.827 359.149L253.073 357.964Z" fill="#122E81"/>
<path opacity="0.1" d="M382.871 411.722C382.194 412.366 381.472 412.786 380.703 412.984C379.925 413.172 379.142 413.19 378.353 413.039C377.575 412.878 376.809 412.566 376.057 412.104C375.304 411.642 374.611 411.078 373.977 410.411C373.333 409.735 372.8 409.01 372.376 408.235C371.952 407.461 371.679 406.681 371.557 405.895C371.445 405.1 371.507 404.323 371.743 403.565C371.969 402.798 372.421 402.092 373.097 401.449C373.773 400.806 374.5 400.39 375.278 400.202C376.047 400.004 376.821 399.986 377.6 400.146C378.388 400.298 379.158 400.605 379.911 401.067C380.663 401.529 381.361 402.098 382.004 402.774C382.638 403.441 383.168 404.161 383.591 404.936C384.015 405.71 384.284 406.495 384.396 407.29C384.518 408.076 384.465 408.853 384.239 409.62C384.003 410.378 383.547 411.079 382.871 411.722ZM381.726 410.52C382.2 410.069 382.504 409.577 382.64 409.043C382.777 408.49 382.781 407.924 382.654 407.346C382.527 406.767 382.296 406.196 381.961 405.631C381.617 405.056 381.202 404.513 380.715 404.001C380.237 403.499 379.72 403.062 379.163 402.689C378.597 402.307 378.033 402.043 377.471 401.897C376.9 401.742 376.334 401.718 375.775 401.827C375.226 401.926 374.714 402.201 374.241 402.652C373.768 403.102 373.463 403.604 373.326 404.157C373.2 404.7 373.2 405.262 373.327 405.84C373.445 406.409 373.68 406.985 374.034 407.569C374.378 408.144 374.789 408.682 375.266 409.184C375.754 409.696 376.275 410.139 376.832 410.511C377.379 410.873 377.939 411.133 378.51 411.288C379.082 411.444 379.642 411.472 380.191 411.373C380.741 411.254 381.253 410.97 381.726 410.52ZM381.936 393.04C382.342 392.654 382.788 392.349 383.274 392.125C383.761 391.901 384.255 391.772 384.755 391.738C385.247 391.693 385.731 391.757 386.208 391.929C386.675 392.092 387.097 392.371 387.474 392.767C387.731 393.038 387.932 393.326 388.075 393.631C388.218 393.937 388.31 394.245 388.349 394.558C388.388 394.87 388.385 395.176 388.34 395.477C388.286 395.768 388.199 396.034 388.08 396.277C388.356 396.161 388.665 396.07 389.006 396.003C389.357 395.927 389.72 395.912 390.097 395.959C390.482 395.997 390.861 396.106 391.234 396.285C391.617 396.454 391.973 396.713 392.304 397.061C392.745 397.525 393.044 398.032 393.2 398.583C393.366 399.125 393.413 399.677 393.342 400.242C393.272 400.806 393.093 401.353 392.806 401.883C392.52 402.414 392.154 402.89 391.71 403.313C391.265 403.736 390.771 404.077 390.227 404.337C389.683 404.597 389.128 404.748 388.561 404.791C387.994 404.833 387.439 404.763 386.897 404.579C386.364 404.387 385.877 404.059 385.436 403.595C385.105 403.247 384.859 402.883 384.699 402.502C384.549 402.111 384.459 401.727 384.431 401.349C384.412 400.962 384.445 400.6 384.529 400.262C384.622 399.916 384.734 399.607 384.863 399.337C384.605 399.453 384.33 399.531 384.037 399.571C383.744 399.592 383.442 399.575 383.133 399.52C382.823 399.465 382.519 399.359 382.221 399.2C381.923 399.042 381.646 398.828 381.388 398.557C381.011 398.161 380.754 397.726 380.614 397.251C380.466 396.766 380.426 396.279 380.495 395.791C380.555 395.292 380.708 394.806 380.956 394.331C381.204 393.856 381.53 393.426 381.936 393.04ZM390.974 398.216C390.717 397.946 390.424 397.754 390.097 397.643C389.761 397.521 389.418 397.47 389.068 397.49C388.719 397.509 388.372 397.6 388.029 397.761C387.685 397.922 387.364 398.145 387.064 398.43C386.765 398.715 386.526 399.025 386.348 399.36C386.17 399.695 386.057 400.041 386.011 400.398C385.974 400.746 386.008 401.091 386.112 401.434C386.217 401.757 386.399 402.054 386.656 402.324C386.922 402.604 387.224 402.805 387.56 402.927C387.888 403.039 388.226 403.085 388.575 403.065C388.935 403.036 389.286 402.941 389.629 402.78C389.973 402.619 390.29 402.401 390.579 402.125C390.869 401.849 391.103 401.544 391.281 401.209C391.459 400.874 391.567 400.532 391.604 400.184C391.651 399.827 391.626 399.482 391.531 399.15C391.426 398.807 391.24 398.496 390.974 398.216ZM383.053 394.213C382.821 394.434 382.631 394.688 382.482 394.977C382.334 395.247 382.237 395.532 382.192 395.833C382.156 396.124 382.182 396.413 382.269 396.698C382.347 396.973 382.497 397.227 382.717 397.459C382.938 397.69 383.188 397.857 383.469 397.958C383.74 398.05 384.022 398.085 384.315 398.064C384.617 398.034 384.912 397.957 385.198 397.832C385.484 397.688 385.743 397.506 385.975 397.285C386.207 397.065 386.397 396.819 386.545 396.55C386.694 396.261 386.786 395.971 386.821 395.679C386.867 395.379 386.85 395.091 386.772 394.815C386.685 394.53 386.531 394.272 386.311 394.04C386.09 393.808 385.844 393.646 385.573 393.555C385.293 393.453 385.001 393.418 384.699 393.448C384.406 393.469 384.116 393.551 383.829 393.695C383.543 393.82 383.284 393.993 383.053 394.213ZM394.846 380.703L408.669 386.876L407.306 388.171L403.32 386.36L399.016 390.455L400.627 394.526L399.293 395.795L393.831 381.668L394.846 380.703ZM398.363 388.84L401.74 385.628L396.033 383.024L398.363 388.84ZM412.868 388.623L403.301 378.567L404.532 377.395L405.594 378.511C405.477 377.885 405.531 377.245 405.755 376.591C405.978 375.936 406.351 375.361 406.873 374.864C407.375 374.386 407.931 374.042 408.54 373.831C409.149 373.601 409.769 373.498 410.4 373.523C411.032 373.549 411.65 373.706 412.256 373.994C412.862 374.264 413.414 374.66 413.91 375.181C414.406 375.703 414.774 376.273 415.013 376.892C415.262 377.502 415.388 378.128 415.391 378.769C415.384 379.401 415.256 380.02 415.005 380.627C414.755 381.215 414.378 381.747 413.876 382.225C413.354 382.722 412.77 383.075 412.124 383.285C411.487 383.486 410.854 383.518 410.226 383.379L414.099 387.451L412.868 388.623ZM412.649 376.381C412.309 376.023 411.929 375.75 411.51 375.56C411.1 375.361 410.678 375.256 410.244 375.245C409.811 375.216 409.385 375.281 408.966 375.44C408.548 375.58 408.165 375.816 407.817 376.147C407.469 376.478 407.21 376.853 407.039 377.273C406.869 377.675 406.783 378.097 406.781 378.54C406.78 378.965 406.864 379.391 407.032 379.82C407.21 380.239 407.47 380.627 407.81 380.985C408.15 381.342 408.525 381.62 408.935 381.819C409.354 382.009 409.781 382.119 410.214 382.148C410.647 382.159 411.073 382.094 411.492 381.954C411.911 381.794 412.294 381.549 412.642 381.218C412.99 380.888 413.249 380.522 413.419 380.12C413.59 379.7 413.676 379.278 413.677 378.853C413.679 378.41 413.59 377.979 413.412 377.56C413.244 377.131 412.989 376.738 412.649 376.381ZM417.154 367.595C417.135 367.613 417.101 367.636 417.054 367.663C417.025 367.691 416.986 367.728 416.938 367.774C416.88 367.81 416.827 367.851 416.779 367.897C416.122 368.522 415.83 369.25 415.904 370.082C415.987 370.904 416.392 371.697 417.118 372.46L420.302 375.808L419.071 376.979L412.371 369.937L413.588 368.779L414.774 370.025C414.658 369.749 414.594 369.46 414.583 369.158C414.572 368.837 414.608 368.527 414.691 368.227C414.774 367.927 414.895 367.638 415.052 367.359C415.21 367.08 415.405 366.83 415.637 366.609C415.685 366.563 415.728 366.531 415.767 366.514C415.805 366.477 415.839 366.445 415.868 366.417C415.916 366.39 415.949 366.367 415.969 366.349L417.154 367.595ZM417.071 361.491C417.292 361.723 417.398 361.999 417.39 362.319C417.382 362.64 417.262 362.91 417.03 363.131C416.798 363.351 416.522 363.458 416.202 363.45C415.881 363.442 415.611 363.322 415.39 363.09C415.17 362.858 415.063 362.582 415.071 362.261C415.079 361.941 415.199 361.67 415.431 361.45C415.663 361.229 415.939 361.123 416.259 361.131C416.58 361.139 416.85 361.259 417.071 361.491ZM418.839 363.784L425.538 370.826L424.292 372.012L417.593 364.97L418.839 363.784ZM419.455 357.291L429.104 367.434L427.858 368.619L418.208 358.476L419.455 357.291Z" fill="#122E81"/>
<path opacity="0.1" d="M106.747 411.722C106.071 412.366 105.349 412.786 104.58 412.984C103.802 413.172 103.018 413.19 102.23 413.039C101.451 412.878 100.686 412.566 99.9333 412.104C99.1809 411.642 98.4876 411.078 97.8535 410.411C97.2102 409.735 96.6766 409.01 96.2526 408.235C95.8287 407.461 95.5557 406.681 95.4339 405.895C95.3217 405.1 95.3834 404.323 95.6193 403.565C95.8459 402.798 96.2973 402.092 96.9735 401.449C97.6497 400.806 98.3768 400.39 99.1549 400.202C99.9237 400.004 100.698 399.986 101.476 400.146C102.265 400.298 103.035 400.605 103.787 401.067C104.54 401.529 105.238 402.098 105.881 402.774C106.515 403.441 107.044 404.161 107.468 404.936C107.892 405.71 108.16 406.495 108.272 407.29C108.394 408.076 108.342 408.853 108.115 409.62C107.88 410.378 107.424 411.079 106.747 411.722ZM105.603 410.52C106.076 410.069 106.381 409.577 106.517 409.043C106.653 408.49 106.658 407.924 106.531 407.346C106.404 406.767 106.173 406.196 105.838 405.631C105.494 405.056 105.079 404.513 104.591 404.001C104.114 403.499 103.596 403.062 103.04 402.689C102.474 402.307 101.91 402.043 101.348 401.897C100.776 401.742 100.211 401.718 99.6519 401.827C99.1024 401.926 98.591 402.201 98.1177 402.652C97.6443 403.102 97.3395 403.604 97.2031 404.157C97.0764 404.7 97.0765 405.262 97.2036 405.84C97.3214 406.409 97.557 406.985 97.9102 407.569C98.2543 408.144 98.6652 408.682 99.1431 409.184C99.6302 409.696 100.152 410.139 100.709 410.511C101.256 410.873 101.815 411.133 102.387 411.288C102.958 411.444 103.519 411.472 104.068 411.373C104.618 411.254 105.13 410.97 105.603 410.52ZM113.408 403.095C113.717 402.8 113.961 402.486 114.139 402.151C114.327 401.807 114.443 401.465 114.49 401.127C114.536 400.77 114.507 400.429 114.402 400.106C114.297 399.764 114.116 399.458 113.859 399.187C113.611 398.926 113.323 398.74 112.996 398.628C112.678 398.507 112.349 398.461 112.009 398.49C111.669 398.52 111.327 398.615 110.983 398.776C110.64 398.937 110.318 399.16 110.019 399.445L109.077 400.341L107.974 399.182L108.916 398.286C109.148 398.065 109.328 397.82 109.458 397.55C109.588 397.261 109.666 396.965 109.692 396.664C109.718 396.363 109.693 396.075 109.615 395.799C109.527 395.514 109.387 395.27 109.194 395.067C108.983 394.845 108.737 394.684 108.457 394.582C108.186 394.472 107.904 394.427 107.611 394.448C107.309 394.459 107.01 394.532 106.714 394.666C106.419 394.8 106.141 394.991 105.88 395.239C105.455 395.644 105.136 396.131 104.924 396.701C104.712 397.252 104.569 397.895 104.494 398.628L103.143 397.208C103.243 396.579 103.428 395.999 103.695 395.468C103.973 394.928 104.329 394.451 104.764 394.038C105.208 393.615 105.683 393.292 106.188 393.069C106.694 392.845 107.192 392.721 107.683 392.696C108.184 392.661 108.663 392.739 109.12 392.93C109.578 393.101 109.986 393.375 110.345 393.752C110.795 394.226 111.083 394.77 111.209 395.386C111.326 395.993 111.264 396.614 111.021 397.249C111.747 396.909 112.485 396.805 113.236 396.937C113.978 397.059 114.62 397.405 115.162 397.975C115.585 398.419 115.884 398.908 116.059 399.44C116.235 399.973 116.297 400.521 116.245 401.086C116.184 401.641 116.014 402.198 115.736 402.757C115.449 403.306 115.059 403.815 114.567 404.283C113.601 405.202 112.444 405.806 111.098 406.093L109.775 404.702C111.269 404.512 112.481 403.977 113.408 403.095ZM117.732 381.645L131.555 387.818L130.193 389.114L126.206 387.303L121.902 391.397L123.513 395.469L122.18 396.737L116.718 382.61L117.732 381.645ZM121.25 389.782L124.626 386.57L118.919 383.966L121.25 389.782ZM135.754 389.565L126.187 379.509L127.418 378.337L128.48 379.453C128.363 378.828 128.417 378.188 128.641 377.533C128.865 376.878 129.237 376.303 129.759 375.807C130.261 375.329 130.817 374.984 131.426 374.773C132.035 374.543 132.655 374.441 133.287 374.466C133.918 374.491 134.536 374.648 135.142 374.936C135.749 375.206 136.3 375.602 136.796 376.124C137.292 376.645 137.66 377.216 137.899 377.835C138.148 378.444 138.274 379.07 138.277 379.711C138.271 380.343 138.142 380.962 137.891 381.569C137.641 382.157 137.264 382.69 136.762 383.168C136.24 383.664 135.656 384.017 135.01 384.227C134.373 384.428 133.74 384.46 133.112 384.322L136.985 388.393L135.754 389.565ZM135.535 377.323C135.195 376.965 134.816 376.692 134.396 376.502C133.986 376.303 133.564 376.199 133.131 376.188C132.697 376.158 132.271 376.223 131.853 376.382C131.434 376.523 131.051 376.758 130.703 377.089C130.355 377.42 130.096 377.796 129.925 378.216C129.755 378.617 129.669 379.039 129.667 379.482C129.666 379.907 129.75 380.333 129.918 380.762C130.097 381.181 130.356 381.57 130.696 381.927C131.036 382.285 131.411 382.563 131.821 382.762C132.24 382.951 132.667 383.061 133.1 383.091C133.534 383.101 133.96 383.037 134.378 382.896C134.797 382.737 135.18 382.492 135.528 382.161C135.876 381.83 136.135 381.464 136.305 381.063C136.476 380.642 136.562 380.22 136.563 379.796C136.565 379.353 136.476 378.921 136.298 378.502C136.13 378.073 135.875 377.68 135.535 377.323ZM140.041 368.537C140.021 368.556 139.988 368.578 139.94 368.606C139.911 368.633 139.872 368.67 139.824 368.716C139.766 368.752 139.713 368.793 139.665 368.839C139.008 369.464 138.717 370.193 138.79 371.024C138.873 371.847 139.278 372.64 140.004 373.403L143.189 376.75L141.957 377.922L135.257 370.88L136.474 369.722L137.66 370.968C137.544 370.691 137.481 370.402 137.469 370.1C137.458 369.779 137.495 369.469 137.577 369.169C137.66 368.869 137.781 368.58 137.939 368.301C138.096 368.022 138.291 367.772 138.523 367.552C138.571 367.506 138.615 367.474 138.653 367.456C138.691 367.419 138.725 367.387 138.754 367.359C138.802 367.332 138.836 367.31 138.855 367.291L140.041 368.537ZM139.957 362.433C140.178 362.665 140.284 362.941 140.276 363.262C140.268 363.582 140.148 363.853 139.916 364.073C139.684 364.294 139.408 364.4 139.088 364.392C138.767 364.384 138.497 364.264 138.276 364.032C138.056 363.8 137.949 363.524 137.957 363.204C137.965 362.883 138.085 362.613 138.317 362.392C138.549 362.172 138.825 362.065 139.146 362.073C139.466 362.081 139.737 362.201 139.957 362.433ZM141.725 364.727L148.425 371.769L147.178 372.954L140.479 365.912L141.725 364.727ZM142.341 358.233L151.991 368.376L150.744 369.562L141.095 359.419L142.341 358.233Z" fill="#122E81"/>
<path opacity="0.1" d="M272.421 411.722C271.745 412.366 271.023 412.786 270.254 412.984C269.476 413.172 268.693 413.19 267.904 413.039C267.125 412.878 266.36 412.566 265.607 412.104C264.855 411.642 264.162 411.078 263.528 410.411C262.884 409.735 262.351 409.01 261.927 408.235C261.503 407.461 261.23 406.681 261.108 405.895C260.996 405.1 261.058 404.323 261.293 403.565C261.52 402.798 261.971 402.092 262.648 401.449C263.324 400.806 264.051 400.39 264.829 400.202C265.598 400.004 266.372 399.986 267.15 400.146C267.939 400.298 268.709 400.605 269.462 401.067C270.214 401.529 270.912 402.098 271.555 402.774C272.189 403.441 272.718 404.161 273.142 404.936C273.566 405.71 273.834 406.495 273.947 407.29C274.068 408.076 274.016 408.853 273.789 409.62C273.554 410.378 273.098 411.079 272.421 411.722ZM271.277 410.52C271.751 410.069 272.055 409.577 272.191 409.043C272.327 408.49 272.332 407.924 272.205 407.346C272.078 406.767 271.847 406.196 271.512 405.631C271.168 405.056 270.753 404.513 270.266 404.001C269.788 403.499 269.27 403.062 268.714 402.689C268.148 402.307 267.584 402.043 267.022 401.897C266.45 401.742 265.885 401.718 265.326 401.827C264.777 401.926 264.265 402.201 263.792 402.652C263.318 403.102 263.014 403.604 262.877 404.157C262.75 404.7 262.751 405.262 262.878 405.84C262.995 406.409 263.231 406.985 263.584 407.569C263.928 408.144 264.339 408.682 264.817 409.184C265.304 409.696 265.826 410.139 266.383 410.511C266.93 410.873 267.489 411.133 268.061 411.288C268.632 411.444 269.193 411.472 269.742 411.373C270.292 411.254 270.804 410.97 271.277 410.52ZM281.78 396.111C282.248 396.604 282.598 397.155 282.828 397.764C283.049 398.364 283.146 398.979 283.121 399.611C283.097 400.223 282.949 400.832 282.68 401.439C282.419 402.036 282.038 402.573 281.536 403.051C281.014 403.547 280.449 403.92 279.839 404.169C279.229 404.399 278.614 404.506 277.992 404.491C277.37 404.475 276.765 404.342 276.177 404.092C275.58 403.832 275.042 403.45 274.564 402.948C274.16 402.523 273.815 401.996 273.529 401.366C273.243 400.718 273.013 399.896 272.84 398.902L271.798 393.047L273.334 391.586L274.29 397.495C274.334 397.251 274.43 396.994 274.578 396.724C274.726 396.454 274.935 396.191 275.206 395.933C275.689 395.474 276.221 395.143 276.801 394.94C277.382 394.719 277.969 394.621 278.562 394.645C279.147 394.659 279.719 394.796 280.278 395.055C280.838 395.296 281.339 395.648 281.78 396.111ZM280.545 397.396C280.233 397.068 279.885 396.828 279.502 396.677C279.12 396.507 278.726 396.422 278.32 396.421C277.924 396.411 277.531 396.482 277.141 396.632C276.75 396.783 276.396 397.01 276.077 397.313C275.748 397.626 275.499 397.973 275.329 398.355C275.16 398.738 275.065 399.132 275.045 399.537C275.036 399.933 275.101 400.33 275.242 400.73C275.383 401.111 275.606 401.46 275.909 401.779C276.212 402.098 276.555 402.342 276.938 402.512C277.311 402.672 277.695 402.757 278.091 402.767C278.497 402.768 278.899 402.698 279.299 402.557C279.689 402.406 280.049 402.175 280.377 401.862C280.696 401.559 280.94 401.216 281.11 400.834C281.281 400.432 281.371 400.034 281.38 399.638C281.4 399.233 281.339 398.84 281.198 398.459C281.057 398.06 280.839 397.705 280.545 397.396ZM284.849 380.272L298.672 386.445L297.31 387.741L293.323 385.93L289.02 390.024L290.63 394.096L289.297 395.364L283.835 381.237L284.849 380.272ZM288.367 388.409L291.743 385.197L286.036 382.593L288.367 388.409ZM302.871 388.192L293.304 378.136L294.536 376.964L295.597 378.08C295.481 377.454 295.534 376.814 295.758 376.16C295.982 375.505 296.355 374.93 296.876 374.434C297.379 373.956 297.934 373.611 298.543 373.4C299.153 373.17 299.773 373.068 300.404 373.093C301.035 373.118 301.654 373.275 302.26 373.563C302.866 373.833 303.417 374.229 303.914 374.75C304.41 375.272 304.778 375.842 305.017 376.461C305.266 377.071 305.391 377.697 305.394 378.338C305.388 378.97 305.259 379.589 305.009 380.196C304.758 380.784 304.382 381.317 303.879 381.795C303.358 382.291 302.774 382.644 302.127 382.854C301.49 383.055 300.858 383.087 300.229 382.948L304.103 387.02L302.871 388.192ZM302.653 375.95C302.313 375.592 301.933 375.319 301.513 375.129C301.103 374.93 300.682 374.825 300.248 374.815C299.815 374.785 299.389 374.85 298.97 375.009C298.551 375.15 298.168 375.385 297.821 375.716C297.473 376.047 297.214 376.422 297.043 376.843C296.872 377.244 296.786 377.666 296.785 378.109C296.784 378.534 296.867 378.96 297.036 379.389C297.214 379.808 297.473 380.197 297.813 380.554C298.153 380.911 298.528 381.19 298.938 381.388C299.358 381.578 299.784 381.688 300.217 381.717C300.651 381.728 301.077 381.663 301.495 381.523C301.914 381.364 302.298 381.119 302.645 380.788C302.993 380.457 303.252 380.091 303.423 379.689C303.593 379.269 303.679 378.847 303.681 378.423C303.682 377.979 303.594 377.548 303.416 377.129C303.247 376.7 302.993 376.307 302.653 375.95ZM307.158 367.164C307.139 367.183 307.105 367.205 307.057 367.232C307.028 367.26 306.99 367.297 306.941 367.343C306.884 367.379 306.831 367.42 306.783 367.466C306.126 368.091 305.834 368.819 305.908 369.651C305.991 370.474 306.396 371.267 307.122 372.03L310.306 375.377L309.074 376.549L302.375 369.506L303.592 368.348L304.777 369.595C304.662 369.318 304.598 369.029 304.587 368.727C304.576 368.406 304.612 368.096 304.695 367.796C304.778 367.496 304.898 367.207 305.056 366.928C305.214 366.649 305.409 366.399 305.641 366.179C305.689 366.133 305.732 366.101 305.77 366.083C305.809 366.046 305.843 366.014 305.872 365.986C305.92 365.959 305.953 365.936 305.972 365.918L307.158 367.164ZM307.075 361.06C307.295 361.292 307.401 361.568 307.393 361.888C307.385 362.209 307.266 362.479 307.034 362.7C306.802 362.921 306.526 363.027 306.205 363.019C305.885 363.011 305.614 362.891 305.394 362.659C305.173 362.427 305.067 362.151 305.075 361.831C305.083 361.51 305.203 361.24 305.435 361.019C305.666 360.799 305.943 360.692 306.263 360.7C306.584 360.708 306.854 360.828 307.075 361.06ZM308.842 363.353L315.542 370.396L314.296 371.581L307.596 364.539L308.842 363.353ZM309.458 356.86L319.108 367.003L317.862 368.189L308.212 358.046L309.458 356.86Z" fill="#122E81"/>
<path opacity="0.1" d="M490.691 413.92L482.585 405.4L481.491 407.848L480.251 406.544L481.452 403.745L482.495 402.752L491.966 412.707L490.691 413.92ZM498.259 407.024C497.583 407.667 496.86 408.088 496.091 408.286C495.313 408.474 494.53 408.492 493.742 408.34C492.963 408.179 492.197 407.868 491.445 407.406C490.692 406.944 489.999 406.38 489.365 405.713C488.722 405.037 488.188 404.312 487.764 403.537C487.34 402.763 487.067 401.982 486.945 401.197C486.833 400.402 486.895 399.625 487.131 398.867C487.357 398.099 487.809 397.394 488.485 396.751C489.161 396.107 489.888 395.692 490.666 395.503C491.435 395.306 492.209 395.287 492.988 395.448C493.776 395.6 494.547 395.907 495.299 396.369C496.051 396.831 496.749 397.4 497.393 398.076C498.027 398.743 498.556 399.463 498.98 400.238C499.404 401.012 499.672 401.797 499.784 402.592C499.906 403.378 499.853 404.154 499.627 404.922C499.391 405.68 498.935 406.381 498.259 407.024ZM497.115 405.821C497.588 405.371 497.893 404.879 498.029 404.345C498.165 403.792 498.17 403.226 498.043 402.647C497.916 402.069 497.685 401.497 497.35 400.933C497.006 400.358 496.59 399.815 496.103 399.303C495.625 398.801 495.108 398.363 494.551 397.991C493.985 397.609 493.422 397.345 492.859 397.199C492.288 397.043 491.723 397.02 491.163 397.129C490.614 397.228 490.103 397.503 489.629 397.953C489.156 398.404 488.851 398.905 488.715 399.458C488.588 400.002 488.588 400.563 488.715 401.142C488.833 401.71 489.069 402.287 489.422 402.871C489.766 403.445 490.177 403.984 490.655 404.486C491.142 404.998 491.664 405.44 492.22 405.813C492.768 406.175 493.327 406.434 493.898 406.59C494.47 406.746 495.03 406.774 495.58 406.674C496.13 406.556 496.641 406.272 497.115 405.821ZM502.211 383.637L516.033 389.81L514.671 391.106L510.685 389.295L506.381 393.389L507.991 397.461L506.658 398.729L501.196 384.602L502.211 383.637ZM505.728 391.775L509.104 388.563L503.398 385.959L505.728 391.775ZM520.232 391.557L510.665 381.501L511.897 380.33L512.959 381.445C512.842 380.82 512.896 380.18 513.12 379.525C513.343 378.871 513.716 378.295 514.238 377.799C514.74 377.321 515.296 376.977 515.905 376.766C516.514 376.535 517.134 376.433 517.765 376.458C518.397 376.483 519.015 376.64 519.621 376.929C520.227 377.199 520.779 377.594 521.275 378.116C521.771 378.638 522.139 379.208 522.378 379.827C522.627 380.437 522.753 381.062 522.756 381.704C522.749 382.335 522.621 382.955 522.37 383.561C522.119 384.149 521.743 384.682 521.241 385.16C520.719 385.656 520.135 386.01 519.488 386.22C518.852 386.421 518.219 386.452 517.59 386.314L521.464 390.386L520.232 391.557ZM520.014 379.315C519.674 378.958 519.294 378.684 518.875 378.495C518.465 378.296 518.043 378.191 517.609 378.18C517.176 378.151 516.75 378.215 516.331 378.375C515.913 378.515 515.53 378.751 515.182 379.082C514.834 379.413 514.575 379.788 514.404 380.208C514.234 380.609 514.148 381.032 514.146 381.475C514.145 381.899 514.229 382.326 514.397 382.754C514.575 383.174 514.834 383.562 515.174 383.92C515.514 384.277 515.89 384.555 516.3 384.754C516.719 384.944 517.146 385.053 517.579 385.083C518.012 385.094 518.438 385.029 518.857 384.888C519.276 384.729 519.659 384.484 520.007 384.153C520.355 383.822 520.614 383.456 520.784 383.055C520.955 382.635 521.041 382.213 521.042 381.788C521.043 381.345 520.955 380.914 520.777 380.494C520.608 380.066 520.354 379.673 520.014 379.315ZM524.519 370.53C524.5 370.548 524.466 370.571 524.419 370.598C524.39 370.626 524.351 370.662 524.303 370.708C524.245 370.745 524.192 370.786 524.144 370.832C523.487 371.457 523.195 372.185 523.269 373.017C523.352 373.839 523.757 374.632 524.483 375.395L527.667 378.742L526.436 379.914L519.736 372.872L520.953 371.714L522.139 372.96C522.023 372.684 521.959 372.395 521.948 372.093C521.937 371.772 521.973 371.461 522.056 371.162C522.139 370.862 522.259 370.572 522.417 370.293C522.575 370.014 522.77 369.765 523.002 369.544C523.05 369.498 523.093 369.466 523.132 369.448C523.17 369.412 523.204 369.379 523.233 369.352C523.281 369.325 523.314 369.302 523.334 369.284L524.519 370.53ZM524.436 364.426C524.656 364.657 524.763 364.934 524.755 365.254C524.747 365.574 524.627 365.845 524.395 366.066C524.163 366.286 523.887 366.392 523.567 366.384C523.246 366.376 522.976 366.256 522.755 366.025C522.534 365.793 522.428 365.517 522.436 365.196C522.444 364.876 522.564 364.605 522.796 364.385C523.028 364.164 523.304 364.058 523.624 364.066C523.945 364.074 524.215 364.194 524.436 364.426ZM526.204 366.719L532.903 373.761L531.657 374.947L524.957 367.904L526.204 366.719ZM526.819 360.226L536.469 370.369L535.223 371.554L525.573 361.411L526.819 360.226Z" fill="#122E81"/>
<path opacity="0.1" d="M438.096 411.722C437.419 412.366 436.697 412.786 435.928 412.984C435.15 413.172 434.367 413.19 433.578 413.039C432.8 412.878 432.034 412.566 431.282 412.104C430.529 411.642 429.836 411.078 429.202 410.411C428.559 409.735 428.025 409.01 427.601 408.235C427.177 407.461 426.904 406.681 426.782 405.895C426.67 405.1 426.732 404.323 426.968 403.565C427.194 402.798 427.646 402.092 428.322 401.449C428.998 400.806 429.725 400.39 430.503 400.202C431.272 400.004 432.046 399.986 432.825 400.146C433.613 400.298 434.383 400.605 435.136 401.067C435.888 401.529 436.586 402.098 437.229 402.774C437.864 403.441 438.393 404.161 438.817 404.936C439.241 405.71 439.509 406.495 439.621 407.29C439.743 408.076 439.69 408.853 439.464 409.62C439.228 410.378 438.772 411.079 438.096 411.722ZM436.952 410.52C437.425 410.069 437.729 409.577 437.865 409.043C438.002 408.49 438.006 407.924 437.879 407.346C437.752 406.767 437.521 406.196 437.187 405.631C436.842 405.056 436.427 404.513 435.94 404.001C435.462 403.499 434.945 403.062 434.388 402.689C433.822 402.307 433.258 402.043 432.696 401.897C432.125 401.742 431.559 401.718 431 401.827C430.451 401.926 429.939 402.201 429.466 402.652C428.993 403.102 428.688 403.604 428.551 404.157C428.425 404.7 428.425 405.262 428.552 405.84C428.67 406.409 428.905 406.985 429.259 407.569C429.603 408.144 430.014 408.682 430.492 409.184C430.979 409.696 431.5 410.139 432.057 410.511C432.604 410.873 433.164 411.133 433.735 411.288C434.307 411.444 434.867 411.472 435.417 411.373C435.967 411.254 436.478 410.97 436.952 410.52ZM437.091 399.814C436.623 399.321 436.278 398.775 436.057 398.176C435.827 397.566 435.724 396.955 435.749 396.343C435.774 395.712 435.917 395.098 436.177 394.5C436.447 393.894 436.833 393.352 437.335 392.874C437.857 392.378 438.422 392.015 439.031 391.785C439.641 391.536 440.257 391.419 440.879 391.435C441.501 391.45 442.111 391.588 442.708 391.848C443.296 392.099 443.829 392.475 444.307 392.977C444.711 393.402 445.056 393.939 445.342 394.587C445.628 395.217 445.857 396.029 446.031 397.024L447.073 402.878L445.537 404.339L444.564 398.557C444.501 398.782 444.401 399.015 444.263 399.257C444.116 399.489 443.912 399.729 443.651 399.978C443.168 400.437 442.636 400.777 442.055 400.999C441.484 401.211 440.907 401.31 440.322 401.295C439.729 401.271 439.152 401.139 438.592 400.898C438.033 400.639 437.532 400.278 437.091 399.814ZM438.326 398.529C438.638 398.858 438.986 399.107 439.368 399.277C439.751 399.428 440.14 399.508 440.536 399.518C440.942 399.519 441.34 399.444 441.73 399.293C442.121 399.142 442.475 398.916 442.794 398.612C443.122 398.3 443.372 397.952 443.541 397.57C443.711 397.187 443.801 396.798 443.811 396.402C443.831 395.997 443.77 395.605 443.628 395.224C443.487 394.824 443.265 394.465 442.962 394.146C442.659 393.827 442.32 393.588 441.947 393.428C441.565 393.258 441.171 393.173 440.765 393.172C440.369 393.162 439.976 393.232 439.586 393.383C439.186 393.524 438.822 393.751 438.494 394.063C438.175 394.366 437.93 394.719 437.76 395.12C437.59 395.502 437.495 395.896 437.476 396.301C437.466 396.697 437.532 397.095 437.673 397.494C437.814 397.875 438.032 398.22 438.326 398.529ZM450.524 380.272L464.346 386.445L462.984 387.741L458.998 385.93L454.694 390.024L456.304 394.096L454.971 395.364L449.509 381.237L450.524 380.272ZM454.041 388.409L457.417 385.197L451.711 382.593L454.041 388.409ZM468.545 388.192L458.978 378.136L460.21 376.964L461.272 378.08C461.155 377.454 461.209 376.814 461.433 376.16C461.656 375.505 462.029 374.93 462.551 374.434C463.053 373.956 463.609 373.611 464.218 373.4C464.827 373.17 465.447 373.068 466.078 373.093C466.71 373.118 467.328 373.275 467.934 373.563C468.54 373.833 469.092 374.229 469.588 374.75C470.084 375.272 470.452 375.842 470.691 376.461C470.94 377.071 471.066 377.697 471.069 378.338C471.062 378.97 470.934 379.589 470.683 380.196C470.432 380.784 470.056 381.317 469.554 381.795C469.032 382.291 468.448 382.644 467.801 382.854C467.165 383.055 466.532 383.087 465.903 382.948L469.777 387.02L468.545 388.192ZM468.327 375.95C467.987 375.592 467.607 375.319 467.188 375.129C466.778 374.93 466.356 374.825 465.922 374.815C465.489 374.785 465.063 374.85 464.644 375.009C464.226 375.15 463.843 375.385 463.495 375.716C463.147 376.047 462.888 376.422 462.717 376.843C462.547 377.244 462.461 377.666 462.459 378.109C462.458 378.534 462.542 378.96 462.71 379.389C462.888 379.808 463.147 380.197 463.487 380.554C463.828 380.911 464.203 381.19 464.613 381.388C465.032 381.578 465.459 381.688 465.892 381.717C466.325 381.728 466.751 381.663 467.17 381.523C467.589 381.364 467.972 381.119 468.32 380.788C468.668 380.457 468.927 380.091 469.097 379.689C469.268 379.269 469.354 378.847 469.355 378.423C469.356 377.979 469.268 377.548 469.09 377.129C468.922 376.7 468.667 376.307 468.327 375.95ZM472.832 367.164C472.813 367.183 472.779 367.205 472.732 367.232C472.703 367.26 472.664 367.297 472.616 367.343C472.558 367.379 472.505 367.42 472.457 367.466C471.8 368.091 471.508 368.819 471.582 369.651C471.665 370.474 472.07 371.267 472.796 372.03L475.98 375.377L474.749 376.549L468.049 369.506L469.266 368.348L470.452 369.595C470.336 369.318 470.272 369.029 470.261 368.727C470.25 368.406 470.286 368.096 470.369 367.796C470.452 367.496 470.572 367.207 470.73 366.928C470.888 366.649 471.083 366.399 471.315 366.179C471.363 366.133 471.406 366.101 471.445 366.083C471.483 366.046 471.517 366.014 471.546 365.986C471.594 365.959 471.627 365.936 471.647 365.918L472.832 367.164ZM472.749 361.06C472.969 361.292 473.076 361.568 473.068 361.888C473.06 362.209 472.94 362.479 472.708 362.7C472.476 362.921 472.2 363.027 471.88 363.019C471.559 363.011 471.289 362.891 471.068 362.659C470.847 362.427 470.741 362.151 470.749 361.831C470.757 361.51 470.877 361.24 471.109 361.019C471.341 360.799 471.617 360.692 471.937 360.7C472.258 360.708 472.528 360.828 472.749 361.06ZM474.517 363.353L481.216 370.396L479.97 371.581L473.27 364.539L474.517 363.353ZM475.133 356.86L484.782 367.003L483.536 368.189L473.886 358.046L475.133 356.86Z" fill="#122E81"/>
</g>
<defs>
<filter id="filter0_d_998_2101" x="-89.2199" y="8.9751" width="749.607" height="355.799" filterUnits="userSpaceOnUse" color-interpolation-filters="sRGB">
<feFlood flood-opacity="0" result="BackgroundImageFix"/>
<feColorMatrix in="SourceAlpha" type="matrix" values="0 0 0 0 0 0 0 0 0 0 0 0 0 0 0 0 0 0 127 0" result="hardAlpha"/>
<feOffset dy="37.2285"/>
<feGaussianBlur stdDeviation="23.2678"/>
<feColorMatrix type="matrix" values="0 0 0 0 0.206474 0 0 0 0 0.181875 0 0 0 0 0.45 0 0 0 0.35 0"/>
<feBlend mode="normal" in2="BackgroundImageFix" result="effect1_dropShadow_998_2101"/>
<feBlend mode="normal" in="SourceGraphic" in2="effect1_dropShadow_998_2101" result="shape"/>
</filter>
<linearGradient id="paint0_linear_998_2101" x1="100.133" y1="368.361" x2="623.253" y2="194.771" gradientUnits="userSpaceOnUse">
<stop stop-color="#517DFF"/>
<stop offset="1" stop-color="#B3C6FF"/>
</linearGradient>
</defs>
</svg>
