<svg width="404" height="150" viewBox="0 0 404 150" fill="none" xmlns="http://www.w3.org/2000/svg">
<path d="M331.641 57.6215C319.821 49.5936 308.977 45.7174 294.359 42.9631C276.227 39.5467 257.688 36.1581 239.218 34.5453C197.311 30.8861 155.51 29.2625 113.673 34.2969C78.3444 38.5482 35.8336 44.999 9.46308 67.413C-12.8064 86.3413 20.7519 109.074 39.8509 116.148C88.0329 133.995 143.213 143.704 195.263 146.971C223.177 148.723 252.791 147.674 280.239 142.935C300.023 139.518 320.751 134.9 336.437 123.466C363.358 103.842 325.228 81.427 305.146 73.934C260.754 57.3711 211.993 55.8621 164.641 60.2467" stroke="#6A8AE8" stroke-width="3" stroke-linecap="round"/>
<path d="M329.093 38.1349C333.086 26.3891 337.516 14.3554 342.958 3.4707" stroke="#6A8AE8" stroke-width="3" stroke-linecap="round"/>
<path d="M343.825 48.5336C357.216 37.2852 370.231 25.8785 384.074 15.1693C389.118 11.2677 394.123 7.39312 399.288 3.66269C400.171 3.02504 402.689 1.00123 401.888 2.60351" stroke="#6A8AE8" stroke-width="3" stroke-linecap="round"/>
<path d="M352.949 69.2199C359.73 66.9143 365.852 63.6748 372.773 61.8043C377.435 60.5443 382.975 58.1716 387.311 56.0039" stroke="#6A8AE8" stroke-width="3" stroke-linecap="round"/>
</svg>
