<svg width="55" height="64" viewBox="0 0 55 64" fill="none" xmlns="http://www.w3.org/2000/svg">
<g clip-path="url(#clip0_1342_1183)">
<path d="M5.46322 0C5.70108 0.128516 5.90477 0.312024 6.05734 0.535216C6.20991 0.758408 6.30695 1.01482 6.34035 1.28311C6.64107 3.17393 7.65478 4.52722 9.40777 5.31914C9.88392 5.53341 10.1759 5.91433 10.1846 6.43434C10.1951 6.67666 10.1302 6.91625 9.99895 7.12021C9.8677 7.32416 9.67647 7.48246 9.45161 7.57335C7.69736 8.38281 6.6611 9.73107 6.31902 11.647C6.15738 12.5679 5.78022 12.8875 5.09982 12.9C4.858 12.9167 4.61759 12.8516 4.41717 12.7153C4.21675 12.5789 4.06797 12.3792 3.99467 12.1482C3.91051 11.9133 3.84761 11.6713 3.80671 11.4252C3.46965 9.63333 2.44715 8.39033 0.811943 7.60844C-0.0513981 7.19493 -0.256877 6.31029 0.329543 5.66247C0.472252 5.51281 0.642414 5.392 0.830757 5.30661C2.49729 4.52221 3.51223 3.23284 3.81672 1.42221C3.91947 0.806966 4.18136 0.334566 4.70764 0.00627129L5.46322 0ZM5.08731 9.18475C5.5359 8.42541 5.9732 7.75128 6.58217 7.21373C6.86035 6.96312 7.3528 6.75386 7.37912 6.48822C7.41545 6.12358 6.86285 5.97824 6.58468 5.7151C5.98698 5.14623 5.5221 4.47836 5.0685 3.69396C4.57789 4.72431 3.82895 5.6101 2.8945 6.26517C2.73161 6.3817 2.65267 6.49197 2.87195 6.64108C3.82677 7.26885 4.5034 8.14598 5.09358 9.18475H5.08731Z" fill="#6C8BE4"/>
<path d="M3.69517 27.9838C3.94577 27.9951 4.10868 28.0089 4.27032 28.0089C8.37443 28.0089 12.4781 28.0089 16.5814 28.0089C16.9373 28.0089 17.2292 28.0389 16.9335 27.5302C14.7983 23.8605 12.6682 20.1849 10.543 16.5035C10.5242 16.4697 10.4829 16.4496 10.3851 16.3682C9.9566 17.1025 9.53431 17.8255 9.11078 18.5472C8.94689 18.8607 8.76229 19.1629 8.5582 19.4519C8.25622 19.8366 7.84773 19.9782 7.39789 19.7138C6.94805 19.4494 6.70622 19.0309 6.96936 18.5547C7.79637 17.0636 8.65428 15.5896 9.5431 14.1328C9.81125 13.698 10.3012 13.4925 10.835 13.4799C11.043 13.4799 11.2522 13.4724 11.4615 13.4724C21.9607 13.4724 32.4611 13.4849 42.9603 13.4536C44.1256 13.4536 44.8549 13.8659 45.4263 14.8708C47.9148 19.2564 50.4522 23.6019 52.9695 27.965C53.4056 28.7168 53.3379 29.3684 52.7527 30.0225C47.7974 35.5651 42.8404 41.106 37.8817 46.6452C34.8836 49.9984 31.8868 53.3527 28.8912 56.7084C28.7246 56.8951 28.5566 57.0843 28.3812 57.2584C27.6457 58.0002 26.741 58.0103 26.0293 57.2409C24.8163 55.9227 23.6322 54.5795 22.4393 53.2437C19.4588 49.9023 16.4786 46.5609 13.4989 43.2194C9.57273 38.8238 5.64656 34.4286 1.72038 30.0338C1.09386 29.3383 1.04 28.7557 1.48608 27.9813C2.56369 26.1026 3.64588 24.2276 4.73268 22.3564C4.91187 22.0469 5.09857 21.7412 5.4845 21.6585C5.65878 21.6176 5.84131 21.6296 6.00872 21.693C6.17613 21.7564 6.32081 21.8683 6.42428 22.0144C6.72125 22.3903 6.67488 22.7812 6.44557 23.1759C5.69375 24.4716 4.94193 25.7689 4.19011 27.0678C4.03849 27.356 3.89064 27.6417 3.69517 27.9838ZM27.2735 16.3419C27.1984 16.4207 27.1285 16.5044 27.0643 16.5925C24.9592 20.2321 22.8541 23.8722 20.749 27.5127C20.4884 27.9613 20.6437 28.0139 21.071 28.0139C23.6961 28.0026 26.3212 28.0139 28.9463 28.0139C29.6982 28.0139 30.1743 28.3898 30.1693 28.9649C30.1643 29.5401 29.7245 29.8872 28.9351 29.8872C26.226 29.8872 23.5178 29.8872 20.8104 29.8872C20.0849 29.8872 20.0911 29.8872 20.2904 30.5663C22.2284 37.1907 24.1656 43.8155 26.1019 50.4407C26.4478 51.6223 26.8037 52.7989 27.2034 54.1396C27.3111 53.8552 27.36 53.7462 27.3926 53.6384C29.6781 45.8813 31.9657 38.1242 34.2555 30.3671C34.3895 29.911 34.2216 29.8947 33.8657 29.8797C33.6529 29.8803 33.4476 29.8016 33.2897 29.6588C33.1319 29.5161 33.033 29.3196 33.0124 29.1078C32.9423 28.6554 33.1452 28.3058 33.575 28.0953C33.6903 28.0402 33.8733 28.0803 33.9297 27.8748L27.2735 16.3419ZM29.5691 52.9204L29.6944 52.9931L50.3695 29.8859C45.7332 29.8859 41.2524 29.8859 36.7753 29.8771C36.3305 29.8771 36.2904 30.1278 36.1989 30.4448C34.4447 36.4075 32.6875 42.3695 30.9274 48.3306C30.4713 49.8593 30.0185 51.3892 29.5691 52.9204ZM4.11745 29.8909L24.8226 53.0721C24.8325 52.9624 24.8325 52.8521 24.8226 52.7425C22.6381 45.2794 20.4566 37.816 18.278 30.352C18.1527 29.9235 17.9272 29.8771 17.5563 29.8784C14.3059 29.8872 11.0555 29.8784 7.80638 29.8784L4.11745 29.8909ZM37.2803 28.0114H50.1565C50.8105 28.0114 50.8156 28.0039 50.481 27.4225C48.8896 24.6658 47.297 21.9091 45.7032 19.1524C45.1669 18.2264 44.6281 17.3017 44.0454 16.2955L37.2803 28.0114ZM42.3789 15.4109C42.2848 15.3878 42.1894 15.3706 42.0932 15.3595C37.8654 15.3595 33.6377 15.3595 29.4099 15.3495C28.7897 15.3495 29.0203 15.6088 29.1857 15.8933C30.7161 18.5422 32.2452 21.1911 33.773 23.84C34.382 24.8938 34.9972 25.9426 35.6526 27.0653L42.3789 15.4109ZM12.0892 15.3908L18.8369 27.0729C21.046 23.2461 23.1811 19.5359 25.3276 15.8319C25.6296 15.3131 25.3012 15.3545 24.9604 15.3545C20.8204 15.3545 16.6804 15.3545 12.5404 15.3545C12.4213 15.3557 12.3035 15.3733 12.0892 15.3896V15.3908Z" fill="#6C8BE4"/>
<path d="M43.8625 50.6264C43.0881 52.7566 41.6885 54.2702 39.7751 55.4268C41.6885 56.5633 43.0668 58.0694 43.875 60.2447C44.6757 58.0569 46.0753 56.557 47.9549 55.4381C47.6191 55.1987 47.3159 55.0145 47.0515 54.7877C46.648 54.4419 46.5828 54.0084 46.8698 53.5598C47.1567 53.1112 47.658 53.021 48.1341 53.2853C48.6792 53.5886 49.2105 53.9119 49.7631 54.2101C50.2718 54.4795 50.5712 54.8867 50.5575 55.4518C50.5549 55.7045 50.479 55.951 50.3391 56.1614C50.1992 56.3718 50.0013 56.5371 49.7693 56.6372C49.1051 56.9376 48.4774 57.313 47.8985 57.7562C46.658 58.7586 45.8248 60.0116 45.4664 61.5779C45.3499 62.0792 45.2358 62.5929 45.0817 63.0816C44.9038 63.6567 44.5003 63.995 43.8838 63.9938C43.2673 63.9925 42.8638 63.6542 42.6721 63.0891C42.5417 62.6942 42.4375 62.2911 42.3601 61.8824C41.8802 59.4703 40.4342 57.8339 38.2752 56.7638C38.2013 56.7262 38.1261 56.6911 38.0509 56.6548C37.5209 56.3954 37.2039 55.9994 37.2114 55.3829C37.2176 54.7915 37.5284 54.4106 38.0409 54.1713C39.1085 53.67 40.0696 53.0322 40.8477 52.1313C41.7311 51.1076 42.1759 49.8896 42.4591 48.5927C42.522 48.2665 42.6087 47.9452 42.7185 47.6317C42.929 47.0841 43.345 46.8347 43.9402 46.8535C44.1944 46.8466 44.4436 46.925 44.648 47.0763C44.8524 47.2275 45.0003 47.4429 45.0679 47.6881C45.3185 48.4787 45.5152 49.2894 45.7057 50.0989C45.7705 50.3133 45.7508 50.5445 45.6506 50.7448C45.5504 50.9452 45.3773 51.0997 45.1669 51.1765C44.6206 51.4146 44.2008 51.1815 43.8625 50.6264Z" fill="#6C8BE4"/>
<path d="M54.9319 13.8872C54.8817 14.3784 54.6712 14.7431 54.2314 14.9398C53.0711 15.4611 52.4496 16.372 52.2127 17.6025C52.0724 18.333 51.6188 18.7302 51.0637 18.7102C50.5086 18.6901 50.1014 18.323 49.9661 17.6213C49.7292 16.3946 49.1303 15.4748 47.9612 14.9561C47.7539 14.8765 47.5757 14.7356 47.4504 14.5523C47.3251 14.369 47.2585 14.1519 47.2595 13.9298C47.2524 13.6983 47.3167 13.4701 47.4439 13.2764C47.571 13.0827 47.7547 12.9328 47.97 12.8472C49.1065 12.3385 49.7242 11.4476 49.9635 10.2384C50.1202 9.44899 50.4848 9.12696 51.0825 9.12069C51.6802 9.11443 52.0712 9.44648 52.2228 10.2158C52.4596 11.42 53.0535 12.326 54.1976 12.8359C54.4064 12.9245 54.586 13.07 54.7159 13.256C54.8458 13.4419 54.9206 13.6607 54.9319 13.8872ZM52.293 13.9749C52.1752 13.8271 52.12 13.7444 52.0524 13.673C51.8669 13.4787 51.6301 13.3159 51.4973 13.0916C51.1802 12.5565 50.956 12.6442 50.6615 13.1141C50.4811 13.4048 50.0274 13.6341 50.0249 13.8948C50.0224 14.1554 50.471 14.3872 50.6515 14.6742C50.9484 15.1378 51.1627 15.2342 51.5023 14.6954C51.6852 14.411 52.016 14.2281 52.293 13.9775V13.9749Z" fill="#6C8BE4"/>
</g>
<defs>
<clipPath id="clip0_1342_1183">
<rect width="54.9318" height="64" fill="white"/>
</clipPath>
</defs>
</svg>
