<svg width="64" height="64" viewBox="0 0 64 64" fill="none" xmlns="http://www.w3.org/2000/svg">
<g clip-path="url(#clip0_998_1248)">
<path d="M34.374 0C35.143 0.262597 35.9558 0.230087 36.7499 0.353883C45.0367 1.65562 51.7867 5.60583 57.0549 12.1082C57.6802 12.8873 57.6339 13.7051 56.9511 14.259C56.2934 14.793 55.4643 14.6617 54.8253 13.8714C52.2796 10.6634 49.0888 8.02561 45.4594 6.12852C43.8566 5.286 42.1745 4.6041 40.4375 4.09277C40.2649 4.04275 40.0624 3.88894 39.9173 4.04775C39.7923 4.18155 39.9436 4.35912 39.9923 4.50917C41.3829 8.84203 42.2232 13.2887 42.7584 17.7991C42.8697 18.7282 43.0085 19.656 43.0722 20.5889C43.1022 21.0803 43.2873 21.1641 43.7237 21.1141C46.3672 20.8077 49.0132 20.5114 51.6367 20.0449C51.8623 20.0051 52.0904 19.9809 52.3194 19.9724C53.136 19.9424 53.7499 20.4476 53.8475 21.2229C53.8824 21.5792 53.7805 21.9355 53.5625 22.2195C53.3444 22.5035 53.0266 22.6939 52.6733 22.7522C51.3841 22.9798 50.0898 23.1924 48.7969 23.3649C47.2129 23.575 45.6219 23.7571 44.0238 23.9114C43.5061 23.9614 43.3398 24.1189 43.3723 24.6679C43.4874 26.5586 43.5524 28.4518 43.6062 30.345C43.6312 31.2203 43.131 31.8118 42.3882 31.9006C41.4491 32.0144 40.7626 31.4004 40.7626 30.3838C40.7439 28.5081 40.6538 26.6324 40.5538 24.7667C40.53 24.3178 40.385 24.2152 39.9611 24.244C36.3647 24.4941 32.7634 24.5579 29.1608 24.4753C27.4552 24.4353 25.7495 24.3415 24.0452 24.2427C23.6188 24.219 23.475 24.3328 23.4487 24.7692C23.2099 28.6381 23.1899 32.5108 23.3237 36.3835C23.3699 37.7978 23.4825 39.2095 23.5287 40.6251C23.5487 41.234 23.7638 41.4841 24.404 41.4904C26.4861 41.5129 28.5668 41.5892 30.6476 41.6467C31.5229 41.6717 32.0932 42.0756 32.247 42.7721C32.4495 43.6887 31.7793 44.514 30.7802 44.4978C28.6769 44.4627 26.5736 44.419 24.4741 44.3089C23.9114 44.2789 23.8488 44.4252 23.9226 44.9029C24.2265 46.9037 24.5091 48.8944 24.7979 50.8901C24.923 51.7542 24.4403 52.4595 23.64 52.6008C22.8897 52.7333 22.177 52.2169 22.0144 51.3916C21.5855 49.1645 21.2841 46.9174 21.0566 44.6616C21.0053 44.1501 20.789 44.0513 20.3676 44.0238C17.9792 43.8663 15.6045 43.5799 13.2311 43.2736C10.5289 42.9209 7.84414 42.4683 5.17065 41.9493C5.00934 41.9181 4.81554 41.8043 4.6955 41.9281C4.53544 42.0919 4.72175 42.2769 4.78302 42.437C6.5053 46.9524 9.33257 50.9637 13.0061 54.1038C13.2274 54.2939 13.4537 54.479 13.6601 54.684C14.2465 55.2592 14.2965 56.0595 13.7951 56.6485C13.5565 56.9309 13.2161 57.1078 12.8478 57.1409C12.4796 57.1739 12.1132 57.0603 11.8281 56.8248C10.8621 56.0645 9.9508 55.2371 9.10088 54.3489C4.47166 49.5563 1.58849 43.8763 0.451396 37.3088C0.310094 36.4898 0.240065 35.6582 0.136277 34.8329C0.121271 34.7079 0.152533 34.5828 0.0112305 34.5066V29.3784C0.158785 29.3146 0.128774 29.1758 0.136277 29.0583C0.269911 27.7564 0.471943 26.4625 0.741513 25.1818C3.42376 12.3883 14.3016 2.21207 27.2601 0.362634C28.0504 0.250092 28.8632 0.275101 29.636 0.00625079L34.374 0ZM19.8148 41.1328C19.9604 41.1365 20.1056 41.1477 20.25 41.1665C20.5951 41.2265 20.7302 41.144 20.7002 40.7451C20.4876 37.9407 20.3801 35.1322 20.3776 32.3195C20.3776 29.8186 20.4263 27.3176 20.6014 24.8267C20.6589 24.0077 20.6552 24.0002 19.8186 23.9076C18.7632 23.7926 17.7041 23.7113 16.6524 23.575C12.8338 23.1016 9.04385 22.4204 5.29945 21.5342C4.94682 21.4492 4.78052 21.5342 4.65422 21.8819C2.70475 27.2426 2.34835 32.7109 3.51503 38.288C3.58506 38.6218 3.74762 38.7681 4.08025 38.8257C4.92056 38.9707 5.75212 39.157 6.58994 39.3171C10.9637 40.1514 15.378 40.7575 19.8148 41.1328ZM31.9443 21.6418C34.4853 21.6555 37.0225 21.5718 39.5597 21.4292C40.1749 21.3942 40.3175 21.2279 40.2487 20.6364C39.9136 17.7603 39.5709 14.8943 38.9982 12.057C38.4268 9.19966 37.724 6.37862 36.6573 3.65761C36.5435 3.3675 36.4348 3.16868 36.0696 3.12366C33.4659 2.78753 30.8305 2.77703 28.2242 3.0924C27.6878 3.15867 27.4339 3.34249 27.2514 3.84268C25.2106 9.35097 24.3153 15.0969 23.7388 20.9003C23.7 21.2929 23.8226 21.3867 24.2002 21.4129C26.7787 21.5822 29.3601 21.6576 31.9443 21.6393V21.6418ZM20.4401 21.1191C20.7277 21.1829 20.9028 21.1078 20.9003 20.7527C20.917 20.5037 20.9466 20.2558 20.989 20.0099C21.4992 14.7192 22.3971 9.50603 24.0239 4.43164C24.0652 4.3066 24.2102 4.15904 24.0689 4.0365C23.9439 3.93146 23.7938 4.02775 23.6575 4.06901C22.1797 4.50849 20.7405 5.06892 19.3547 5.74463C13.6859 8.52566 9.33553 12.6868 6.30357 18.228C6.06098 18.6707 6.06725 18.8382 6.63246 18.937C8.10426 19.1959 9.56104 19.5485 11.0303 19.8261C14.139 20.4088 17.2726 20.814 20.4326 21.1166L20.4401 21.1191Z" fill="#86BFF0"/>
<path d="M29.4997 64C28.7357 63.7162 27.9141 63.7949 27.1313 63.6249C26.4598 63.4823 25.7771 63.396 25.1093 63.2397C24.2903 63.0484 23.8464 62.3369 24.0064 61.5479C24.0422 61.3683 24.1137 61.1977 24.2167 61.0463C24.3196 60.8949 24.4519 60.7656 24.6057 60.6663C24.7596 60.5669 24.9318 60.4995 25.1121 60.4679C25.2925 60.4363 25.4774 60.4413 25.6558 60.4825C27.9942 60.9264 30.3425 61.1977 32.7284 61.1352C33.8538 61.1052 34.9692 60.9789 36.0872 60.8714C36.4623 60.8351 36.5523 60.6013 36.6624 60.3199C37.6515 57.7727 38.3405 55.1405 38.8794 52.4657C39.0145 51.7955 39.2546 51.2153 39.9811 51.0177C41.0415 50.7263 41.9368 51.6204 41.7318 52.7759C41.6067 53.4499 41.4442 54.1176 41.2903 54.7854C40.9265 56.3672 40.5026 57.9315 39.9936 59.4733C39.9436 59.6234 39.7935 59.8022 39.9136 59.9373C40.0661 60.1098 40.2625 59.9435 40.43 59.891C48.4205 57.3626 54.3102 52.3444 58.1266 44.8979C58.5778 44.0056 58.9749 43.0869 59.3158 42.1469C59.3416 42.0491 59.3608 41.9497 59.3733 41.8493C58.3279 42.0381 57.3326 42.2244 56.3347 42.3958C55.2093 42.5921 54.0838 42.7859 52.9509 42.966C52.0131 43.1148 51.2653 42.6096 51.144 41.7668C51.029 40.9752 51.6029 40.2737 52.5195 40.1412C54.9279 39.7898 57.3176 39.3396 59.7047 38.867C60.1874 38.7719 60.4162 38.5856 60.525 38.0617C61.3224 34.1762 61.3457 30.1717 60.5938 26.2773C60.4275 25.3895 60.8739 24.6517 61.6454 24.5004C62.487 24.3316 63.1847 24.8117 63.3736 25.7146C63.599 26.8574 63.7659 28.011 63.8737 29.1709C63.8887 29.3247 63.8087 29.5135 63.9988 29.6185V34.4953C63.8487 34.5578 63.88 34.6966 63.8737 34.8142C63.6657 36.9662 63.2559 39.0938 62.6495 41.1691C59.282 52.8309 48.7694 61.9468 36.7487 63.6374C35.9171 63.7549 35.063 63.7299 34.2477 63.995L29.4997 64Z" fill="#86BFF0"/>
<path d="M63.9988 9.62104C63.7412 10.3238 63.7387 11.0766 63.5711 11.7981C62.5608 16.166 60.6213 20.135 58.3554 23.9614C55.4068 28.9395 51.9143 33.5199 48.0766 37.8415C47.7115 38.2529 47.654 38.5493 47.864 39.082C48.8482 41.5729 48.4442 43.895 46.6611 45.8758C44.8504 47.8865 42.5346 48.5017 39.9548 47.729C37.3751 46.9562 35.8283 45.143 35.4282 42.5108C35.0243 39.856 35.9771 37.634 38.2242 36.1334C40.4713 34.6328 42.8672 34.6091 45.2356 35.9608C45.5144 36.1196 45.692 36.2922 46.0008 35.9371C50.2524 31.0603 54.1401 25.9209 57.21 20.205C58.8894 17.0788 60.3262 13.8551 60.9389 10.3263C61.189 8.88077 61.2665 7.42773 60.8576 5.99344C60.3187 4.09899 58.7793 2.98482 56.5898 2.86728C55.3201 2.80921 54.0484 2.92406 52.8096 3.20866C52.2119 3.34121 51.6354 3.28244 51.219 2.75849C50.8702 2.31833 50.7701 1.82565 51.0052 1.29545C51.2165 0.822773 51.5967 0.581431 52.0906 0.44513C52.7621 0.258811 53.4836 0.303827 54.1239 -0.00878906H57.125C57.2363 0.168777 57.4226 0.100004 57.5776 0.122512C60.7276 0.567678 62.9546 2.53966 63.7137 5.55703C63.8137 5.95093 63.7987 6.37233 63.9988 6.74122V9.62104ZM41.9306 37.8615C41.4463 37.8504 40.9647 37.935 40.5132 38.1104C40.0617 38.2859 39.6493 38.5487 39.2996 38.8839C38.9499 39.219 38.6698 39.6199 38.4754 40.0636C38.281 40.5072 38.1761 40.9849 38.1667 41.4691C38.1254 43.4636 39.8285 45.198 41.8293 45.2005C42.7962 45.2013 43.7244 44.8211 44.413 44.1424C45.1015 43.4636 45.495 42.5409 45.5082 41.5742C45.5179 41.0954 45.433 40.6195 45.2583 40.1737C45.0836 39.7278 44.8225 39.3209 44.4901 38.9763C44.1577 38.6316 43.7604 38.3561 43.3212 38.1654C42.8819 37.9748 42.4094 37.8728 41.9306 37.8653V37.8615Z" fill="#86BFF0"/>
<path d="M0 54.1251C0.310115 53.4398 0.257586 52.6733 0.490172 51.9705C0.702751 51.3266 1.17793 50.9702 1.83442 50.9702C2.13849 50.963 2.43659 51.0554 2.68331 51.2333C2.93003 51.4112 3.11186 51.6648 3.20117 51.9555C3.29746 52.2832 3.24745 52.6095 3.18117 52.9409C2.89857 54.3539 2.706 55.7795 2.96109 57.215C3.40501 59.7159 4.91557 61.0089 7.46276 61.1315C10.1438 61.2565 12.6559 60.5362 15.1094 59.5834C19.7361 57.7877 23.9326 55.2068 27.9629 52.3494C29.7961 51.0465 31.5605 49.6559 33.3124 48.2467C34.2615 47.4826 35.5344 47.944 35.6958 49.0945C35.7858 49.7447 35.4307 50.1886 34.953 50.5788C31.8193 53.131 28.5756 55.5306 25.1318 57.6514C21.653 59.7935 18.0567 61.6954 14.1427 62.9384C12.7601 63.3927 11.336 63.7097 9.89115 63.885C9.78987 63.8962 9.68109 63.885 9.62732 64.01H6.62621C6.51117 63.8024 6.29234 63.875 6.12602 63.8412C2.8398 63.1885 0.859073 61.2327 0.191325 57.944C0.153811 57.759 0.223836 57.5164 0.00250337 57.3851L0 54.1251Z" fill="#86BFF0"/>
</g>
<defs>
<clipPath id="clip0_998_1248">
<rect width="64" height="64" fill="white"/>
</clipPath>
</defs>
</svg>
