<svg width="16" height="16" viewBox="0 0 16 16" fill="none" xmlns="http://www.w3.org/2000/svg">
<path d="M3.29464 0H12.7054C14.5249 0 16 1.47506 16 3.29464V12.7054C16 14.5249 14.5249 16 12.7054 16H3.29464C1.47506 16 0 14.5249 0 12.7054V3.29464C0 1.47506 1.47506 0 3.29464 0Z" fill="#232323"/>
<path d="M4.50372 13.2515H11.4959C11.9612 13.2509 12.4074 13.0658 12.7365 12.7368C13.0656 12.4078 13.2508 11.9617 13.2515 11.4963V4.50546C13.2509 4.04007 13.0657 3.5939 12.7366 3.26486C12.4075 2.93581 11.9613 2.75076 11.4959 2.75031H4.50372C4.0384 2.75088 3.5923 2.93598 3.26326 3.26501C2.93423 3.59404 2.74913 4.04014 2.74856 4.50546V11.4976C2.74947 11.9627 2.93473 12.4085 3.26372 12.7372C3.59272 13.066 4.03862 13.2509 4.50372 13.2515ZM11.4959 3.32314C11.8092 3.32348 12.1096 3.4482 12.3311 3.66989C12.5525 3.89158 12.6769 4.19211 12.6769 4.50546V11.4976C12.6765 11.8107 12.5519 12.1108 12.3305 12.3321C12.1091 12.5534 11.8089 12.6779 11.4959 12.6782H4.50372C4.19071 12.6779 3.89062 12.5534 3.66929 12.3321C3.44795 12.1107 3.32346 11.8106 3.32312 11.4976V4.50546C3.32346 4.19241 3.44794 3.89228 3.66926 3.67088C3.89058 3.44948 4.19067 3.32489 4.50372 3.32443L11.4959 3.32314Z" fill="white"/>
<path d="M7.99981 10.6949C8.62334 10.695 9.22762 10.4789 9.70968 10.0834C10.1917 9.68786 10.5217 9.13745 10.6435 8.52591C10.7652 7.91437 10.6711 7.27954 10.3772 6.72961C10.0833 6.17967 9.60785 5.74865 9.0318 5.50998C8.45575 5.27132 7.81476 5.23978 7.21806 5.42075C6.62136 5.60172 6.10588 5.98399 5.75944 6.50242C5.413 7.02086 5.25704 7.64338 5.31815 8.26392C5.37925 8.88445 5.65364 9.4646 6.09454 9.9055C6.34417 10.1565 6.64109 10.3555 6.96812 10.491C7.29516 10.6265 7.64582 10.6958 7.99981 10.6949ZM7.99981 5.87974C8.41926 5.87965 8.82932 6.00396 9.17811 6.23696C9.5269 6.46995 9.79876 6.80114 9.95929 7.18866C10.1198 7.57617 10.1618 8.00259 10.08 8.41398C9.99815 8.82537 9.79614 9.20325 9.49951 9.49982C9.20288 9.79638 8.82497 9.99832 8.41356 10.0801C8.00215 10.1618 7.57574 10.1197 7.18826 9.95913C6.80077 9.79851 6.46963 9.52659 6.23671 9.17775C6.00379 8.82891 5.87956 8.41883 5.87973 7.99938C5.88053 7.43738 6.10416 6.89864 6.5016 6.50129C6.89903 6.10394 7.43781 5.88042 7.99981 5.87974Z" fill="white"/>
<path d="M4.15427 4.3258C4.08865 4.04781 4.26082 3.76925 4.53882 3.70364C4.81682 3.63803 5.09537 3.8102 5.16098 4.0882C5.2266 4.36619 5.05442 4.64474 4.77643 4.71036C4.49843 4.77597 4.21988 4.6038 4.15427 4.3258Z" fill="white"/>
</svg>
